<svg width="158" height="494" viewBox="0 0 158 494" fill="none" xmlns="http://www.w3.org/2000/svg">
<circle cx="16" cy="16" r="11.5" fill="#F1F5F8" stroke="#E9EEF2"/>
<mask id="path-2-outside-1_669_9235" maskUnits="userSpaceOnUse" x="10" y="10" width="12" height="13" fill="black">
<rect fill="white" x="10" y="10" width="12" height="13"/>
<path d="M17.0469 18.048V22H14.9669V18.08L10.5669 10.8H12.7909L16.0709 16.256L19.3829 10.8H21.4309L17.0469 18.048Z"/>
</mask>
<path d="M17.0469 18.048V22H14.9669V18.08L10.5669 10.8H12.7909L16.0709 16.256L19.3829 10.8H21.4309L17.0469 18.048Z" fill="#172126"/>
<path d="M17.0469 18.048L16.8758 17.9445C16.8569 17.9757 16.8469 18.0115 16.8469 18.048H17.0469ZM17.0469 22V22.2C17.1574 22.2 17.2469 22.1105 17.2469 22H17.0469ZM14.9669 22H14.7669C14.7669 22.1105 14.8565 22.2 14.9669 22.2V22ZM14.9669 18.08H15.1669C15.1669 18.0435 15.157 18.0078 15.1381 17.9765L14.9669 18.08ZM10.5669 10.8V10.6C10.4948 10.6 10.4282 10.6389 10.3927 10.7017C10.3573 10.7646 10.3584 10.8417 10.3958 10.9035L10.5669 10.8ZM12.7909 10.8L12.9623 10.697C12.9262 10.6368 12.8611 10.6 12.7909 10.6V10.8ZM16.0709 16.256L15.8995 16.359C15.9356 16.4191 16.0005 16.4558 16.0705 16.456C16.1405 16.4561 16.2056 16.4197 16.2419 16.3598L16.0709 16.256ZM19.3829 10.8V10.6C19.3131 10.6 19.2482 10.6365 19.212 10.6962L19.3829 10.8ZM21.4309 10.8L21.6021 10.9035C21.6394 10.8417 21.6406 10.7646 21.6052 10.7018C21.5697 10.6389 21.5031 10.6 21.4309 10.6V10.8ZM16.8469 18.048V22H17.2469V18.048H16.8469ZM17.0469 21.8H14.9669V22.2H17.0469V21.8ZM15.1669 22V18.08H14.7669V22H15.1669ZM15.1381 17.9765L10.7381 10.6965L10.3958 10.9035L14.7958 18.1835L15.1381 17.9765ZM10.5669 11H12.7909V10.6H10.5669V11ZM12.6195 10.903L15.8995 16.359L16.2423 16.153L12.9623 10.697L12.6195 10.903ZM16.2419 16.3598L19.5539 10.9038L19.212 10.6962L15.9 16.1522L16.2419 16.3598ZM19.3829 11H21.4309V10.6H19.3829V11ZM21.2598 10.6965L16.8758 17.9445L17.2181 18.1515L21.6021 10.9035L21.2598 10.6965Z" fill="#172126" mask="url(#path-2-outside-1_669_9235)"/>
<circle cx="58" cy="16" r="11.5" fill="#F1F5F8" stroke="#E9EEF2"/>
<mask id="path-5-outside-2_669_9235" maskUnits="userSpaceOnUse" x="53" y="10" width="12" height="13" fill="black">
<rect fill="white" x="53" y="10" width="12" height="13"/>
<path d="M61.8541 16.176C62.4727 16.3787 62.9634 16.72 63.3261 17.2C63.6887 17.6693 63.8701 18.256 63.8701 18.96C63.8701 19.9307 63.4967 20.6827 62.7501 21.216C62.0034 21.7387 60.9154 22 59.4861 22H53.9181V10.8H59.1661C60.4887 10.8 61.5074 11.0613 62.2221 11.584C62.9367 12.096 63.2941 12.8053 63.2941 13.712C63.2941 14.2667 63.1661 14.7573 62.9101 15.184C62.6541 15.6107 62.3021 15.9413 61.8541 16.176ZM55.9981 12.432V15.52H58.9421C59.6674 15.52 60.2221 15.392 60.6061 15.136C61.0007 14.8693 61.1981 14.4853 61.1981 13.984C61.1981 13.472 61.0007 13.088 60.6061 12.832C60.2221 12.5653 59.6674 12.432 58.9421 12.432H55.9981ZM59.3581 20.368C60.9687 20.368 61.7741 19.8293 61.7741 18.752C61.7741 17.6747 60.9687 17.136 59.3581 17.136H55.9981V20.368H59.3581Z"/>
</mask>
<path d="M61.8541 16.176C62.4727 16.3787 62.9634 16.72 63.3261 17.2C63.6887 17.6693 63.8701 18.256 63.8701 18.96C63.8701 19.9307 63.4967 20.6827 62.7501 21.216C62.0034 21.7387 60.9154 22 59.4861 22H53.9181V10.8H59.1661C60.4887 10.8 61.5074 11.0613 62.2221 11.584C62.9367 12.096 63.2941 12.8053 63.2941 13.712C63.2941 14.2667 63.1661 14.7573 62.9101 15.184C62.6541 15.6107 62.3021 15.9413 61.8541 16.176ZM55.9981 12.432V15.52H58.9421C59.6674 15.52 60.2221 15.392 60.6061 15.136C61.0007 14.8693 61.1981 14.4853 61.1981 13.984C61.1981 13.472 61.0007 13.088 60.6061 12.832C60.2221 12.5653 59.6674 12.432 58.9421 12.432H55.9981ZM59.3581 20.368C60.9687 20.368 61.7741 19.8293 61.7741 18.752C61.7741 17.6747 60.9687 17.136 59.3581 17.136H55.9981V20.368H59.3581Z" fill="#172126"/>
<path d="M61.8541 16.176L61.7613 15.9988C61.69 16.0361 61.6481 16.1125 61.6548 16.1926C61.6614 16.2727 61.7154 16.341 61.7918 16.3661L61.8541 16.176ZM63.3261 17.2L63.1665 17.3206L63.1678 17.3223L63.3261 17.2ZM62.7501 21.216L62.8648 21.3799L62.8663 21.3787L62.7501 21.216ZM53.9181 22H53.7181C53.7181 22.1105 53.8076 22.2 53.9181 22.2V22ZM53.9181 10.8V10.6C53.8076 10.6 53.7181 10.6895 53.7181 10.8H53.9181ZM62.2221 11.584L62.104 11.7454L62.1056 11.7466L62.2221 11.584ZM62.9101 15.184L62.7386 15.0811L62.9101 15.184ZM55.9981 12.432V12.232C55.8876 12.232 55.7981 12.3215 55.7981 12.432H55.9981ZM55.9981 15.52H55.7981C55.7981 15.6305 55.8876 15.72 55.9981 15.72V15.52ZM60.6061 15.136L60.717 15.3024L60.718 15.3017L60.6061 15.136ZM60.6061 12.832L60.4919 12.9964L60.4972 12.9998L60.6061 12.832ZM55.9981 17.136V16.936C55.8876 16.936 55.7981 17.0255 55.7981 17.136H55.9981ZM55.9981 20.368H55.7981C55.7981 20.4785 55.8876 20.568 55.9981 20.568V20.368ZM61.7918 16.3661C62.375 16.5571 62.8305 16.8758 63.1665 17.3206L63.4856 17.0794C63.0963 16.5642 62.5704 16.2002 61.9163 15.9859L61.7918 16.3661ZM63.1678 17.3223C63.4986 17.7504 63.6701 18.2917 63.6701 18.96H64.0701C64.0701 18.2203 63.8789 17.5883 63.4843 17.0777L63.1678 17.3223ZM63.6701 18.96C63.6701 19.8705 63.3244 20.5599 62.6338 21.0533L62.8663 21.3787C63.669 20.8054 64.0701 19.9909 64.0701 18.96H63.6701ZM62.6354 21.0522C61.9365 21.5414 60.896 21.8 59.4861 21.8V22.2C60.9348 22.2 62.0703 21.936 62.8648 21.3798L62.6354 21.0522ZM59.4861 21.8H53.9181V22.2H59.4861V21.8ZM54.1181 22V10.8H53.7181V22H54.1181ZM53.9181 11H59.1661V10.6H53.9181V11ZM59.1661 11C60.4662 11 61.4368 11.2575 62.104 11.7454L62.3401 11.4226C61.578 10.8652 60.5113 10.6 59.1661 10.6V11ZM62.1056 11.7466C62.7659 12.2197 63.0941 12.8674 63.0941 13.712H63.4941C63.4941 12.7432 63.1075 11.9723 62.3385 11.4214L62.1056 11.7466ZM63.0941 13.712C63.0941 14.2347 62.9738 14.689 62.7386 15.0811L63.0816 15.2869C63.3583 14.8257 63.4941 14.2986 63.4941 13.712H63.0941ZM62.7386 15.0811C62.5018 15.4757 62.1773 15.7809 61.7613 15.9988L61.9469 16.3532C62.4269 16.1017 62.8063 15.7456 63.0816 15.2869L62.7386 15.0811ZM55.7981 12.432V15.52H56.1981V12.432H55.7981ZM55.9981 15.72H58.9421V15.32H55.9981V15.72ZM58.9421 15.72C59.6861 15.72 60.2863 15.5895 60.717 15.3024L60.4951 14.9696C60.1578 15.1945 59.6487 15.32 58.9421 15.32V15.72ZM60.718 15.3017C61.1711 14.9956 61.3981 14.5476 61.3981 13.984H60.9981C60.9981 14.4231 60.8304 14.7431 60.4941 14.9703L60.718 15.3017ZM61.3981 13.984C61.3981 13.4114 61.1721 12.9608 60.7149 12.6642L60.4972 12.9998C60.8293 13.2152 60.9981 13.5326 60.9981 13.984H61.3981ZM60.7201 12.6677C60.2888 12.3682 59.6873 12.232 58.9421 12.232V12.632C59.6475 12.632 60.1553 12.7625 60.492 12.9963L60.7201 12.6677ZM58.9421 12.232H55.9981V12.632H58.9421V12.232ZM59.3581 20.568C60.1794 20.568 60.8304 20.4318 61.2813 20.1302C61.7463 19.8192 61.9741 19.3486 61.9741 18.752H61.5741C61.5741 19.2327 61.3991 19.5702 61.0589 19.7978C60.7044 20.0349 60.1474 20.168 59.3581 20.168V20.568ZM61.9741 18.752C61.9741 18.1554 61.7463 17.6848 61.2813 17.3738C60.8304 17.0722 60.1794 16.936 59.3581 16.936V17.336C60.1474 17.336 60.7044 17.4691 61.0589 17.7062C61.3991 17.9338 61.5741 18.2713 61.5741 18.752H61.9741ZM59.3581 16.936H55.9981V17.336H59.3581V16.936ZM55.7981 17.136V20.368H56.1981V17.136H55.7981ZM55.9981 20.568H59.3581V20.168H55.9981V20.568Z" fill="#172126" mask="url(#path-5-outside-2_669_9235)"/>
<circle cx="100" cy="16" r="11.5" fill="#F1F5F8" stroke="#E9EEF2"/>
<mask id="path-8-outside-3_669_9235" maskUnits="userSpaceOnUse" x="93" y="10" width="14" height="13" fill="black">
<rect fill="white" x="93" y="10" width="14" height="13"/>
<path d="M102.776 19.408H97.1758L96.0718 22H93.9278L98.9678 10.8H101.016L106.072 22H103.896L102.776 19.408ZM102.088 17.776L99.9758 12.88L97.8798 17.776H102.088Z"/>
</mask>
<path d="M102.776 19.408H97.1758L96.0718 22H93.9278L98.9678 10.8H101.016L106.072 22H103.896L102.776 19.408ZM102.088 17.776L99.9758 12.88L97.8798 17.776H102.088Z" fill="#172126"/>
<path d="M102.776 19.408L102.959 19.3287C102.928 19.2554 102.856 19.208 102.776 19.208V19.408ZM97.1758 19.408V19.208C97.0956 19.208 97.0232 19.2559 96.9918 19.3296L97.1758 19.408ZM96.0718 22V22.2C96.152 22.2 96.2244 22.1521 96.2558 22.0784L96.0718 22ZM93.9278 22L93.7454 21.9179C93.7176 21.9798 93.723 22.0516 93.7599 22.1086C93.7967 22.1656 93.8599 22.2 93.9278 22.2V22ZM98.9678 10.8V10.6C98.8891 10.6 98.8177 10.6462 98.7854 10.7179L98.9678 10.8ZM101.016 10.8L101.198 10.7177C101.166 10.6461 101.094 10.6 101.016 10.6V10.8ZM106.072 22V22.2C106.14 22.2 106.203 22.1655 106.24 22.1085C106.277 22.0514 106.282 21.9796 106.254 21.9177L106.072 22ZM103.896 22L103.712 22.0793C103.744 22.1526 103.816 22.2 103.896 22.2V22ZM102.088 17.776V17.976C102.155 17.976 102.218 17.9421 102.255 17.8859C102.292 17.8297 102.298 17.7586 102.271 17.6968L102.088 17.776ZM99.9758 12.88L100.159 12.8008C100.128 12.7274 100.055 12.6799 99.9755 12.68C99.8956 12.6801 99.8234 12.7278 99.792 12.8013L99.9758 12.88ZM97.8798 17.776L97.696 17.6973C97.6695 17.7591 97.6759 17.83 97.7129 17.8861C97.7499 17.9422 97.8126 17.976 97.8798 17.976V17.776ZM102.776 19.208H97.1758V19.608H102.776V19.208ZM96.9918 19.3296L95.8878 21.9216L96.2558 22.0784L97.3598 19.4864L96.9918 19.3296ZM96.0718 21.8H93.9278V22.2H96.0718V21.8ZM94.1102 22.0821L99.1502 10.8821L98.7854 10.7179L93.7454 21.9179L94.1102 22.0821ZM98.9678 11H101.016V10.6H98.9678V11ZM100.834 10.8823L105.89 22.0823L106.254 21.9177L101.198 10.7177L100.834 10.8823ZM106.072 21.8H103.896V22.2H106.072V21.8ZM104.079 21.9207L102.959 19.3287L102.592 19.4873L103.712 22.0793L104.079 21.9207ZM102.271 17.6968L100.159 12.8008L99.7922 12.9592L101.904 17.8552L102.271 17.6968ZM99.792 12.8013L97.696 17.6973L98.0637 17.8547L100.16 12.9587L99.792 12.8013ZM97.8798 17.976H102.088V17.576H97.8798V17.976Z" fill="#172126" mask="url(#path-8-outside-3_669_9235)"/>
<circle cx="142" cy="16" r="11.5" fill="#F1F5F8" stroke="#E9EEF2"/>
<mask id="path-11-outside-4_669_9235" maskUnits="userSpaceOnUse" x="136" y="10" width="12" height="13" fill="black">
<rect fill="white" x="136" y="10" width="12" height="13"/>
<path d="M145.013 22L141.973 17.744L138.965 22H136.597L140.757 16.288L136.821 10.8H139.173L142.037 14.784L144.869 10.8H147.125L143.205 16.208L147.413 22H145.013Z"/>
</mask>
<path d="M145.013 22L141.973 17.744L138.965 22H136.597L140.757 16.288L136.821 10.8H139.173L142.037 14.784L144.869 10.8H147.125L143.205 16.208L147.413 22H145.013Z" fill="#172126"/>
<path d="M145.013 22L144.85 22.1162C144.888 22.1688 144.949 22.2 145.013 22.2V22ZM141.973 17.744L142.136 17.6278C142.098 17.575 142.037 17.5438 141.973 17.544C141.908 17.5442 141.847 17.5757 141.81 17.6286L141.973 17.744ZM138.965 22V22.2C139.03 22.2 139.091 22.1685 139.128 22.1154L138.965 22ZM136.597 22L136.435 21.8823C136.391 21.9431 136.385 22.0236 136.419 22.0907C136.453 22.1578 136.522 22.2 136.597 22.2V22ZM140.757 16.288L140.919 16.4057C140.97 16.336 140.97 16.2415 140.92 16.1714L140.757 16.288ZM136.821 10.8V10.6C136.746 10.6 136.677 10.6419 136.643 10.7087C136.609 10.7754 136.615 10.8556 136.659 10.9166L136.821 10.8ZM139.173 10.8L139.336 10.6833C139.298 10.631 139.238 10.6 139.173 10.6V10.8ZM142.037 14.784L141.875 14.9007C141.912 14.9532 141.973 14.9842 142.038 14.984C142.102 14.9838 142.163 14.9525 142.2 14.8999L142.037 14.784ZM144.869 10.8V10.6C144.804 10.6 144.744 10.6313 144.706 10.6841L144.869 10.8ZM147.125 10.8L147.287 10.9174C147.331 10.8565 147.337 10.7761 147.303 10.7091C147.269 10.6421 147.2 10.6 147.125 10.6V10.8ZM143.205 16.208L143.043 16.0906C142.992 16.1607 142.992 16.2555 143.043 16.3256L143.205 16.208ZM147.413 22V22.2C147.488 22.2 147.557 22.1578 147.591 22.0908C147.625 22.0238 147.619 21.9433 147.575 21.8824L147.413 22ZM145.176 21.8838L142.136 17.6278L141.81 17.8602L144.85 22.1162L145.176 21.8838ZM141.81 17.6286L138.802 21.8846L139.128 22.1154L142.136 17.8594L141.81 17.6286ZM138.965 21.8H136.597V22.2H138.965V21.8ZM136.759 22.1177L140.919 16.4057L140.595 16.1703L136.435 21.8823L136.759 22.1177ZM140.92 16.1714L136.984 10.6834L136.659 10.9166L140.595 16.4046L140.92 16.1714ZM136.821 11H139.173V10.6H136.821V11ZM139.011 10.9167L141.875 14.9007L142.2 14.6673L139.336 10.6833L139.011 10.9167ZM142.2 14.8999L145.032 10.9159L144.706 10.6841L141.874 14.6681L142.2 14.8999ZM144.869 11H147.125V10.6H144.869V11ZM146.963 10.6826L143.043 16.0906L143.367 16.3254L147.287 10.9174L146.963 10.6826ZM143.043 16.3256L147.251 22.1176L147.575 21.8824L143.367 16.0904L143.043 16.3256ZM147.413 21.8H145.013V22.2H147.413V21.8Z" fill="#172126" mask="url(#path-11-outside-4_669_9235)"/>
<circle cx="12" cy="12" r="11.5" transform="matrix(1.19249e-08 -1 -1 -1.19249e-08 28 70)" fill="#F1F5F8" stroke="#E9EEF2"/>
<path d="M15.8 53.2L21 61L10.6 61L15.8 53.2Z" fill="#172126"/>
<circle cx="58" cy="58" r="11.5" transform="rotate(90 58 58)" fill="#F1F5F8" stroke="#E9EEF2"/>
<path d="M57.8 62.8L63 55L52.6 55L57.8 62.8Z" fill="#172126"/>
<circle cx="12" cy="12" r="11.5" transform="matrix(-1 0 0 1 112 46)" fill="#F1F5F8" stroke="#E9EEF2"/>
<path d="M95.2 58.2L103 53V63.4L95.2 58.2Z" fill="#172126"/>
<circle cx="142" cy="58" r="11.5" fill="#F1F5F8" stroke="#E9EEF2"/>
<path d="M146.8 58.2L139 53V63.4L146.8 58.2Z" fill="#172126"/>
<path d="M27 110H4C3.44772 110 3 109.552 3 109V95C3 92.2386 5.23858 90 8 90H27C27.5523 90 28 90.4477 28 91V109C28 109.552 27.5523 110 27 110Z" fill="#F1F5F8" stroke="#E9EEF2"/>
<path d="M12.68 95.8H14.28V105.608H20.344V107H12.68V95.8Z" fill="#172126"/>
<path d="M46 110H69C69.5523 110 70 109.552 70 109V95C70 92.2386 67.7614 90 65 90H46C45.4477 90 45 90.4477 45 91V109C45 109.552 45.4477 110 46 110Z" fill="#F1F5F8" stroke="#E9EEF2"/>
<path d="M61.168 107L58.752 103.56C58.4533 103.581 58.2187 103.592 58.048 103.592H55.28V107H53.68V95.8H58.048C59.4987 95.8 60.64 96.1467 61.472 96.84C62.304 97.5333 62.72 98.488 62.72 99.704C62.72 100.568 62.5067 101.304 62.08 101.912C61.6533 102.52 61.0453 102.963 60.256 103.24L62.912 107H61.168ZM58 102.232C59.0133 102.232 59.7867 102.013 60.32 101.576C60.8533 101.139 61.12 100.515 61.12 99.704C61.12 98.8933 60.8533 98.2747 60.32 97.848C59.7867 97.4107 59.0133 97.192 58 97.192H55.28V102.232H58Z" fill="#172126"/>
<path d="M88 96.5C88 91.2533 92.2533 87 97.5 87H109.5C110.881 87 112 88.1193 112 89.5V111.5C112 111.776 111.776 112 111.5 112H88.5C88.2239 112 88 111.776 88 111.5V96.5Z" fill="#F1F5F8" stroke="#E9EEF2"/>
<path d="M101.048 105.608V107H91.688V105.912L98.728 97.192H91.8V95.8H100.84V96.888L93.832 105.608H101.048ZM102.986 97.2H104.386V105.782H109.692V107H102.986V97.2Z" fill="#172126"/>
<path d="M130 96.5C130 91.2533 134.253 87 139.5 87H151.5C152.881 87 154 88.1193 154 89.5V111.5C154 111.776 153.776 112 153.5 112H130.5C130.224 112 130 111.776 130 111.5V96.5Z" fill="#F1F5F8" stroke="#E9EEF2"/>
<path d="M142.048 105.608V107H132.688V105.912L139.728 97.192H132.8V95.8H141.84V96.888L134.832 105.608H142.048ZM150.538 107L148.424 103.99C148.162 104.009 147.957 104.018 147.808 104.018H145.386V107H143.986V97.2H147.808C149.077 97.2 150.076 97.5033 150.804 98.11C151.532 98.7167 151.896 99.552 151.896 100.616C151.896 101.372 151.709 102.016 151.336 102.548C150.962 103.08 150.43 103.467 149.74 103.71L152.064 107H150.538ZM147.766 102.828C148.652 102.828 149.329 102.637 149.796 102.254C150.262 101.871 150.496 101.325 150.496 100.616C150.496 99.9067 150.262 99.3653 149.796 98.992C149.329 98.6093 148.652 98.418 147.766 98.418H145.386V102.828H147.766Z" fill="#172126"/>
<path d="M27 152H8C5.23858 152 3 149.761 3 147V137C3 134.239 5.23858 132 8 132H27C27.5523 132 28 132.448 28 133V151C28 151.552 27.5523 152 27 152Z" fill="#F1F5F8" stroke="#E9EEF2"/>
<path d="M11.444 149.128C9.732 149.128 8.052 148.552 7.156 147.72L7.748 146.472C8.58 147.224 10.004 147.768 11.444 147.768C13.38 147.768 14.212 147.016 14.212 146.04C14.212 143.304 7.428 145.032 7.428 140.872C7.428 139.144 8.772 137.672 11.716 137.672C13.028 137.672 14.388 138.024 15.316 138.664L14.788 139.944C13.812 139.32 12.708 139.032 11.716 139.032C9.812 139.032 8.996 139.832 8.996 140.808C8.996 143.544 15.78 141.832 15.78 145.944C15.78 147.656 14.404 149.128 11.444 149.128ZM17.9075 149V139.2H19.3075V147.782H24.6135V149H17.9075Z" fill="#172126"/>
<path d="M46 152H65C67.7614 152 70 149.761 70 147V137C70 134.239 67.7614 132 65 132H46C45.4477 132 45 132.448 45 133V151C45 151.552 45.4477 152 46 152Z" fill="#F1F5F8" stroke="#E9EEF2"/>
<path d="M52.444 149.128C50.732 149.128 49.052 148.552 48.156 147.72L48.748 146.472C49.58 147.224 51.004 147.768 52.444 147.768C54.38 147.768 55.212 147.016 55.212 146.04C55.212 143.304 48.428 145.032 48.428 140.872C48.428 139.144 49.772 137.672 52.716 137.672C54.028 137.672 55.388 138.024 56.316 138.664L55.788 139.944C54.812 139.32 53.708 139.032 52.716 139.032C50.812 139.032 49.996 139.832 49.996 140.808C49.996 143.544 56.78 141.832 56.78 145.944C56.78 147.656 55.404 149.128 52.444 149.128ZM66.9855 149H65.4595L63.3455 145.99C63.1495 146.004 62.9395 146.018 62.7295 146.018H60.3075V149H58.9075V139.2H62.7295C65.2775 139.2 66.8175 140.488 66.8175 142.616C66.8175 144.128 66.0335 145.22 64.6615 145.71L66.9855 149ZM62.6875 144.828C64.4795 144.828 65.4175 144.016 65.4175 142.616C65.4175 141.216 64.4795 140.418 62.6875 140.418H60.3075V144.828H62.6875Z" fill="#172126"/>
<mask id="path-33-inside-5_669_9235" fill="white">
<path fill-rule="evenodd" clip-rule="evenodd" d="M96.6923 128C96.14 128 95.6923 128.448 95.6923 129V136.692C95.6923 137.245 95.2446 137.692 94.6923 137.692H87C86.4477 137.692 86 138.14 86 138.692V145.308C86 145.86 86.4477 146.308 87 146.308H94.6923C95.2446 146.308 95.6923 146.755 95.6923 147.308V155C95.6923 155.552 96.14 156 96.6923 156H103.308C103.86 156 104.308 155.552 104.308 155V147.308C104.308 146.755 104.755 146.308 105.308 146.308H113C113.552 146.308 114 145.86 114 145.308V138.692C114 138.14 113.552 137.692 113 137.692H105.308C104.755 137.692 104.308 137.245 104.308 136.692V129C104.308 128.448 103.86 128 103.308 128H96.6923Z"/>
</mask>
<path fill-rule="evenodd" clip-rule="evenodd" d="M96.6923 128C96.14 128 95.6923 128.448 95.6923 129V136.692C95.6923 137.245 95.2446 137.692 94.6923 137.692H87C86.4477 137.692 86 138.14 86 138.692V145.308C86 145.86 86.4477 146.308 87 146.308H94.6923C95.2446 146.308 95.6923 146.755 95.6923 147.308V155C95.6923 155.552 96.14 156 96.6923 156H103.308C103.86 156 104.308 155.552 104.308 155V147.308C104.308 146.755 104.755 146.308 105.308 146.308H113C113.552 146.308 114 145.86 114 145.308V138.692C114 138.14 113.552 137.692 113 137.692H105.308C104.755 137.692 104.308 137.245 104.308 136.692V129C104.308 128.448 103.86 128 103.308 128H96.6923Z" fill="#F1F5F8"/>
<path d="M96.6923 129V129V127C95.5877 127 94.6923 127.895 94.6923 129H96.6923ZM96.6923 136.692V129H94.6923V136.692H96.6923ZM87 138.692H94.6923V136.692H87V138.692ZM87 138.692H87V136.692C85.8954 136.692 85 137.588 85 138.692H87ZM87 145.308V138.692H85V145.308H87ZM87 145.308H87H85C85 146.412 85.8954 147.308 87 147.308V145.308ZM94.6923 145.308H87V147.308H94.6923V145.308ZM96.6923 155V147.308H94.6923V155H96.6923ZM96.6923 155H94.6923C94.6923 156.105 95.5877 157 96.6923 157V155ZM103.308 155H96.6923V157H103.308V155ZM103.308 155H103.308V157C104.412 157 105.308 156.105 105.308 155H103.308ZM103.308 147.308V155H105.308V147.308H103.308ZM113 145.308H105.308V147.308H113V145.308ZM113 145.308V147.308C114.105 147.308 115 146.412 115 145.308H113ZM113 138.692V145.308H115V138.692H113ZM113 138.692H115C115 137.588 114.105 136.692 113 136.692V138.692ZM105.308 138.692H113V136.692H105.308V138.692ZM103.308 129V136.692H105.308V129H103.308ZM103.308 129H103.308H105.308C105.308 127.895 104.412 127 103.308 127V129ZM96.6923 129H103.308V127H96.6923V129ZM105.308 136.692V136.692H103.308C103.308 137.797 104.203 138.692 105.308 138.692V136.692ZM105.308 147.308V145.308C104.203 145.308 103.308 146.203 103.308 147.308H105.308ZM94.6923 147.308V147.308H96.6923C96.6923 146.203 95.7969 145.308 94.6923 145.308V147.308ZM94.6923 136.692H94.6923V138.692C95.7969 138.692 96.6923 137.797 96.6923 136.692H94.6923Z" fill="#F1F5F8" mask="url(#path-33-inside-5_669_9235)"/>
<path d="M100 153L102 150L98 150L100 153Z" fill="#172126"/>
<path d="M100 131L98 134L102 134L100 131Z" fill="#172126"/>
<path d="M111 142L108 140V144L111 142Z" fill="#172126"/>
<path d="M89 142L92 144L92 140L89 142Z" fill="#172126"/>
<mask id="path-39-inside-6_669_9235" fill="white">
<path fill-rule="evenodd" clip-rule="evenodd" d="M138.692 128C138.14 128 137.692 128.448 137.692 129V136.692C137.692 137.245 137.245 137.692 136.692 137.692H129C128.448 137.692 128 138.14 128 138.692V145.308C128 145.86 128.448 146.308 129 146.308H136.692C137.245 146.308 137.692 146.755 137.692 147.308V155C137.692 155.552 138.14 156 138.692 156H145.308C145.86 156 146.308 155.552 146.308 155V147.308C146.308 146.755 146.755 146.308 147.308 146.308H155C155.552 146.308 156 145.86 156 145.308V138.692C156 138.14 155.552 137.692 155 137.692H147.308C146.755 137.692 146.308 137.245 146.308 136.692V129C146.308 128.448 145.86 128 145.308 128H138.692Z"/>
</mask>
<path fill-rule="evenodd" clip-rule="evenodd" d="M138.692 128C138.14 128 137.692 128.448 137.692 129V136.692C137.692 137.245 137.245 137.692 136.692 137.692H129C128.448 137.692 128 138.14 128 138.692V145.308C128 145.86 128.448 146.308 129 146.308H136.692C137.245 146.308 137.692 146.755 137.692 147.308V155C137.692 155.552 138.14 156 138.692 156H145.308C145.86 156 146.308 155.552 146.308 155V147.308C146.308 146.755 146.755 146.308 147.308 146.308H155C155.552 146.308 156 145.86 156 145.308V138.692C156 138.14 155.552 137.692 155 137.692H147.308C146.755 137.692 146.308 137.245 146.308 136.692V129C146.308 128.448 145.86 128 145.308 128H138.692Z" fill="#F1F5F8"/>
<path d="M138.692 129V129V127C137.588 127 136.692 127.895 136.692 129H138.692ZM138.692 136.692V129H136.692V136.692H138.692ZM129 138.692H136.692V136.692H129V138.692ZM129 138.692H129V136.692C127.895 136.692 127 137.588 127 138.692H129ZM129 145.308V138.692H127V145.308H129ZM129 145.308H129H127C127 146.412 127.895 147.308 129 147.308V145.308ZM136.692 145.308H129V147.308H136.692V145.308ZM138.692 155V147.308H136.692V155H138.692ZM138.692 155H136.692C136.692 156.105 137.588 157 138.692 157V155ZM145.308 155H138.692V157H145.308V155ZM145.308 155H145.308V157C146.412 157 147.308 156.105 147.308 155H145.308ZM145.308 147.308V155H147.308V147.308H145.308ZM155 145.308H147.308V147.308H155V145.308ZM155 145.308V147.308C156.105 147.308 157 146.412 157 145.308H155ZM155 138.692V145.308H157V138.692H155ZM155 138.692H157C157 137.588 156.105 136.692 155 136.692V138.692ZM147.308 138.692H155V136.692H147.308V138.692ZM145.308 129V136.692H147.308V129H145.308ZM145.308 129H145.308H147.308C147.308 127.895 146.412 127 145.308 127V129ZM138.692 129H145.308V127H138.692V129ZM147.308 136.692V136.692H145.308C145.308 137.797 146.203 138.692 147.308 138.692V136.692ZM147.308 147.308V145.308C146.203 145.308 145.308 146.203 145.308 147.308H147.308ZM136.692 147.308V147.308H138.692C138.692 146.203 137.797 145.308 136.692 145.308V147.308ZM136.692 136.692H136.692V138.692C137.797 138.692 138.692 137.797 138.692 136.692H136.692Z" fill="#E9EEF2" mask="url(#path-39-inside-6_669_9235)"/>
<mask id="mask0_669_9235" style="mask-type:alpha" maskUnits="userSpaceOnUse" x="128" y="128" width="28" height="28">
<mask id="path-41-inside-7_669_9235" fill="white">
<path fill-rule="evenodd" clip-rule="evenodd" d="M138.692 128C138.14 128 137.692 128.448 137.692 129V136.692C137.692 137.245 137.245 137.692 136.692 137.692H129C128.448 137.692 128 138.14 128 138.692V145.308C128 145.86 128.448 146.308 129 146.308H136.692C137.245 146.308 137.692 146.755 137.692 147.308V155C137.692 155.552 138.14 156 138.692 156H145.308C145.86 156 146.308 155.552 146.308 155V147.308C146.308 146.755 146.755 146.308 147.308 146.308H155C155.552 146.308 156 145.86 156 145.308V138.692C156 138.14 155.552 137.692 155 137.692H147.308C146.755 137.692 146.308 137.245 146.308 136.692V129C146.308 128.448 145.86 128 145.308 128H138.692Z"/>
</mask>
<path fill-rule="evenodd" clip-rule="evenodd" d="M138.692 128C138.14 128 137.692 128.448 137.692 129V136.692C137.692 137.245 137.245 137.692 136.692 137.692H129C128.448 137.692 128 138.14 128 138.692V145.308C128 145.86 128.448 146.308 129 146.308H136.692C137.245 146.308 137.692 146.755 137.692 147.308V155C137.692 155.552 138.14 156 138.692 156H145.308C145.86 156 146.308 155.552 146.308 155V147.308C146.308 146.755 146.755 146.308 147.308 146.308H155C155.552 146.308 156 145.86 156 145.308V138.692C156 138.14 155.552 137.692 155 137.692H147.308C146.755 137.692 146.308 137.245 146.308 136.692V129C146.308 128.448 145.86 128 145.308 128H138.692Z" fill="#0F0E17"/>
<path d="M138.692 129V129V127C137.588 127 136.692 127.895 136.692 129H138.692ZM138.692 136.692V129H136.692V136.692H138.692ZM129 138.692H136.692V136.692H129V138.692ZM129 138.692H129V136.692C127.895 136.692 127 137.588 127 138.692H129ZM129 145.308V138.692H127V145.308H129ZM129 145.308H129H127C127 146.412 127.895 147.308 129 147.308V145.308ZM136.692 145.308H129V147.308H136.692V145.308ZM138.692 155V147.308H136.692V155H138.692ZM138.692 155H136.692C136.692 156.105 137.588 157 138.692 157V155ZM145.308 155H138.692V157H145.308V155ZM145.308 155H145.308V157C146.412 157 147.308 156.105 147.308 155H145.308ZM145.308 147.308V155H147.308V147.308H145.308ZM155 145.308H147.308V147.308H155V145.308ZM155 145.308V147.308C156.105 147.308 157 146.412 157 145.308H155ZM155 138.692V145.308H157V138.692H155ZM155 138.692H157C157 137.588 156.105 136.692 155 136.692V138.692ZM147.308 138.692H155V136.692H147.308V138.692ZM145.308 129V136.692H147.308V129H145.308ZM145.308 129H145.308H147.308C147.308 127.895 146.412 127 145.308 127V129ZM138.692 129H145.308V127H138.692V129ZM147.308 136.692V136.692H145.308C145.308 137.797 146.203 138.692 147.308 138.692V136.692ZM147.308 147.308V145.308C146.203 145.308 145.308 146.203 145.308 147.308H147.308ZM136.692 147.308V147.308H138.692C138.692 146.203 137.797 145.308 136.692 145.308V147.308ZM136.692 136.692H136.692V138.692C137.797 138.692 138.692 137.797 138.692 136.692H136.692Z" fill="#FFFFFE" mask="url(#path-41-inside-7_669_9235)"/>
</mask>
<g mask="url(#mask0_669_9235)">
<path d="M137 127.68H147V133.68C147 136.441 144.761 138.68 142 138.68C139.239 138.68 137 136.441 137 133.68V127.68Z" fill="#172126"/>
<path d="M142 153L144 150L140 150L142 153Z" fill="#172126"/>
<path d="M142 131L140 134L144 134L142 131Z" fill="#F1F5F8"/>
<path d="M153 142L150 140V144L153 142Z" fill="#172126"/>
<path d="M131 142L134 144L134 140L131 142Z" fill="#172126"/>
</g>
<mask id="path-48-inside-8_669_9235" fill="white">
<path fill-rule="evenodd" clip-rule="evenodd" d="M12.6923 197.68C12.14 197.68 11.6923 197.232 11.6923 196.68V188.988C11.6923 188.435 11.2446 187.988 10.6923 187.988H3C2.44771 187.988 2 187.54 2 186.988V180.372C2 179.82 2.44771 179.372 3 179.372H10.6923C11.2446 179.372 11.6923 178.925 11.6923 178.372V170.68C11.6923 170.128 12.14 169.68 12.6923 169.68H19.3077C19.86 169.68 20.3077 170.128 20.3077 170.68V178.372C20.3077 178.925 20.7554 179.372 21.3077 179.372H29C29.5523 179.372 30 179.82 30 180.372V186.988C30 187.54 29.5523 187.988 29 187.988H21.3077C20.7554 187.988 20.3077 188.435 20.3077 188.988V196.68C20.3077 197.232 19.86 197.68 19.3077 197.68H12.6923Z"/>
</mask>
<path fill-rule="evenodd" clip-rule="evenodd" d="M12.6923 197.68C12.14 197.68 11.6923 197.232 11.6923 196.68V188.988C11.6923 188.435 11.2446 187.988 10.6923 187.988H3C2.44771 187.988 2 187.54 2 186.988V180.372C2 179.82 2.44771 179.372 3 179.372H10.6923C11.2446 179.372 11.6923 178.925 11.6923 178.372V170.68C11.6923 170.128 12.14 169.68 12.6923 169.68H19.3077C19.86 169.68 20.3077 170.128 20.3077 170.68V178.372C20.3077 178.925 20.7554 179.372 21.3077 179.372H29C29.5523 179.372 30 179.82 30 180.372V186.988C30 187.54 29.5523 187.988 29 187.988H21.3077C20.7554 187.988 20.3077 188.435 20.3077 188.988V196.68C20.3077 197.232 19.86 197.68 19.3077 197.68H12.6923Z" fill="#F1F5F8"/>
<path d="M12.6923 196.68V196.68V198.68C11.5877 198.68 10.6923 197.785 10.6923 196.68H12.6923ZM12.6923 188.988V196.68H10.6923V188.988H12.6923ZM3 186.988H10.6923V188.988H3V186.988ZM3 186.988H3V188.988C1.89543 188.988 1 188.092 1 186.988H3ZM3 180.372V186.988H1V180.372H3ZM3 180.372H3H1C1 179.268 1.89543 178.372 3 178.372V180.372ZM10.6923 180.372H3V178.372H10.6923V180.372ZM12.6923 170.68V178.372H10.6923V170.68H12.6923ZM12.6923 170.68H10.6923C10.6923 169.575 11.5877 168.68 12.6923 168.68V170.68ZM19.3077 170.68H12.6923V168.68H19.3077V170.68ZM19.3077 170.68H19.3077V168.68C20.4123 168.68 21.3077 169.575 21.3077 170.68H19.3077ZM19.3077 178.372V170.68H21.3077V178.372H19.3077ZM29 180.372H21.3077V178.372H29V180.372ZM29 180.372V178.372C30.1046 178.372 31 179.268 31 180.372H29ZM29 186.988V180.372H31V186.988H29ZM29 186.988H31C31 188.092 30.1046 188.988 29 188.988V186.988ZM21.3077 186.988H29V188.988H21.3077V186.988ZM19.3077 196.68V188.988H21.3077V196.68H19.3077ZM19.3077 196.68H19.3077H21.3077C21.3077 197.785 20.4123 198.68 19.3077 198.68V196.68ZM12.6923 196.68H19.3077V198.68H12.6923V196.68ZM21.3077 188.988V188.988H19.3077C19.3077 187.883 20.2031 186.988 21.3077 186.988V188.988ZM21.3077 178.372V180.372C20.2031 180.372 19.3077 179.477 19.3077 178.372H21.3077ZM10.6923 178.372V178.372H12.6923C12.6923 179.477 11.7969 180.372 10.6923 180.372V178.372ZM10.6923 188.988H10.6923V186.988C11.7969 186.988 12.6923 187.883 12.6923 188.988H10.6923Z" fill="#E9EEF2" mask="url(#path-48-inside-8_669_9235)"/>
<mask id="mask1_669_9235" style="mask-type:alpha" maskUnits="userSpaceOnUse" x="2" y="169" width="28" height="29">
<mask id="path-50-inside-9_669_9235" fill="white">
<path fill-rule="evenodd" clip-rule="evenodd" d="M12.6923 197.68C12.14 197.68 11.6923 197.232 11.6923 196.68V188.988C11.6923 188.435 11.2446 187.988 10.6923 187.988H3C2.44771 187.988 2 187.54 2 186.988V180.372C2 179.82 2.44771 179.372 3 179.372H10.6923C11.2446 179.372 11.6923 178.925 11.6923 178.372V170.68C11.6923 170.128 12.14 169.68 12.6923 169.68H19.3077C19.86 169.68 20.3077 170.128 20.3077 170.68V178.372C20.3077 178.925 20.7554 179.372 21.3077 179.372H29C29.5523 179.372 30 179.82 30 180.372V186.988C30 187.54 29.5523 187.988 29 187.988H21.3077C20.7554 187.988 20.3077 188.435 20.3077 188.988V196.68C20.3077 197.232 19.86 197.68 19.3077 197.68H12.6923Z"/>
</mask>
<path fill-rule="evenodd" clip-rule="evenodd" d="M12.6923 197.68C12.14 197.68 11.6923 197.232 11.6923 196.68V188.988C11.6923 188.435 11.2446 187.988 10.6923 187.988H3C2.44771 187.988 2 187.54 2 186.988V180.372C2 179.82 2.44771 179.372 3 179.372H10.6923C11.2446 179.372 11.6923 178.925 11.6923 178.372V170.68C11.6923 170.128 12.14 169.68 12.6923 169.68H19.3077C19.86 169.68 20.3077 170.128 20.3077 170.68V178.372C20.3077 178.925 20.7554 179.372 21.3077 179.372H29C29.5523 179.372 30 179.82 30 180.372V186.988C30 187.54 29.5523 187.988 29 187.988H21.3077C20.7554 187.988 20.3077 188.435 20.3077 188.988V196.68C20.3077 197.232 19.86 197.68 19.3077 197.68H12.6923Z" fill="#0F0E17"/>
<path d="M12.6923 196.68V196.68V198.68C11.5877 198.68 10.6923 197.785 10.6923 196.68H12.6923ZM12.6923 188.988V196.68H10.6923V188.988H12.6923ZM3 186.988H10.6923V188.988H3V186.988ZM3 186.988H3V188.988C1.89543 188.988 1 188.092 1 186.988H3ZM3 180.372V186.988H1V180.372H3ZM3 180.372H3H1C1 179.268 1.89543 178.372 3 178.372V180.372ZM10.6923 180.372H3V178.372H10.6923V180.372ZM12.6923 170.68V178.372H10.6923V170.68H12.6923ZM12.6923 170.68H10.6923C10.6923 169.575 11.5877 168.68 12.6923 168.68V170.68ZM19.3077 170.68H12.6923V168.68H19.3077V170.68ZM19.3077 170.68H19.3077V168.68C20.4123 168.68 21.3077 169.575 21.3077 170.68H19.3077ZM19.3077 178.372V170.68H21.3077V178.372H19.3077ZM29 180.372H21.3077V178.372H29V180.372ZM29 180.372V178.372C30.1046 178.372 31 179.268 31 180.372H29ZM29 186.988V180.372H31V186.988H29ZM29 186.988H31C31 188.092 30.1046 188.988 29 188.988V186.988ZM21.3077 186.988H29V188.988H21.3077V186.988ZM19.3077 196.68V188.988H21.3077V196.68H19.3077ZM19.3077 196.68H19.3077H21.3077C21.3077 197.785 20.4123 198.68 19.3077 198.68V196.68ZM12.6923 196.68H19.3077V198.68H12.6923V196.68ZM21.3077 188.988V188.988H19.3077C19.3077 187.883 20.2031 186.988 21.3077 186.988V188.988ZM21.3077 178.372V180.372C20.2031 180.372 19.3077 179.477 19.3077 178.372H21.3077ZM10.6923 178.372V178.372H12.6923C12.6923 179.477 11.7969 180.372 10.6923 180.372V178.372ZM10.6923 188.988H10.6923V186.988C11.7969 186.988 12.6923 187.883 12.6923 188.988H10.6923Z" fill="#FFFFFE" mask="url(#path-50-inside-9_669_9235)"/>
</mask>
<g mask="url(#mask1_669_9235)">
<path d="M11 198H21V192C21 189.239 18.7614 187 16 187C13.2386 187 11 189.239 11 192V198Z" fill="#172126"/>
<path d="M16 172.68L18 175.68L14 175.68L16 172.68Z" fill="#172126"/>
<path d="M16 194.68L14 191.68L18 191.68L16 194.68Z" fill="#F1F5F8"/>
<path d="M27 183.68L24 185.68L24 181.68L27 183.68Z" fill="#172126"/>
<path d="M5 183.68L8 181.68L8 185.68L5 183.68Z" fill="#172126"/>
</g>
<mask id="path-57-inside-10_669_9235" fill="white">
<path fill-rule="evenodd" clip-rule="evenodd" d="M44.16 187.148C44.16 187.7 44.6077 188.148 45.16 188.148L52.8523 188.148C53.4046 188.148 53.8523 188.595 53.8523 189.148L53.8523 196.84C53.8523 197.392 54.3001 197.84 54.8523 197.84L61.4677 197.84C62.02 197.84 62.4677 197.392 62.4677 196.84L62.4677 189.148C62.4677 188.595 62.9154 188.148 63.4677 188.148L71.16 188.148C71.7123 188.148 72.16 187.7 72.16 187.148L72.16 180.532C72.16 179.98 71.7123 179.532 71.16 179.532L63.4677 179.532C62.9154 179.532 62.4677 179.085 62.4677 178.532L62.4677 170.84C62.4677 170.288 62.02 169.84 61.4677 169.84L54.8523 169.84C54.3001 169.84 53.8523 170.288 53.8523 170.84L53.8523 178.532C53.8523 179.085 53.4046 179.532 52.8523 179.532L45.16 179.532C44.6077 179.532 44.16 179.98 44.16 180.532L44.16 187.148Z"/>
</mask>
<path fill-rule="evenodd" clip-rule="evenodd" d="M44.16 187.148C44.16 187.7 44.6077 188.148 45.16 188.148L52.8523 188.148C53.4046 188.148 53.8523 188.595 53.8523 189.148L53.8523 196.84C53.8523 197.392 54.3001 197.84 54.8523 197.84L61.4677 197.84C62.02 197.84 62.4677 197.392 62.4677 196.84L62.4677 189.148C62.4677 188.595 62.9154 188.148 63.4677 188.148L71.16 188.148C71.7123 188.148 72.16 187.7 72.16 187.148L72.16 180.532C72.16 179.98 71.7123 179.532 71.16 179.532L63.4677 179.532C62.9154 179.532 62.4677 179.085 62.4677 178.532L62.4677 170.84C62.4677 170.288 62.02 169.84 61.4677 169.84L54.8523 169.84C54.3001 169.84 53.8523 170.288 53.8523 170.84L53.8523 178.532C53.8523 179.085 53.4046 179.532 52.8523 179.532L45.16 179.532C44.6077 179.532 44.16 179.98 44.16 180.532L44.16 187.148Z" fill="#F1F5F8"/>
<path d="M44.16 187.148L43.16 187.148L44.16 187.148ZM44.16 180.532L45.16 180.532L44.16 180.532ZM45.16 187.148L45.16 187.148L43.16 187.148C43.16 188.252 44.0555 189.148 45.16 189.148L45.16 187.148ZM52.8523 187.148L45.16 187.148L45.16 189.148L52.8523 189.148L52.8523 187.148ZM54.8523 196.84L54.8523 189.148L52.8523 189.148L52.8523 196.84L54.8523 196.84ZM54.8523 196.84L54.8523 196.84L52.8523 196.84C52.8523 197.945 53.7478 198.84 54.8523 198.84L54.8523 196.84ZM61.4677 196.84L54.8523 196.84L54.8523 198.84L61.4677 198.84L61.4677 196.84ZM61.4677 196.84L61.4677 196.84L61.4677 198.84C62.5723 198.84 63.4677 197.945 63.4677 196.84L61.4677 196.84ZM61.4677 189.148L61.4677 196.84L63.4677 196.84L63.4677 189.148L61.4677 189.148ZM71.16 187.148L63.4677 187.148L63.4677 189.148L71.16 189.148L71.16 187.148ZM71.16 187.148L71.16 189.148C72.2646 189.148 73.16 188.252 73.16 187.148L71.16 187.148ZM71.16 180.532L71.16 187.148L73.16 187.148L73.16 180.532L71.16 180.532ZM71.16 180.532L71.16 180.532L73.16 180.532C73.16 179.428 72.2646 178.532 71.16 178.532L71.16 180.532ZM63.4677 180.532L71.16 180.532L71.16 178.532L63.4677 178.532L63.4677 180.532ZM61.4677 170.84L61.4677 178.532L63.4677 178.532L63.4677 170.84L61.4677 170.84ZM61.4677 170.84L63.4677 170.84C63.4677 169.735 62.5723 168.84 61.4677 168.84L61.4677 170.84ZM54.8523 170.84L61.4677 170.84L61.4677 168.84L54.8523 168.84L54.8523 170.84ZM54.8523 170.84L54.8523 168.84C53.7478 168.84 52.8523 169.735 52.8523 170.84L54.8523 170.84ZM54.8523 178.532L54.8523 170.84L52.8523 170.84L52.8523 178.532L54.8523 178.532ZM45.16 180.532L52.8523 180.532L52.8523 178.532L45.16 178.532L45.16 180.532ZM45.16 180.532L45.16 180.532L45.16 178.532C44.0555 178.532 43.16 179.428 43.16 180.532L45.16 180.532ZM45.16 187.148L45.16 180.532L43.16 180.532L43.16 187.148L45.16 187.148ZM52.8523 178.532L52.8523 178.532L52.8523 180.532C53.9569 180.532 54.8523 179.637 54.8523 178.532L52.8523 178.532ZM63.4677 178.532L61.4677 178.532C61.4677 179.637 62.3632 180.532 63.4677 180.532L63.4677 178.532ZM63.4677 189.148L63.4677 189.148L63.4677 187.148C62.3632 187.148 61.4677 188.043 61.4677 189.148L63.4677 189.148ZM52.8523 189.148L52.8523 189.148L54.8523 189.148C54.8523 188.043 53.9569 187.148 52.8523 187.148L52.8523 189.148Z" fill="#E9EEF2" mask="url(#path-57-inside-10_669_9235)"/>
<mask id="mask2_669_9235" style="mask-type:alpha" maskUnits="userSpaceOnUse" x="44" y="169" width="29" height="29">
<mask id="path-59-inside-11_669_9235" fill="white">
<path fill-rule="evenodd" clip-rule="evenodd" d="M44.16 187.148C44.16 187.7 44.6077 188.148 45.16 188.148L52.8523 188.148C53.4046 188.148 53.8523 188.595 53.8523 189.148L53.8523 196.84C53.8523 197.392 54.3001 197.84 54.8523 197.84L61.4677 197.84C62.02 197.84 62.4677 197.392 62.4677 196.84L62.4677 189.148C62.4677 188.595 62.9154 188.148 63.4677 188.148L71.16 188.148C71.7123 188.148 72.16 187.7 72.16 187.148L72.16 180.532C72.16 179.98 71.7123 179.532 71.16 179.532L63.4677 179.532C62.9154 179.532 62.4677 179.085 62.4677 178.532L62.4677 170.84C62.4677 170.288 62.02 169.84 61.4677 169.84L54.8523 169.84C54.3001 169.84 53.8523 170.288 53.8523 170.84L53.8523 178.532C53.8523 179.085 53.4046 179.532 52.8523 179.532L45.16 179.532C44.6077 179.532 44.16 179.98 44.16 180.532L44.16 187.148Z"/>
</mask>
<path fill-rule="evenodd" clip-rule="evenodd" d="M44.16 187.148C44.16 187.7 44.6077 188.148 45.16 188.148L52.8523 188.148C53.4046 188.148 53.8523 188.595 53.8523 189.148L53.8523 196.84C53.8523 197.392 54.3001 197.84 54.8523 197.84L61.4677 197.84C62.02 197.84 62.4677 197.392 62.4677 196.84L62.4677 189.148C62.4677 188.595 62.9154 188.148 63.4677 188.148L71.16 188.148C71.7123 188.148 72.16 187.7 72.16 187.148L72.16 180.532C72.16 179.98 71.7123 179.532 71.16 179.532L63.4677 179.532C62.9154 179.532 62.4677 179.085 62.4677 178.532L62.4677 170.84C62.4677 170.288 62.02 169.84 61.4677 169.84L54.8523 169.84C54.3001 169.84 53.8523 170.288 53.8523 170.84L53.8523 178.532C53.8523 179.085 53.4046 179.532 52.8523 179.532L45.16 179.532C44.6077 179.532 44.16 179.98 44.16 180.532L44.16 187.148Z" fill="#0F0E17"/>
<path d="M44.16 187.148L43.16 187.148L44.16 187.148ZM44.16 180.532L45.16 180.532L44.16 180.532ZM45.16 187.148L45.16 187.148L43.16 187.148C43.16 188.252 44.0555 189.148 45.16 189.148L45.16 187.148ZM52.8523 187.148L45.16 187.148L45.16 189.148L52.8523 189.148L52.8523 187.148ZM54.8523 196.84L54.8523 189.148L52.8523 189.148L52.8523 196.84L54.8523 196.84ZM54.8523 196.84L54.8523 196.84L52.8523 196.84C52.8523 197.945 53.7478 198.84 54.8523 198.84L54.8523 196.84ZM61.4677 196.84L54.8523 196.84L54.8523 198.84L61.4677 198.84L61.4677 196.84ZM61.4677 196.84L61.4677 196.84L61.4677 198.84C62.5723 198.84 63.4677 197.945 63.4677 196.84L61.4677 196.84ZM61.4677 189.148L61.4677 196.84L63.4677 196.84L63.4677 189.148L61.4677 189.148ZM71.16 187.148L63.4677 187.148L63.4677 189.148L71.16 189.148L71.16 187.148ZM71.16 187.148L71.16 189.148C72.2646 189.148 73.16 188.252 73.16 187.148L71.16 187.148ZM71.16 180.532L71.16 187.148L73.16 187.148L73.16 180.532L71.16 180.532ZM71.16 180.532L71.16 180.532L73.16 180.532C73.16 179.428 72.2646 178.532 71.16 178.532L71.16 180.532ZM63.4677 180.532L71.16 180.532L71.16 178.532L63.4677 178.532L63.4677 180.532ZM61.4677 170.84L61.4677 178.532L63.4677 178.532L63.4677 170.84L61.4677 170.84ZM61.4677 170.84L63.4677 170.84C63.4677 169.735 62.5723 168.84 61.4677 168.84L61.4677 170.84ZM54.8523 170.84L61.4677 170.84L61.4677 168.84L54.8523 168.84L54.8523 170.84ZM54.8523 170.84L54.8523 168.84C53.7478 168.84 52.8523 169.735 52.8523 170.84L54.8523 170.84ZM54.8523 178.532L54.8523 170.84L52.8523 170.84L52.8523 178.532L54.8523 178.532ZM45.16 180.532L52.8523 180.532L52.8523 178.532L45.16 178.532L45.16 180.532ZM45.16 180.532L45.16 180.532L45.16 178.532C44.0555 178.532 43.16 179.428 43.16 180.532L45.16 180.532ZM45.16 187.148L45.16 180.532L43.16 180.532L43.16 187.148L45.16 187.148ZM52.8523 178.532L52.8523 178.532L52.8523 180.532C53.9569 180.532 54.8523 179.637 54.8523 178.532L52.8523 178.532ZM63.4677 178.532L61.4677 178.532C61.4677 179.637 62.3632 180.532 63.4677 180.532L63.4677 178.532ZM63.4677 189.148L63.4677 189.148L63.4677 187.148C62.3632 187.148 61.4677 188.043 61.4677 189.148L63.4677 189.148ZM52.8523 189.148L52.8523 189.148L54.8523 189.148C54.8523 188.043 53.9569 187.148 52.8523 187.148L52.8523 189.148Z" fill="#232323" mask="url(#path-59-inside-11_669_9235)"/>
</mask>
<g mask="url(#mask2_669_9235)">
<path d="M43.84 188.84L43.84 178.84L49.84 178.84C52.6014 178.84 54.84 181.079 54.84 183.84C54.84 186.601 52.6014 188.84 49.84 188.84L43.84 188.84Z" fill="#172126"/>
<path d="M69.16 183.84L66.16 181.84V185.84L69.16 183.84Z" fill="#172126"/>
<path d="M47.16 183.84L50.16 185.84L50.16 181.84L47.16 183.84Z" fill="#F1F5F8"/>
<path d="M58.16 172.84L56.16 175.84L60.16 175.84L58.16 172.84Z" fill="#172126"/>
<path d="M58.16 194.84L60.16 191.84L56.16 191.84L58.16 194.84Z" fill="#172126"/>
</g>
<mask id="path-66-inside-12_669_9235" fill="white">
<path fill-rule="evenodd" clip-rule="evenodd" d="M113.84 187.148C113.84 187.7 113.392 188.148 112.84 188.148L105.148 188.148C104.595 188.148 104.148 188.595 104.148 189.148L104.148 196.84C104.148 197.392 103.7 197.84 103.148 197.84L96.5323 197.84C95.98 197.84 95.5323 197.392 95.5323 196.84L95.5323 189.148C95.5323 188.595 95.0846 188.148 94.5323 188.148L86.84 188.148C86.2877 188.148 85.84 187.7 85.84 187.148L85.84 180.532C85.84 179.98 86.2877 179.532 86.84 179.532L94.5323 179.532C95.0846 179.532 95.5323 179.085 95.5323 178.532L95.5323 170.84C95.5323 170.288 95.98 169.84 96.5323 169.84L103.148 169.84C103.7 169.84 104.148 170.288 104.148 170.84L104.148 178.532C104.148 179.085 104.595 179.532 105.148 179.532L112.84 179.532C113.392 179.532 113.84 179.98 113.84 180.532L113.84 187.148Z"/>
</mask>
<path fill-rule="evenodd" clip-rule="evenodd" d="M113.84 187.148C113.84 187.7 113.392 188.148 112.84 188.148L105.148 188.148C104.595 188.148 104.148 188.595 104.148 189.148L104.148 196.84C104.148 197.392 103.7 197.84 103.148 197.84L96.5323 197.84C95.98 197.84 95.5323 197.392 95.5323 196.84L95.5323 189.148C95.5323 188.595 95.0846 188.148 94.5323 188.148L86.84 188.148C86.2877 188.148 85.84 187.7 85.84 187.148L85.84 180.532C85.84 179.98 86.2877 179.532 86.84 179.532L94.5323 179.532C95.0846 179.532 95.5323 179.085 95.5323 178.532L95.5323 170.84C95.5323 170.288 95.98 169.84 96.5323 169.84L103.148 169.84C103.7 169.84 104.148 170.288 104.148 170.84L104.148 178.532C104.148 179.085 104.595 179.532 105.148 179.532L112.84 179.532C113.392 179.532 113.84 179.98 113.84 180.532L113.84 187.148Z" fill="#F1F5F8"/>
<path d="M113.84 187.148L114.84 187.148L113.84 187.148ZM104.148 196.84L105.148 196.84L104.148 196.84ZM103.148 197.84L103.148 198.84L103.148 197.84ZM96.5323 197.84L96.5323 196.84L96.5323 197.84ZM86.84 188.148L86.84 189.148L86.84 188.148ZM113.84 180.532L112.84 180.532L113.84 180.532ZM104.148 189.148L103.148 189.148L104.148 189.148ZM112.84 187.148L112.84 187.148L114.84 187.148C114.84 188.252 113.945 189.148 112.84 189.148L112.84 187.148ZM105.148 187.148L112.84 187.148L112.84 189.148L105.148 189.148L105.148 187.148ZM103.148 196.84L103.148 189.148L105.148 189.148L105.148 196.84L103.148 196.84ZM103.148 196.84L103.148 196.84L105.148 196.84C105.148 197.945 104.252 198.84 103.148 198.84L103.148 196.84ZM96.5323 196.84L103.148 196.84L103.148 198.84L96.5323 198.84L96.5323 196.84ZM96.5323 196.84L96.5323 196.84L96.5323 198.84C95.4277 198.84 94.5323 197.945 94.5323 196.84L96.5323 196.84ZM96.5323 189.148L96.5323 196.84L94.5323 196.84L94.5323 189.148L96.5323 189.148ZM86.84 187.148L94.5323 187.148L94.5323 189.148L86.84 189.148L86.84 187.148ZM86.84 187.148L86.84 189.148C85.7354 189.148 84.84 188.252 84.84 187.148L86.84 187.148ZM86.84 180.532L86.84 187.148L84.84 187.148L84.84 180.532L86.84 180.532ZM86.84 180.532L86.84 180.532L84.84 180.532C84.84 179.428 85.7354 178.532 86.84 178.532L86.84 180.532ZM94.5323 180.532L86.84 180.532L86.84 178.532L94.5323 178.532L94.5323 180.532ZM96.5323 170.84L96.5323 178.532L94.5323 178.532L94.5323 170.84L96.5323 170.84ZM96.5323 170.84L94.5323 170.84C94.5323 169.735 95.4277 168.84 96.5323 168.84L96.5323 170.84ZM103.148 170.84L96.5323 170.84L96.5323 168.84L103.148 168.84L103.148 170.84ZM103.148 170.84L103.148 168.84C104.252 168.84 105.148 169.735 105.148 170.84L103.148 170.84ZM103.148 178.532L103.148 170.84L105.148 170.84L105.148 178.532L103.148 178.532ZM112.84 180.532L105.148 180.532L105.148 178.532L112.84 178.532L112.84 180.532ZM112.84 180.532L112.84 180.532L112.84 178.532C113.945 178.532 114.84 179.428 114.84 180.532L112.84 180.532ZM112.84 187.148L112.84 180.532L114.84 180.532L114.84 187.148L112.84 187.148ZM105.148 178.532L105.148 178.532L105.148 180.532C104.043 180.532 103.148 179.637 103.148 178.532L105.148 178.532ZM94.5323 178.532L96.5323 178.532C96.5323 179.637 95.6368 180.532 94.5323 180.532L94.5323 178.532ZM94.5323 189.148L94.5323 189.148L94.5323 187.148C95.6368 187.148 96.5323 188.043 96.5323 189.148L94.5323 189.148ZM105.148 189.148L105.148 189.148L103.148 189.148C103.148 188.043 104.043 187.148 105.148 187.148L105.148 189.148Z" fill="#E9EEF2" mask="url(#path-66-inside-12_669_9235)"/>
<mask id="mask3_669_9235" style="mask-type:alpha" maskUnits="userSpaceOnUse" x="85" y="169" width="29" height="29">
<mask id="path-68-inside-13_669_9235" fill="white">
<path fill-rule="evenodd" clip-rule="evenodd" d="M113.84 187.148C113.84 187.7 113.392 188.148 112.84 188.148L105.148 188.148C104.595 188.148 104.148 188.595 104.148 189.148L104.148 196.84C104.148 197.392 103.7 197.84 103.148 197.84L96.5323 197.84C95.98 197.84 95.5323 197.392 95.5323 196.84L95.5323 189.148C95.5323 188.595 95.0846 188.148 94.5323 188.148L86.84 188.148C86.2877 188.148 85.84 187.7 85.84 187.148L85.84 180.532C85.84 179.98 86.2877 179.532 86.84 179.532L94.5323 179.532C95.0846 179.532 95.5323 179.085 95.5323 178.532L95.5323 170.84C95.5323 170.288 95.98 169.84 96.5323 169.84L103.148 169.84C103.7 169.84 104.148 170.288 104.148 170.84L104.148 178.532C104.148 179.085 104.595 179.532 105.148 179.532L112.84 179.532C113.392 179.532 113.84 179.98 113.84 180.532L113.84 187.148Z"/>
</mask>
<path fill-rule="evenodd" clip-rule="evenodd" d="M113.84 187.148C113.84 187.7 113.392 188.148 112.84 188.148L105.148 188.148C104.595 188.148 104.148 188.595 104.148 189.148L104.148 196.84C104.148 197.392 103.7 197.84 103.148 197.84L96.5323 197.84C95.98 197.84 95.5323 197.392 95.5323 196.84L95.5323 189.148C95.5323 188.595 95.0846 188.148 94.5323 188.148L86.84 188.148C86.2877 188.148 85.84 187.7 85.84 187.148L85.84 180.532C85.84 179.98 86.2877 179.532 86.84 179.532L94.5323 179.532C95.0846 179.532 95.5323 179.085 95.5323 178.532L95.5323 170.84C95.5323 170.288 95.98 169.84 96.5323 169.84L103.148 169.84C103.7 169.84 104.148 170.288 104.148 170.84L104.148 178.532C104.148 179.085 104.595 179.532 105.148 179.532L112.84 179.532C113.392 179.532 113.84 179.98 113.84 180.532L113.84 187.148Z" fill="#0F0E17"/>
<path d="M113.84 187.148L114.84 187.148L113.84 187.148ZM104.148 196.84L105.148 196.84L104.148 196.84ZM103.148 197.84L103.148 198.84L103.148 197.84ZM96.5323 197.84L96.5323 196.84L96.5323 197.84ZM86.84 188.148L86.84 189.148L86.84 188.148ZM113.84 180.532L112.84 180.532L113.84 180.532ZM104.148 189.148L103.148 189.148L104.148 189.148ZM112.84 187.148L112.84 187.148L114.84 187.148C114.84 188.252 113.945 189.148 112.84 189.148L112.84 187.148ZM105.148 187.148L112.84 187.148L112.84 189.148L105.148 189.148L105.148 187.148ZM103.148 196.84L103.148 189.148L105.148 189.148L105.148 196.84L103.148 196.84ZM103.148 196.84L103.148 196.84L105.148 196.84C105.148 197.945 104.252 198.84 103.148 198.84L103.148 196.84ZM96.5323 196.84L103.148 196.84L103.148 198.84L96.5323 198.84L96.5323 196.84ZM96.5323 196.84L96.5323 196.84L96.5323 198.84C95.4277 198.84 94.5323 197.945 94.5323 196.84L96.5323 196.84ZM96.5323 189.148L96.5323 196.84L94.5323 196.84L94.5323 189.148L96.5323 189.148ZM86.84 187.148L94.5323 187.148L94.5323 189.148L86.84 189.148L86.84 187.148ZM86.84 187.148L86.84 189.148C85.7354 189.148 84.84 188.252 84.84 187.148L86.84 187.148ZM86.84 180.532L86.84 187.148L84.84 187.148L84.84 180.532L86.84 180.532ZM86.84 180.532L86.84 180.532L84.84 180.532C84.84 179.428 85.7354 178.532 86.84 178.532L86.84 180.532ZM94.5323 180.532L86.84 180.532L86.84 178.532L94.5323 178.532L94.5323 180.532ZM96.5323 170.84L96.5323 178.532L94.5323 178.532L94.5323 170.84L96.5323 170.84ZM96.5323 170.84L94.5323 170.84C94.5323 169.735 95.4277 168.84 96.5323 168.84L96.5323 170.84ZM103.148 170.84L96.5323 170.84L96.5323 168.84L103.148 168.84L103.148 170.84ZM103.148 170.84L103.148 168.84C104.252 168.84 105.148 169.735 105.148 170.84L103.148 170.84ZM103.148 178.532L103.148 170.84L105.148 170.84L105.148 178.532L103.148 178.532ZM112.84 180.532L105.148 180.532L105.148 178.532L112.84 178.532L112.84 180.532ZM112.84 180.532L112.84 180.532L112.84 178.532C113.945 178.532 114.84 179.428 114.84 180.532L112.84 180.532ZM112.84 187.148L112.84 180.532L114.84 180.532L114.84 187.148L112.84 187.148ZM105.148 178.532L105.148 178.532L105.148 180.532C104.043 180.532 103.148 179.637 103.148 178.532L105.148 178.532ZM94.5323 178.532L96.5323 178.532C96.5323 179.637 95.6368 180.532 94.5323 180.532L94.5323 178.532ZM94.5323 189.148L94.5323 189.148L94.5323 187.148C95.6368 187.148 96.5323 188.043 96.5323 189.148L94.5323 189.148ZM105.148 189.148L105.148 189.148L103.148 189.148C103.148 188.043 104.043 187.148 105.148 187.148L105.148 189.148Z" fill="#FFFFFE" mask="url(#path-68-inside-13_669_9235)"/>
</mask>
<g mask="url(#mask3_669_9235)">
<path d="M114.16 188.84L114.16 178.84L108.16 178.84C105.399 178.84 103.16 181.079 103.16 183.84C103.16 186.601 105.399 188.84 108.16 188.84L114.16 188.84Z" fill="#172126"/>
<path d="M88.84 183.84L91.84 181.84L91.84 185.84L88.84 183.84Z" fill="#172126"/>
<path d="M110.84 183.84L107.84 185.84V181.84L110.84 183.84Z" fill="#F1F5F8"/>
<path d="M99.84 172.84L101.84 175.84L97.84 175.84L99.84 172.84Z" fill="#172126"/>
<path d="M99.84 194.84L97.84 191.84L101.84 191.84L99.84 194.84Z" fill="#172126"/>
</g>
<mask id="path-75-inside-14_669_9235" fill="white">
<path fill-rule="evenodd" clip-rule="evenodd" d="M155.84 187.148C155.84 187.7 155.392 188.148 154.84 188.148L147.148 188.148C146.595 188.148 146.148 188.595 146.148 189.148L146.148 196.84C146.148 197.392 145.7 197.84 145.148 197.84L138.532 197.84C137.98 197.84 137.532 197.392 137.532 196.84L137.532 189.148C137.532 188.595 137.085 188.148 136.532 188.148L128.84 188.148C128.288 188.148 127.84 187.7 127.84 187.148L127.84 180.532C127.84 179.98 128.288 179.532 128.84 179.532L136.532 179.532C137.085 179.532 137.532 179.085 137.532 178.532L137.532 170.84C137.532 170.288 137.98 169.84 138.532 169.84L145.148 169.84C145.7 169.84 146.148 170.288 146.148 170.84L146.148 178.532C146.148 179.085 146.595 179.532 147.148 179.532L154.84 179.532C155.392 179.532 155.84 179.98 155.84 180.532L155.84 187.148Z"/>
</mask>
<path fill-rule="evenodd" clip-rule="evenodd" d="M155.84 187.148C155.84 187.7 155.392 188.148 154.84 188.148L147.148 188.148C146.595 188.148 146.148 188.595 146.148 189.148L146.148 196.84C146.148 197.392 145.7 197.84 145.148 197.84L138.532 197.84C137.98 197.84 137.532 197.392 137.532 196.84L137.532 189.148C137.532 188.595 137.085 188.148 136.532 188.148L128.84 188.148C128.288 188.148 127.84 187.7 127.84 187.148L127.84 180.532C127.84 179.98 128.288 179.532 128.84 179.532L136.532 179.532C137.085 179.532 137.532 179.085 137.532 178.532L137.532 170.84C137.532 170.288 137.98 169.84 138.532 169.84L145.148 169.84C145.7 169.84 146.148 170.288 146.148 170.84L146.148 178.532C146.148 179.085 146.595 179.532 147.148 179.532L154.84 179.532C155.392 179.532 155.84 179.98 155.84 180.532L155.84 187.148Z" fill="#F1F5F8"/>
<path d="M155.84 187.148L156.84 187.148L155.84 187.148ZM146.148 196.84L147.148 196.84L146.148 196.84ZM145.148 197.84L145.148 198.84L145.148 197.84ZM138.532 197.84L138.532 196.84L138.532 197.84ZM138.532 169.84L138.532 170.84L138.532 169.84ZM145.148 169.84L145.148 168.84L145.148 169.84ZM155.84 180.532L154.84 180.532L155.84 180.532ZM146.148 189.148L145.148 189.148L146.148 189.148ZM154.84 187.148L154.84 187.148L156.84 187.148C156.84 188.252 155.945 189.148 154.84 189.148L154.84 187.148ZM147.148 187.148L154.84 187.148L154.84 189.148L147.148 189.148L147.148 187.148ZM145.148 196.84L145.148 189.148L147.148 189.148L147.148 196.84L145.148 196.84ZM145.148 196.84L145.148 196.84L147.148 196.84C147.148 197.945 146.252 198.84 145.148 198.84L145.148 196.84ZM138.532 196.84L145.148 196.84L145.148 198.84L138.532 198.84L138.532 196.84ZM138.532 196.84L138.532 196.84L138.532 198.84C137.428 198.84 136.532 197.945 136.532 196.84L138.532 196.84ZM138.532 189.148L138.532 196.84L136.532 196.84L136.532 189.148L138.532 189.148ZM128.84 187.148L136.532 187.148L136.532 189.148L128.84 189.148L128.84 187.148ZM128.84 187.148L128.84 189.148C127.735 189.148 126.84 188.252 126.84 187.148L128.84 187.148ZM128.84 180.532L128.84 187.148L126.84 187.148L126.84 180.532L128.84 180.532ZM128.84 180.532L128.84 180.532L126.84 180.532C126.84 179.428 127.735 178.532 128.84 178.532L128.84 180.532ZM136.532 180.532L128.84 180.532L128.84 178.532L136.532 178.532L136.532 180.532ZM138.532 170.84L138.532 178.532L136.532 178.532L136.532 170.84L138.532 170.84ZM138.532 170.84L136.532 170.84C136.532 169.735 137.428 168.84 138.532 168.84L138.532 170.84ZM145.148 170.84L138.532 170.84L138.532 168.84L145.148 168.84L145.148 170.84ZM145.148 170.84L145.148 168.84C146.252 168.84 147.148 169.735 147.148 170.84L145.148 170.84ZM145.148 178.532L145.148 170.84L147.148 170.84L147.148 178.532L145.148 178.532ZM154.84 180.532L147.148 180.532L147.148 178.532L154.84 178.532L154.84 180.532ZM154.84 180.532L154.84 180.532L154.84 178.532C155.945 178.532 156.84 179.428 156.84 180.532L154.84 180.532ZM154.84 187.148L154.84 180.532L156.84 180.532L156.84 187.148L154.84 187.148ZM147.148 178.532L147.148 178.532L147.148 180.532C146.043 180.532 145.148 179.637 145.148 178.532L147.148 178.532ZM136.532 178.532L138.532 178.532C138.532 179.637 137.637 180.532 136.532 180.532L136.532 178.532ZM136.532 189.148L136.532 189.148L136.532 187.148C137.637 187.148 138.532 188.043 138.532 189.148L136.532 189.148ZM147.148 189.148L147.148 189.148L145.148 189.148C145.148 188.043 146.043 187.148 147.148 187.148L147.148 189.148Z" fill="#E9EEF2" mask="url(#path-75-inside-14_669_9235)"/>
<mask id="mask4_669_9235" style="mask-type:alpha" maskUnits="userSpaceOnUse" x="127" y="169" width="29" height="29">
<mask id="path-77-inside-15_669_9235" fill="white">
<path fill-rule="evenodd" clip-rule="evenodd" d="M155.84 187.148C155.84 187.7 155.392 188.148 154.84 188.148L147.148 188.148C146.595 188.148 146.148 188.595 146.148 189.148L146.148 196.84C146.148 197.392 145.7 197.84 145.148 197.84L138.532 197.84C137.98 197.84 137.532 197.392 137.532 196.84L137.532 189.148C137.532 188.595 137.085 188.148 136.532 188.148L128.84 188.148C128.288 188.148 127.84 187.7 127.84 187.148L127.84 180.532C127.84 179.98 128.288 179.532 128.84 179.532L136.532 179.532C137.085 179.532 137.532 179.085 137.532 178.532L137.532 170.84C137.532 170.288 137.98 169.84 138.532 169.84L145.148 169.84C145.7 169.84 146.148 170.288 146.148 170.84L146.148 178.532C146.148 179.085 146.595 179.532 147.148 179.532L154.84 179.532C155.392 179.532 155.84 179.98 155.84 180.532L155.84 187.148Z"/>
</mask>
<path fill-rule="evenodd" clip-rule="evenodd" d="M155.84 187.148C155.84 187.7 155.392 188.148 154.84 188.148L147.148 188.148C146.595 188.148 146.148 188.595 146.148 189.148L146.148 196.84C146.148 197.392 145.7 197.84 145.148 197.84L138.532 197.84C137.98 197.84 137.532 197.392 137.532 196.84L137.532 189.148C137.532 188.595 137.085 188.148 136.532 188.148L128.84 188.148C128.288 188.148 127.84 187.7 127.84 187.148L127.84 180.532C127.84 179.98 128.288 179.532 128.84 179.532L136.532 179.532C137.085 179.532 137.532 179.085 137.532 178.532L137.532 170.84C137.532 170.288 137.98 169.84 138.532 169.84L145.148 169.84C145.7 169.84 146.148 170.288 146.148 170.84L146.148 178.532C146.148 179.085 146.595 179.532 147.148 179.532L154.84 179.532C155.392 179.532 155.84 179.98 155.84 180.532L155.84 187.148Z" fill="#0F0E17"/>
<path d="M155.84 187.148L156.84 187.148L155.84 187.148ZM146.148 196.84L147.148 196.84L146.148 196.84ZM145.148 197.84L145.148 198.84L145.148 197.84ZM138.532 197.84L138.532 196.84L138.532 197.84ZM138.532 169.84L138.532 170.84L138.532 169.84ZM145.148 169.84L145.148 168.84L145.148 169.84ZM155.84 180.532L154.84 180.532L155.84 180.532ZM146.148 189.148L145.148 189.148L146.148 189.148ZM154.84 187.148L154.84 187.148L156.84 187.148C156.84 188.252 155.945 189.148 154.84 189.148L154.84 187.148ZM147.148 187.148L154.84 187.148L154.84 189.148L147.148 189.148L147.148 187.148ZM145.148 196.84L145.148 189.148L147.148 189.148L147.148 196.84L145.148 196.84ZM145.148 196.84L145.148 196.84L147.148 196.84C147.148 197.945 146.252 198.84 145.148 198.84L145.148 196.84ZM138.532 196.84L145.148 196.84L145.148 198.84L138.532 198.84L138.532 196.84ZM138.532 196.84L138.532 196.84L138.532 198.84C137.428 198.84 136.532 197.945 136.532 196.84L138.532 196.84ZM138.532 189.148L138.532 196.84L136.532 196.84L136.532 189.148L138.532 189.148ZM128.84 187.148L136.532 187.148L136.532 189.148L128.84 189.148L128.84 187.148ZM128.84 187.148L128.84 189.148C127.735 189.148 126.84 188.252 126.84 187.148L128.84 187.148ZM128.84 180.532L128.84 187.148L126.84 187.148L126.84 180.532L128.84 180.532ZM128.84 180.532L128.84 180.532L126.84 180.532C126.84 179.428 127.735 178.532 128.84 178.532L128.84 180.532ZM136.532 180.532L128.84 180.532L128.84 178.532L136.532 178.532L136.532 180.532ZM138.532 170.84L138.532 178.532L136.532 178.532L136.532 170.84L138.532 170.84ZM138.532 170.84L136.532 170.84C136.532 169.735 137.428 168.84 138.532 168.84L138.532 170.84ZM145.148 170.84L138.532 170.84L138.532 168.84L145.148 168.84L145.148 170.84ZM145.148 170.84L145.148 168.84C146.252 168.84 147.148 169.735 147.148 170.84L145.148 170.84ZM145.148 178.532L145.148 170.84L147.148 170.84L147.148 178.532L145.148 178.532ZM154.84 180.532L147.148 180.532L147.148 178.532L154.84 178.532L154.84 180.532ZM154.84 180.532L154.84 180.532L154.84 178.532C155.945 178.532 156.84 179.428 156.84 180.532L154.84 180.532ZM154.84 187.148L154.84 180.532L156.84 180.532L156.84 187.148L154.84 187.148ZM147.148 178.532L147.148 178.532L147.148 180.532C146.043 180.532 145.148 179.637 145.148 178.532L147.148 178.532ZM136.532 178.532L138.532 178.532C138.532 179.637 137.637 180.532 136.532 180.532L136.532 178.532ZM136.532 189.148L136.532 189.148L136.532 187.148C137.637 187.148 138.532 188.043 138.532 189.148L136.532 189.148ZM147.148 189.148L147.148 189.148L145.148 189.148C145.148 188.043 146.043 187.148 147.148 187.148L147.148 189.148Z" fill="#FFFFFE" mask="url(#path-77-inside-15_669_9235)"/>
</mask>
<g mask="url(#mask4_669_9235)">
<path d="M127.84 188.84L127.84 178.84L133.84 178.84C136.601 178.84 138.84 181.079 138.84 183.84C138.84 186.601 136.601 188.84 133.84 188.84L127.84 188.84Z" fill="#172126"/>
<path d="M156.16 188.84L156.16 178.84L150.16 178.84C147.399 178.84 145.16 181.079 145.16 183.84C145.16 186.601 147.399 188.84 150.16 188.84L156.16 188.84Z" fill="#172126"/>
<path d="M152.84 183.84L149.84 185.84V181.84L152.84 183.84Z" fill="#F1F5F8"/>
<path d="M141.84 172.84L143.84 175.84L139.84 175.84L141.84 172.84Z" fill="#172126"/>
<path d="M141.84 194.84L139.84 191.84L143.84 191.84L141.84 194.84Z" fill="#172126"/>
<path d="M130.84 183.84L133.84 181.84L133.84 185.84L130.84 183.84Z" fill="#F1F5F8"/>
</g>
<mask id="path-85-inside-16_669_9235" fill="white">
<path fill-rule="evenodd" clip-rule="evenodd" d="M12.6923 239.68C12.14 239.68 11.6923 239.232 11.6923 238.68V230.988C11.6923 230.435 11.2446 229.988 10.6923 229.988H3C2.44771 229.988 2 229.54 2 228.988V222.372C2 221.82 2.44771 221.372 3 221.372H10.6923C11.2446 221.372 11.6923 220.925 11.6923 220.372V212.68C11.6923 212.128 12.14 211.68 12.6923 211.68H19.3077C19.86 211.68 20.3077 212.128 20.3077 212.68V220.372C20.3077 220.925 20.7554 221.372 21.3077 221.372H29C29.5523 221.372 30 221.82 30 222.372V228.988C30 229.54 29.5523 229.988 29 229.988H21.3077C20.7554 229.988 20.3077 230.435 20.3077 230.988V238.68C20.3077 239.232 19.86 239.68 19.3077 239.68H12.6923Z"/>
</mask>
<path fill-rule="evenodd" clip-rule="evenodd" d="M12.6923 239.68C12.14 239.68 11.6923 239.232 11.6923 238.68V230.988C11.6923 230.435 11.2446 229.988 10.6923 229.988H3C2.44771 229.988 2 229.54 2 228.988V222.372C2 221.82 2.44771 221.372 3 221.372H10.6923C11.2446 221.372 11.6923 220.925 11.6923 220.372V212.68C11.6923 212.128 12.14 211.68 12.6923 211.68H19.3077C19.86 211.68 20.3077 212.128 20.3077 212.68V220.372C20.3077 220.925 20.7554 221.372 21.3077 221.372H29C29.5523 221.372 30 221.82 30 222.372V228.988C30 229.54 29.5523 229.988 29 229.988H21.3077C20.7554 229.988 20.3077 230.435 20.3077 230.988V238.68C20.3077 239.232 19.86 239.68 19.3077 239.68H12.6923Z" fill="#F1F5F8"/>
<path d="M12.6923 238.68V238.68V240.68C11.5877 240.68 10.6923 239.785 10.6923 238.68H12.6923ZM12.6923 230.988V238.68H10.6923V230.988H12.6923ZM3 228.988H10.6923V230.988H3V228.988ZM3 228.988H3V230.988C1.89543 230.988 1 230.092 1 228.988H3ZM3 222.372V228.988H1V222.372H3ZM3 222.372H3H1C1 221.268 1.89543 220.372 3 220.372V222.372ZM10.6923 222.372H3V220.372H10.6923V222.372ZM12.6923 212.68V220.372H10.6923V212.68H12.6923ZM12.6923 212.68H10.6923C10.6923 211.575 11.5877 210.68 12.6923 210.68V212.68ZM19.3077 212.68H12.6923V210.68H19.3077V212.68ZM19.3077 212.68H19.3077V210.68C20.4123 210.68 21.3077 211.575 21.3077 212.68H19.3077ZM19.3077 220.372V212.68H21.3077V220.372H19.3077ZM29 222.372H21.3077V220.372H29V222.372ZM29 222.372V220.372C30.1046 220.372 31 221.268 31 222.372H29ZM29 228.988V222.372H31V228.988H29ZM29 228.988H31C31 230.092 30.1046 230.988 29 230.988V228.988ZM21.3077 228.988H29V230.988H21.3077V228.988ZM19.3077 238.68V230.988H21.3077V238.68H19.3077ZM19.3077 238.68H19.3077H21.3077C21.3077 239.785 20.4123 240.68 19.3077 240.68V238.68ZM12.6923 238.68H19.3077V240.68H12.6923V238.68ZM21.3077 230.988V230.988H19.3077C19.3077 229.883 20.2031 228.988 21.3077 228.988V230.988ZM21.3077 220.372V222.372C20.2031 222.372 19.3077 221.477 19.3077 220.372H21.3077ZM10.6923 220.372V220.372H12.6923C12.6923 221.477 11.7969 222.372 10.6923 222.372V220.372ZM10.6923 230.988H10.6923V228.988C11.7969 228.988 12.6923 229.883 12.6923 230.988H10.6923Z" fill="#E9EEF2" mask="url(#path-85-inside-16_669_9235)"/>
<mask id="mask5_669_9235" style="mask-type:alpha" maskUnits="userSpaceOnUse" x="2" y="211" width="28" height="29">
<mask id="path-87-inside-17_669_9235" fill="white">
<path fill-rule="evenodd" clip-rule="evenodd" d="M12.6923 239.68C12.14 239.68 11.6923 239.232 11.6923 238.68V230.988C11.6923 230.435 11.2446 229.988 10.6923 229.988H3C2.44771 229.988 2 229.54 2 228.988V222.372C2 221.82 2.44771 221.372 3 221.372H10.6923C11.2446 221.372 11.6923 220.925 11.6923 220.372V212.68C11.6923 212.128 12.14 211.68 12.6923 211.68H19.3077C19.86 211.68 20.3077 212.128 20.3077 212.68V220.372C20.3077 220.925 20.7554 221.372 21.3077 221.372H29C29.5523 221.372 30 221.82 30 222.372V228.988C30 229.54 29.5523 229.988 29 229.988H21.3077C20.7554 229.988 20.3077 230.435 20.3077 230.988V238.68C20.3077 239.232 19.86 239.68 19.3077 239.68H12.6923Z"/>
</mask>
<path fill-rule="evenodd" clip-rule="evenodd" d="M12.6923 239.68C12.14 239.68 11.6923 239.232 11.6923 238.68V230.988C11.6923 230.435 11.2446 229.988 10.6923 229.988H3C2.44771 229.988 2 229.54 2 228.988V222.372C2 221.82 2.44771 221.372 3 221.372H10.6923C11.2446 221.372 11.6923 220.925 11.6923 220.372V212.68C11.6923 212.128 12.14 211.68 12.6923 211.68H19.3077C19.86 211.68 20.3077 212.128 20.3077 212.68V220.372C20.3077 220.925 20.7554 221.372 21.3077 221.372H29C29.5523 221.372 30 221.82 30 222.372V228.988C30 229.54 29.5523 229.988 29 229.988H21.3077C20.7554 229.988 20.3077 230.435 20.3077 230.988V238.68C20.3077 239.232 19.86 239.68 19.3077 239.68H12.6923Z" fill="#0F0E17"/>
<path d="M12.6923 238.68V238.68V240.68C11.5877 240.68 10.6923 239.785 10.6923 238.68H12.6923ZM12.6923 230.988V238.68H10.6923V230.988H12.6923ZM3 228.988H10.6923V230.988H3V228.988ZM3 228.988H3V230.988C1.89543 230.988 1 230.092 1 228.988H3ZM3 222.372V228.988H1V222.372H3ZM3 222.372H3H1C1 221.268 1.89543 220.372 3 220.372V222.372ZM10.6923 222.372H3V220.372H10.6923V222.372ZM12.6923 212.68V220.372H10.6923V212.68H12.6923ZM12.6923 212.68H10.6923C10.6923 211.575 11.5877 210.68 12.6923 210.68V212.68ZM19.3077 212.68H12.6923V210.68H19.3077V212.68ZM19.3077 212.68H19.3077V210.68C20.4123 210.68 21.3077 211.575 21.3077 212.68H19.3077ZM19.3077 220.372V212.68H21.3077V220.372H19.3077ZM29 222.372H21.3077V220.372H29V222.372ZM29 222.372V220.372C30.1046 220.372 31 221.268 31 222.372H29ZM29 228.988V222.372H31V228.988H29ZM29 228.988H31C31 230.092 30.1046 230.988 29 230.988V228.988ZM21.3077 228.988H29V230.988H21.3077V228.988ZM19.3077 238.68V230.988H21.3077V238.68H19.3077ZM19.3077 238.68H19.3077H21.3077C21.3077 239.785 20.4123 240.68 19.3077 240.68V238.68ZM12.6923 238.68H19.3077V240.68H12.6923V238.68ZM21.3077 230.988V230.988H19.3077C19.3077 229.883 20.2031 228.988 21.3077 228.988V230.988ZM21.3077 220.372V222.372C20.2031 222.372 19.3077 221.477 19.3077 220.372H21.3077ZM10.6923 220.372V220.372H12.6923C12.6923 221.477 11.7969 222.372 10.6923 222.372V220.372ZM10.6923 230.988H10.6923V228.988C11.7969 228.988 12.6923 229.883 12.6923 230.988H10.6923Z" fill="#FFFFFE" mask="url(#path-87-inside-17_669_9235)"/>
</mask>
<g mask="url(#mask5_669_9235)">
<path d="M11 240H21V234C21 231.239 18.7614 229 16 229C13.2386 229 11 231.239 11 234V240Z" fill="#172126"/>
<path d="M11 211.68H21V217.68C21 220.441 18.7614 222.68 16 222.68C13.2386 222.68 11 220.441 11 217.68V211.68Z" fill="#172126"/>
<path d="M16.208 214.992L17.7409 217.291C17.8516 217.457 17.7325 217.68 17.5329 217.68L14.4671 217.68C14.2675 217.68 14.1484 217.457 14.2591 217.291L15.792 214.992C15.8909 214.844 16.1091 214.844 16.208 214.992Z" fill="#F1F5F8"/>
<path d="M15.792 236.368L14.2591 234.069C14.1484 233.903 14.2675 233.68 14.4671 233.68L17.5329 233.68C17.7325 233.68 17.8516 233.903 17.7409 234.069L16.208 236.368C16.1091 236.516 15.8909 236.516 15.792 236.368Z" fill="#F1F5F8"/>
<path d="M27 225.68L24 227.68L24 223.68L27 225.68Z" fill="#172126"/>
<path d="M5 225.68L8 223.68L8 227.68L5 225.68Z" fill="#172126"/>
</g>
<circle cx="58" cy="226" r="13" fill="#F1F5F8"/>
<path d="M58.2236 210.447L61 216L55 216L57.7764 210.447C57.8685 210.263 58.1315 210.263 58.2236 210.447Z" fill="#F1F5F8"/>
<path d="M58.2236 241.553L61 236L55 236L57.7764 241.553C57.8685 241.737 58.1315 241.737 58.2236 241.553Z" fill="#F1F5F8"/>
<path d="M42.4472 225.776L48 223L48 229L42.4472 226.224C42.263 226.131 42.263 225.869 42.4472 225.776Z" fill="#F1F5F8"/>
<path d="M73.5528 225.776L68 223L68 229L73.5528 226.224C73.737 226.131 73.737 225.869 73.5528 225.776Z" fill="#F1F5F8"/>
<circle cx="58" cy="226" r="11" fill="#E9EEF2"/>
<path d="M54.9374 221.2H57.2054V229.152H62.1194V231H54.9374V221.2Z" fill="#172126"/>
<circle cx="100" cy="226" r="13" fill="#F1F5F8"/>
<path d="M100.224 210.447L103 216L97 216L99.7764 210.447C99.8685 210.263 100.131 210.263 100.224 210.447Z" fill="#F1F5F8"/>
<path d="M100.224 241.553L103 236L97 236L99.7764 241.553C99.8685 241.737 100.131 241.737 100.224 241.553Z" fill="#F1F5F8"/>
<path d="M84.4472 225.776L90 223L90 229L84.4472 226.224C84.263 226.131 84.263 225.869 84.4472 225.776Z" fill="#F1F5F8"/>
<path d="M115.553 225.776L110 223L110 229L115.553 226.224C115.737 226.131 115.737 225.869 115.553 225.776Z" fill="#F1F5F8"/>
<circle cx="100" cy="226" r="11" fill="#E9EEF2"/>
<path d="M102.258 231L100.368 228.27H100.256H98.2825V231H96.0145V221.2H100.256C101.124 221.2 101.876 221.345 102.51 221.634C103.154 221.923 103.649 222.334 103.994 222.866C104.34 223.398 104.512 224.028 104.512 224.756C104.512 225.484 104.335 226.114 103.98 226.646C103.635 227.169 103.14 227.57 102.496 227.85L104.694 231H102.258ZM102.216 224.756C102.216 224.205 102.039 223.785 101.684 223.496C101.33 223.197 100.812 223.048 100.13 223.048H98.2825V226.464H100.13C100.812 226.464 101.33 226.315 101.684 226.016C102.039 225.717 102.216 225.297 102.216 224.756Z" fill="#172126"/>
<circle cx="142" cy="226" r="13" fill="#F1F5F8"/>
<path d="M142.224 241.553L145 236L139 236L141.776 241.553C141.869 241.737 142.131 241.737 142.224 241.553Z" fill="#F1F5F8"/>
<path d="M126.447 225.776L132 223V229L126.447 226.224C126.263 226.131 126.263 225.869 126.447 225.776Z" fill="#F1F5F8"/>
<path d="M157.553 225.776L152 223L152 229L157.553 226.224C157.737 226.131 157.737 225.869 157.553 225.776Z" fill="#F1F5F8"/>
<circle cx="142" cy="226" r="10.5" fill="#E9EEF2" stroke="#172126"/>
<path d="M138.937 221.2H141.205V229.152H146.119V231H138.937V221.2Z" fill="#172126"/>
<path d="M142.224 210.447L145 216L139 216L141.776 210.447C141.869 210.263 142.131 210.263 142.224 210.447Z" fill="#172126"/>
<circle cx="13" cy="13" r="13" transform="matrix(1 0 0 -1 3 281)" fill="#F1F5F8"/>
<path d="M16.2236 252.447L19 258L13 258L15.7764 252.447C15.8685 252.263 16.1315 252.263 16.2236 252.447Z" fill="#F1F5F8"/>
<path d="M0.447214 268.224L6 271L6 265L0.447214 267.776C0.262952 267.869 0.262952 268.131 0.447214 268.224Z" fill="#F1F5F8"/>
<path d="M31.5528 268.224L26 271L26 265L31.5528 267.776C31.737 267.869 31.737 268.131 31.5528 268.224Z" fill="#F1F5F8"/>
<circle cx="11" cy="11" r="10.5" transform="matrix(1 0 0 -1 5 279)" fill="#E9EEF2" stroke="#172126"/>
<path d="M12.9374 263.2H15.2054V271.152H20.1194V273H12.9374V263.2Z" fill="#172126"/>
<path d="M16.2236 283.553L19 278L13 278L15.7764 283.553C15.8685 283.737 16.1315 283.737 16.2236 283.553Z" fill="#172126"/>
<circle cx="58" cy="268" r="13" transform="rotate(-90 58 268)" fill="#F1F5F8"/>
<path d="M73.5528 267.776L68 265L68 271L73.5528 268.224C73.737 268.131 73.737 267.869 73.5528 267.776Z" fill="#F1F5F8"/>
<path d="M57.7764 283.553L55 278L61 278L58.2236 283.553C58.1315 283.737 57.8685 283.737 57.7764 283.553Z" fill="#F1F5F8"/>
<path d="M57.7764 252.447L55 258L61 258L58.2236 252.447C58.1315 252.263 57.8685 252.263 57.7764 252.447Z" fill="#F1F5F8"/>
<circle cx="58" cy="268" r="10.5" transform="rotate(-90 58 268)" fill="#E9EEF2" stroke="#172126"/>
<path d="M54.9374 263.2H57.2054V271.152H62.1194V273H54.9374V263.2Z" fill="#172126"/>
<path d="M42.4472 267.776L48 265V271L42.4472 268.224C42.263 268.131 42.263 267.869 42.4472 267.776Z" fill="#172126"/>
<circle cx="13" cy="13" r="13" transform="matrix(-4.37114e-08 -1 -1 4.37114e-08 113 281)" fill="#F1F5F8"/>
<path d="M84.4472 267.776L90 265V271L84.4472 268.224C84.263 268.131 84.263 267.869 84.4472 267.776Z" fill="#F1F5F8"/>
<path d="M100.224 283.553L103 278L97 278L99.7764 283.553C99.8685 283.737 100.131 283.737 100.224 283.553Z" fill="#F1F5F8"/>
<path d="M100.224 252.447L103 258L97 258L99.7764 252.447C99.8685 252.263 100.131 252.263 100.224 252.447Z" fill="#F1F5F8"/>
<circle cx="11" cy="11" r="10.5" transform="matrix(-4.37114e-08 -1 -1 4.37114e-08 111 279)" fill="#E9EEF2" stroke="#172126"/>
<path d="M96.9374 263.2H99.2054V271.152H104.119V273H96.9374V263.2Z" fill="#172126"/>
<path d="M115.553 267.776L110 265L110 271L115.553 268.224C115.737 268.131 115.737 267.869 115.553 267.776Z" fill="#172126"/>
<circle cx="13" cy="13" r="13" transform="matrix(-4.37114e-08 -1 -1 4.37114e-08 155 281)" fill="#F1F5F8"/>
<path d="M126.447 267.776L132 265V271L126.447 268.224C126.263 268.131 126.263 267.869 126.447 267.776Z" fill="#F1F5F8"/>
<path d="M142.224 283.553L145 278L139 278L141.776 283.553C141.869 283.737 142.131 283.737 142.224 283.553Z" fill="#F1F5F8"/>
<path d="M142.224 252.447L145 258L139 258L141.776 252.447C141.869 252.263 142.131 252.263 142.224 252.447Z" fill="#F1F5F8"/>
<circle cx="11" cy="11" r="10.5" transform="matrix(-4.37114e-08 -1 -1 4.37114e-08 153 279)" fill="#E9EEF2" stroke="#172126"/>
<path d="M138.937 263.2H141.205V271.152H146.119V273H138.937V263.2Z" fill="#172126"/>
<path d="M157.553 267.776L152 265L152 271L157.553 268.224C157.737 268.131 157.737 267.869 157.553 267.776Z" fill="#172126"/>
<path d="M126.447 267.776L132 265V271L126.447 268.224C126.263 268.131 126.263 267.869 126.447 267.776Z" fill="#172126"/>
<circle cx="16" cy="310" r="13" fill="#F1F5F8"/>
<path d="M16.2236 325.553L19 320L13 320L15.7764 325.553C15.8685 325.737 16.1315 325.737 16.2236 325.553Z" fill="#F1F5F8"/>
<path d="M0.447214 309.776L6 307L6 313L0.447214 310.224C0.262952 310.131 0.262952 309.869 0.447214 309.776Z" fill="#F1F5F8"/>
<path d="M31.5528 309.776L26 307L26 313L31.5528 310.224C31.737 310.131 31.737 309.869 31.5528 309.776Z" fill="#F1F5F8"/>
<circle cx="16" cy="310" r="10.5" fill="#E9EEF2" stroke="#172126"/>
<path d="M12.9374 305.2H15.2054V313.152H20.1194V315H12.9374V305.2Z" fill="#172126"/>
<path d="M16.2236 294.447L19 300L13 300L15.7764 294.447C15.8685 294.263 16.1315 294.263 16.2236 294.447Z" fill="#172126"/>
<path d="M16.2236 325.553L19 320L13 320L15.7764 325.553C15.8685 325.737 16.1315 325.737 16.2236 325.553Z" fill="#172126"/>
<circle cx="58" cy="310" r="13" fill="#F1F5F8"/>
<path d="M58.2236 325.553L61 320L55 320L57.7764 325.553C57.8685 325.737 58.1315 325.737 58.2236 325.553Z" fill="#F1F5F8"/>
<path d="M42.4472 309.776L48 307L48 313L42.4472 310.224C42.263 310.131 42.263 309.869 42.4472 309.776Z" fill="#F1F5F8"/>
<path d="M73.5528 309.776L68 307L68 313L73.5528 310.224C73.737 310.131 73.737 309.869 73.5528 309.776Z" fill="#F1F5F8"/>
<circle cx="58" cy="310" r="10.5" fill="#E9EEF2" stroke="#172126"/>
<path d="M54.9374 305.2H57.2054V313.152H62.1194V315H54.9374V305.2Z" fill="#172126"/>
<path d="M58.2236 294.447L61 300L55 300L57.7764 294.447C57.8685 294.263 58.1315 294.263 58.2236 294.447Z" fill="#172126"/>
<path d="M58.2236 325.553L61 320L55 320L57.7764 325.553C57.8685 325.737 58.1315 325.737 58.2236 325.553Z" fill="#172126"/>
<path d="M73.5528 309.776L68 307L68 313L73.5528 310.224C73.737 310.131 73.737 309.869 73.5528 309.776Z" fill="#172126"/>
<path d="M42.4472 309.776L48 307V313L42.4472 310.224C42.263 310.131 42.263 309.869 42.4472 309.776Z" fill="#172126"/>
<circle cx="100" cy="310" r="13" fill="#F1F5F8"/>
<path d="M100.224 325.553L103 320L97 320L99.7764 325.553C99.8685 325.737 100.131 325.737 100.224 325.553Z" fill="#F1F5F8"/>
<path d="M84.4472 309.776L90 307L90 313L84.4472 310.224C84.263 310.131 84.263 309.869 84.4472 309.776Z" fill="#F1F5F8"/>
<path d="M115.553 309.776L110 307L110 313L115.553 310.224C115.737 310.131 115.737 309.869 115.553 309.776Z" fill="#F1F5F8"/>
<circle cx="100" cy="310" r="10.5" fill="#E9EEF2" stroke="#172126"/>
<path d="M102.258 315L100.368 312.27H100.256H98.2825V315H96.0145V305.2H100.256C101.124 305.2 101.876 305.345 102.51 305.634C103.154 305.923 103.649 306.334 103.994 306.866C104.34 307.398 104.512 308.028 104.512 308.756C104.512 309.484 104.335 310.114 103.98 310.646C103.635 311.169 103.14 311.57 102.496 311.85L104.694 315H102.258ZM102.216 308.756C102.216 308.205 102.039 307.785 101.684 307.496C101.33 307.197 100.812 307.048 100.13 307.048H98.2825V310.464H100.13C100.812 310.464 101.33 310.315 101.684 310.016C102.039 309.717 102.216 309.297 102.216 308.756Z" fill="#172126"/>
<path d="M100.224 294.447L103 300L97 300L99.7764 294.447C99.8685 294.263 100.131 294.263 100.224 294.447Z" fill="#172126"/>
<circle cx="13" cy="13" r="13" transform="matrix(1 0 0 -1 129 323)" fill="#F1F5F8"/>
<path d="M142.224 294.447L145 300L139 300L141.776 294.447C141.869 294.263 142.131 294.263 142.224 294.447Z" fill="#F1F5F8"/>
<path d="M126.447 310.224L132 313V307L126.447 309.776C126.263 309.869 126.263 310.131 126.447 310.224Z" fill="#F1F5F8"/>
<path d="M157.553 310.224L152 313L152 307L157.553 309.776C157.737 309.869 157.737 310.131 157.553 310.224Z" fill="#F1F5F8"/>
<circle cx="11" cy="11" r="10.5" transform="matrix(1 0 0 -1 131 321)" fill="#E9EEF2" stroke="#172126"/>
<path d="M144.258 315L142.368 312.27H142.256H140.282V315H138.014V305.2H142.256C143.124 305.2 143.876 305.345 144.51 305.634C145.154 305.923 145.649 306.334 145.994 306.866C146.34 307.398 146.512 308.028 146.512 308.756C146.512 309.484 146.335 310.114 145.98 310.646C145.635 311.169 145.14 311.57 144.496 311.85L146.694 315H144.258ZM144.216 308.756C144.216 308.205 144.039 307.785 143.684 307.496C143.33 307.197 142.812 307.048 142.13 307.048H140.282V310.464H142.13C142.812 310.464 143.33 310.315 143.684 310.016C144.039 309.717 144.216 309.297 144.216 308.756Z" fill="#172126"/>
<path d="M142.224 325.553L145 320L139 320L141.776 325.553C141.869 325.737 142.131 325.737 142.224 325.553Z" fill="#172126"/>
<circle cx="16" cy="352" r="13" transform="rotate(-90 16 352)" fill="#F1F5F8"/>
<path d="M31.5528 351.776L26 349L26 355L31.5528 352.224C31.737 352.131 31.737 351.869 31.5528 351.776Z" fill="#F1F5F8"/>
<path d="M15.7764 367.553L13 362L19 362L16.2236 367.553C16.1315 367.737 15.8685 367.737 15.7764 367.553Z" fill="#F1F5F8"/>
<path d="M15.7764 336.447L13 342L19 342L16.2236 336.447C16.1315 336.263 15.8685 336.263 15.7764 336.447Z" fill="#F1F5F8"/>
<circle cx="16" cy="352" r="10.5" transform="rotate(-90 16 352)" fill="#E9EEF2" stroke="#172126"/>
<path d="M18.2585 357L16.3685 354.27H16.2565H14.2825V357H12.0145V347.2H16.2565C17.1245 347.2 17.8758 347.345 18.5105 347.634C19.1545 347.923 19.6492 348.334 19.9945 348.866C20.3398 349.398 20.5125 350.028 20.5125 350.756C20.5125 351.484 20.3352 352.114 19.9805 352.646C19.6352 353.169 19.1405 353.57 18.4965 353.85L20.6945 357H18.2585ZM18.2165 350.756C18.2165 350.205 18.0392 349.785 17.6845 349.496C17.3298 349.197 16.8118 349.048 16.1305 349.048H14.2825V352.464H16.1305C16.8118 352.464 17.3298 352.315 17.6845 352.016C18.0392 351.717 18.2165 351.297 18.2165 350.756Z" fill="#172126"/>
<path d="M0.447214 351.776L6 349V355L0.447214 352.224C0.262952 352.131 0.262952 351.869 0.447214 351.776Z" fill="#172126"/>
<circle cx="13" cy="13" r="13" transform="matrix(-4.37114e-08 -1 -1 4.37114e-08 71 365)" fill="#F1F5F8"/>
<path d="M42.4472 351.776L48 349V355L42.4472 352.224C42.263 352.131 42.263 351.869 42.4472 351.776Z" fill="#F1F5F8"/>
<path d="M58.2236 367.553L61 362L55 362L57.7764 367.553C57.8685 367.737 58.1315 367.737 58.2236 367.553Z" fill="#F1F5F8"/>
<path d="M58.2236 336.447L61 342L55 342L57.7764 336.447C57.8685 336.263 58.1315 336.263 58.2236 336.447Z" fill="#F1F5F8"/>
<circle cx="11" cy="11" r="10.5" transform="matrix(-4.37114e-08 -1 -1 4.37114e-08 69 363)" fill="#E9EEF2" stroke="#172126"/>
<path d="M60.2585 357L58.3685 354.27H58.2565H56.2825V357H54.0145V347.2H58.2565C59.1245 347.2 59.8758 347.345 60.5105 347.634C61.1545 347.923 61.6492 348.334 61.9945 348.866C62.3398 349.398 62.5125 350.028 62.5125 350.756C62.5125 351.484 62.3352 352.114 61.9805 352.646C61.6352 353.169 61.1405 353.57 60.4965 353.85L62.6945 357H60.2585ZM60.2165 350.756C60.2165 350.205 60.0392 349.785 59.6845 349.496C59.3298 349.197 58.8118 349.048 58.1305 349.048H56.2825V352.464H58.1305C58.8118 352.464 59.3298 352.315 59.6845 352.016C60.0392 351.717 60.2165 351.297 60.2165 350.756Z" fill="#172126"/>
<path d="M73.5528 351.776L68 349L68 355L73.5528 352.224C73.737 352.131 73.737 351.869 73.5528 351.776Z" fill="#172126"/>
<circle cx="13" cy="13" r="13" transform="matrix(-4.37114e-08 -1 -1 4.37114e-08 113 365)" fill="#F1F5F8"/>
<path d="M84.4472 351.776L90 349V355L84.4472 352.224C84.263 352.131 84.263 351.869 84.4472 351.776Z" fill="#F1F5F8"/>
<path d="M100.224 367.553L103 362L97 362L99.7764 367.553C99.8685 367.737 100.131 367.737 100.224 367.553Z" fill="#F1F5F8"/>
<path d="M100.224 336.447L103 342L97 342L99.7764 336.447C99.8685 336.263 100.131 336.263 100.224 336.447Z" fill="#F1F5F8"/>
<circle cx="11" cy="11" r="10.5" transform="matrix(-4.37114e-08 -1 -1 4.37114e-08 111 363)" fill="#E9EEF2" stroke="#172126"/>
<path d="M102.258 357L100.368 354.27H100.256H98.2825V357H96.0145V347.2H100.256C101.124 347.2 101.876 347.345 102.51 347.634C103.154 347.923 103.649 348.334 103.994 348.866C104.34 349.398 104.512 350.028 104.512 350.756C104.512 351.484 104.335 352.114 103.98 352.646C103.635 353.169 103.14 353.57 102.496 353.85L104.694 357H102.258ZM102.216 350.756C102.216 350.205 102.039 349.785 101.684 349.496C101.33 349.197 100.812 349.048 100.13 349.048H98.2825V352.464H100.13C100.812 352.464 101.33 352.315 101.684 352.016C102.039 351.717 102.216 351.297 102.216 350.756Z" fill="#172126"/>
<path d="M115.553 351.776L110 349L110 355L115.553 352.224C115.737 352.131 115.737 351.869 115.553 351.776Z" fill="#172126"/>
<path d="M84.4472 351.776L90 349V355L84.4472 352.224C84.263 352.131 84.263 351.869 84.4472 351.776Z" fill="#172126"/>
<circle cx="13" cy="13" r="13" transform="matrix(1 0 0 -1 129 365)" fill="#F1F5F8"/>
<path d="M142.224 336.447L145 342L139 342L141.776 336.447C141.869 336.263 142.131 336.263 142.224 336.447Z" fill="#F1F5F8"/>
<path d="M126.447 352.224L132 355V349L126.447 351.776C126.263 351.869 126.263 352.131 126.447 352.224Z" fill="#F1F5F8"/>
<path d="M157.553 352.224L152 355L152 349L157.553 351.776C157.737 351.869 157.737 352.131 157.553 352.224Z" fill="#F1F5F8"/>
<circle cx="11" cy="11" r="10.5" transform="matrix(1 0 0 -1 131 363)" fill="#E9EEF2" stroke="#172126"/>
<path d="M144.258 357L142.368 354.27H142.256H140.282V357H138.014V347.2H142.256C143.124 347.2 143.876 347.345 144.51 347.634C145.154 347.923 145.649 348.334 145.994 348.866C146.34 349.398 146.512 350.028 146.512 350.756C146.512 351.484 146.335 352.114 145.98 352.646C145.635 353.169 145.14 353.57 144.496 353.85L146.694 357H144.258ZM144.216 350.756C144.216 350.205 144.039 349.785 143.684 349.496C143.33 349.197 142.812 349.048 142.13 349.048H140.282V352.464H142.13C142.812 352.464 143.33 352.315 143.684 352.016C144.039 351.717 144.216 351.297 144.216 350.756Z" fill="#172126"/>
<path d="M142.224 367.553L145 362L139 362L141.776 367.553C141.869 367.737 142.131 367.737 142.224 367.553Z" fill="#172126"/>
<path d="M142.224 336.447L145 342L139 342L141.776 336.447C141.869 336.263 142.131 336.263 142.224 336.447Z" fill="#172126"/>
<circle cx="13" cy="13" r="13" transform="matrix(1 0 0 -1 3 407)" fill="#F1F5F8"/>
<path d="M16.2236 378.447L19 384L13 384L15.7764 378.447C15.8685 378.263 16.1315 378.263 16.2236 378.447Z" fill="#F1F5F8"/>
<path d="M0.447214 394.224L6 397L6 391L0.447214 393.776C0.262952 393.869 0.262952 394.131 0.447214 394.224Z" fill="#F1F5F8"/>
<path d="M31.5528 394.224L26 397L26 391L31.5528 393.776C31.737 393.869 31.737 394.131 31.5528 394.224Z" fill="#F1F5F8"/>
<circle cx="11" cy="11" r="10.5" transform="matrix(1 0 0 -1 5 405)" fill="#E9EEF2" stroke="#172126"/>
<path d="M18.2585 399L16.3685 396.27H16.2565H14.2825V399H12.0145V389.2H16.2565C17.1245 389.2 17.8758 389.345 18.5105 389.634C19.1545 389.923 19.6492 390.334 19.9945 390.866C20.3398 391.398 20.5125 392.028 20.5125 392.756C20.5125 393.484 20.3352 394.114 19.9805 394.646C19.6352 395.169 19.1405 395.57 18.4965 395.85L20.6945 399H18.2585ZM18.2165 392.756C18.2165 392.205 18.0392 391.785 17.6845 391.496C17.3298 391.197 16.8118 391.048 16.1305 391.048H14.2825V394.464H16.1305C16.8118 394.464 17.3298 394.315 17.6845 394.016C18.0392 393.717 18.2165 393.297 18.2165 392.756Z" fill="#172126"/>
<path d="M16.2236 409.553L19 404L13 404L15.7764 409.553C15.8685 409.737 16.1315 409.737 16.2236 409.553Z" fill="#172126"/>
<path d="M16.2236 378.447L19 384L13 384L15.7764 378.447C15.8685 378.263 16.1315 378.263 16.2236 378.447Z" fill="#172126"/>
<path d="M31.5528 393.776L26 391L26 397L31.5528 394.224C31.737 394.131 31.737 393.869 31.5528 393.776Z" fill="#172126"/>
<path d="M0.447214 393.776L6 391V397L0.447214 394.224C0.262952 394.131 0.262952 393.869 0.447214 393.776Z" fill="#172126"/>
<circle cx="58" cy="394" r="11.5" fill="#F1F5F8" stroke="#E9EEF2"/>
<path d="M51 396L51 393L64.8 393V396L51 396Z" fill="#172126"/>
<circle cx="100" cy="394" r="11.5" fill="#F1F5F8" stroke="#E9EEF2"/>
<path fill-rule="evenodd" clip-rule="evenodd" d="M98.4 400.8H101.4V395.4H106.8V392.4H101.4V387H98.4L98.4 392.4H93V395.4H98.4L98.4 400.8Z" fill="#172126"/>
<rect x="130.5" y="381.5" width="23" height="23" rx="2.5" fill="#F1F5F8"/>
<rect x="130.5" y="381.5" width="23" height="23" rx="2.5" stroke="#E9EEF2"/>
<circle cx="142" cy="393" r="7.5" fill="#2A2A2A" stroke="#E9EEF2"/>
<circle cx="16" cy="436" r="11.5" fill="#F1F5F8" stroke="#E9EEF2"/>
<path fill-rule="evenodd" clip-rule="evenodd" d="M21.2937 441.821C21.413 441.707 21.4801 441.551 21.4801 441.389V435.893L22.6638 435.364C23.0209 435.205 23.0651 434.716 22.7425 434.495L16.4083 430.159C16.2912 430.057 16.1385 430 15.9801 430C15.8217 430 15.6689 430.057 15.5518 430.159L9.2176 434.495C8.895 434.716 8.93925 435.205 9.29626 435.364L10.4801 435.893V441.389C10.4801 441.551 10.5471 441.707 10.6664 441.821C10.7858 441.936 10.9476 442 11.1164 442H20.8437C21.0125 442 21.1743 441.936 21.2937 441.821ZM13.9801 435C13.4278 435 12.9801 435.448 12.9801 436V439C12.9801 439.552 13.4278 440 13.9801 440H17.9801C18.5324 440 18.9801 439.552 18.9801 439V436C18.9801 435.448 18.5324 435 17.9801 435H13.9801Z" fill="#172126"/>
<path d="M44.5 429C44.5 425.41 47.4101 422.5 51 422.5H55.5V450.5H51C47.4101 450.5 44.5 447.59 44.5 444V429Z" fill="#F1F5F8"/>
<path d="M44.5 429C44.5 425.41 47.4101 422.5 51 422.5H55.5V450.5H51C47.4101 450.5 44.5 447.59 44.5 444V429Z" stroke="#E9EEF2"/>
<path d="M48 440.623H52H48ZM50 438.576V440.623V442.67" fill="#172126"/>
<path d="M48 440.623H52M50 438.576V440.623V442.67" stroke="#172126" stroke-width="2" stroke-linecap="round" stroke-linejoin="round"/>
<path d="M52.1667 429.563C52.1667 430.805 51.1858 431.792 50 431.792C48.8143 431.792 47.8334 430.805 47.8334 429.563C47.8334 428.32 48.8143 427.333 50 427.333C51.1858 427.333 52.1667 428.32 52.1667 429.563Z" fill="#172126" stroke="#172126"/>
<path d="M70.5 429C70.5 425.41 67.5899 422.5 64 422.5H59.5V450.5H64C67.5899 450.5 70.5 447.59 70.5 444V429Z" fill="#172126"/>
<path d="M70.5 429C70.5 425.41 67.5899 422.5 64 422.5H59.5V450.5H64C67.5899 450.5 70.5 447.59 70.5 444V429Z" stroke="#172126"/>
<path d="M67 440.623H63H67ZM65 438.576V440.623V442.67" fill="#F1F5F8"/>
<path d="M67 440.623H63M65 438.576V440.623V442.67" stroke="#F1F5F8" stroke-width="2" stroke-linecap="round" stroke-linejoin="round"/>
<path d="M62.8333 429.563C62.8333 430.805 63.8142 431.792 65 431.792C66.1857 431.792 67.1666 430.805 67.1666 429.563C67.1666 428.32 66.1857 427.333 65 427.333C63.8142 427.333 62.8333 428.32 62.8333 429.563Z" fill="#F1F5F8" stroke="#F1F5F8"/>
<g clip-path="url(#clip0_669_9235)">
<g clip-path="url(#clip1_669_9235)">
<path d="M91.0359 444.526C88.1661 442.869 87.1829 439.2 88.8397 436.33L90.8397 432.866L111.624 444.866L109.624 448.33C107.967 451.2 104.298 452.183 101.428 450.526L91.0359 444.526Z" fill="#F1F5F8"/>
<path d="M100.853 446.345L102.52 443.459L100.853 446.345ZM100.22 444.055L101.687 444.902L103.154 445.749" fill="#172126"/>
<path d="M100.853 446.345L102.52 443.459M100.22 444.055L101.687 444.902L103.154 445.749" stroke="#172126" stroke-width="1.8" stroke-linecap="round" stroke-linejoin="round"/>
<path d="M94.6212 438.834C95.4691 439.324 95.755 440.388 95.2832 441.205C94.8115 442.022 93.7469 442.307 92.8989 441.817C92.051 441.328 91.7651 440.263 92.2369 439.446C92.7086 438.629 93.7732 438.345 94.6212 438.834Z" fill="#172126" stroke="#172126"/>
</g>
<path d="M91.2859 444.093C88.6553 442.575 87.754 439.211 89.2727 436.58L91.0227 433.549L110.941 445.049L109.191 448.08C107.673 450.711 104.309 451.612 101.678 450.093L91.2859 444.093Z" stroke="#E9EEF2"/>
<g clip-path="url(#clip2_669_9235)">
<path d="M98.5718 423.474C95.702 421.817 92.0325 422.8 90.3756 425.67L88.3756 429.134L109.16 441.134L111.16 437.67C112.817 434.8 111.834 431.131 108.964 429.474L98.5718 423.474Z" fill="#172126"/>
<path d="M105.056 431.066L103.389 433.953L105.056 431.066ZM102.755 431.663L104.223 432.51L105.69 433.357" fill="#F1F5F8"/>
<path d="M105.056 431.066L103.389 433.953M102.755 431.663L104.223 432.51L105.69 433.357" stroke="#F1F5F8" stroke-width="1.8" stroke-linecap="round" stroke-linejoin="round"/>
<path d="M95.4348 429.425C96.2827 429.914 97.3473 429.63 97.8191 428.813C98.2908 427.996 98.0049 426.931 97.157 426.442C96.3091 425.952 95.2445 426.237 94.7727 427.054C94.301 427.871 94.5869 428.935 95.4348 429.425Z" fill="#F1F5F8" stroke="#F1F5F8"/>
</g>
<path d="M98.3218 423.907C95.6912 422.388 92.3274 423.289 90.8086 425.92L89.0586 428.951L108.977 440.451L110.727 437.42C112.246 434.789 111.345 431.425 108.714 429.907L98.3218 423.907Z" stroke="#172126"/>
</g>
<g clip-path="url(#clip3_669_9235)">
<path d="M138.062 427.5C134.714 425.567 130.433 426.714 128.5 430.062L126 434.392L151.115 448.892L153.615 444.562C155.548 441.214 154.401 436.933 151.053 435L138.062 427.5Z" fill="#172126"/>
<path d="M146.128 436.775L144.128 440.239L146.128 436.775ZM143.355 437.484L145.128 438.507L146.9 439.531" fill="#F1F5F8"/>
<path d="M146.128 436.775L144.128 440.239M143.355 437.484L145.128 438.507L146.9 439.531" stroke="#F1F5F8" stroke-width="2" stroke-linecap="round" stroke-linejoin="round"/>
<path d="M134.466 434.854C135.542 435.475 136.887 435.119 137.48 434.092C138.073 433.065 137.709 431.722 136.633 431.101C135.557 430.48 134.212 430.836 133.619 431.863C133.026 432.89 133.39 434.233 134.466 434.854Z" fill="#F1F5F8" stroke="#F1F5F8"/>
</g>
<path d="M137.812 427.933C134.703 426.138 130.728 427.203 128.933 430.312L126.683 434.209L150.932 448.209L153.182 444.312C154.977 441.203 153.911 437.228 150.803 435.433L137.812 427.933Z" stroke="#172126"/>
<g clip-path="url(#clip4_669_9235)">
<path d="M12.0622 486.5C8.71413 488.433 4.433 487.286 2.5 483.938L0 479.608L25.1147 465.108L27.6147 469.438C29.5477 472.786 28.4006 477.067 25.0526 479L12.0622 486.5Z" fill="#F1F5F8"/>
<path d="M20.1277 477.225L18.1277 473.761L20.1277 477.225ZM17.3549 476.516L19.1277 475.493L20.9005 474.469" fill="#172126"/>
<path d="M20.1277 477.225L18.1277 473.761M17.3549 476.516L19.1277 475.493L20.9005 474.469" stroke="#172126" stroke-width="2" stroke-linecap="round" stroke-linejoin="round"/>
<path d="M8.46624 479.146C9.5421 478.525 10.8874 478.881 11.4803 479.908C12.0732 480.935 11.7088 482.278 10.6329 482.899C9.55705 483.52 8.2117 483.164 7.61884 482.137C7.02599 481.11 7.39038 479.767 8.46624 479.146Z" fill="#172126" stroke="#172126"/>
</g>
<path d="M11.8122 486.067C8.70328 487.862 4.72794 486.797 2.93301 483.688L0.683013 479.791L24.9317 465.791L27.1817 469.688C28.9766 472.797 27.9115 476.772 24.8026 478.567L11.8122 486.067Z" stroke="#F1F5F8"/>
<defs>
<clipPath id="clip0_669_9235">
<rect width="32" height="32" fill="white" transform="matrix(-1 0 0 1 116 420)"/>
</clipPath>
<clipPath id="clip1_669_9235">
<path d="M91.0359 444.526C88.1661 442.869 87.1829 439.2 88.8397 436.33L90.8397 432.866L111.624 444.866L109.624 448.33C107.967 451.2 104.298 452.183 101.428 450.526L91.0359 444.526Z" fill="white"/>
</clipPath>
<clipPath id="clip2_669_9235">
<path d="M98.5718 423.474C95.702 421.817 92.0325 422.8 90.3756 425.67L88.3756 429.134L109.16 441.134L111.16 437.67C112.817 434.8 111.834 431.131 108.964 429.474L98.5718 423.474Z" fill="white"/>
</clipPath>
<clipPath id="clip3_669_9235">
<path d="M138.062 427.5C134.714 425.567 130.433 426.714 128.5 430.062L126 434.392L151.115 448.892L153.615 444.562C155.548 441.214 154.401 436.933 151.053 435L138.062 427.5Z" fill="white"/>
</clipPath>
<clipPath id="clip4_669_9235">
<path d="M12.0622 486.5C8.71413 488.433 4.433 487.286 2.5 483.938L0 479.608L25.1147 465.108L27.6147 469.438C29.5477 472.786 28.4006 477.067 25.0526 479L12.0622 486.5Z" fill="white"/>
</clipPath>
</defs>
</svg>
