<svg width="158" height="452" viewBox="0 0 158 452" fill="none" xmlns="http://www.w3.org/2000/svg">
<mask id="path-1-outside-1_401_1983" maskUnits="userSpaceOnUse" x="134.778" y="381" width="14" height="15" fill="black">
<rect fill="white" x="134.778" y="381" width="14" height="15"/>
<path d="M144.015 395L141.585 391.49H141.441H138.903V395H135.987V382.4H141.441C142.557 382.4 143.523 382.586 144.339 382.958C145.167 383.33 145.803 383.858 146.247 384.542C146.691 385.226 146.913 386.036 146.913 386.972C146.913 387.908 146.685 388.718 146.229 389.402C145.785 390.074 145.149 390.59 144.321 390.95L147.147 395H144.015ZM143.961 386.972C143.961 386.264 143.733 385.724 143.277 385.352C142.821 384.968 142.155 384.776 141.279 384.776H138.903V389.168H141.279C142.155 389.168 142.821 388.976 143.277 388.592C143.733 388.208 143.961 387.668 143.961 386.972Z"/>
</mask>
<path d="M144.015 395L141.585 391.49H141.441H138.903V395H135.987V382.4H141.441C142.557 382.4 143.523 382.586 144.339 382.958C145.167 383.33 145.803 383.858 146.247 384.542C146.691 385.226 146.913 386.036 146.913 386.972C146.913 387.908 146.685 388.718 146.229 389.402C145.785 390.074 145.149 390.59 144.321 390.95L147.147 395H144.015ZM143.961 386.972C143.961 386.264 143.733 385.724 143.277 385.352C142.821 384.968 142.155 384.776 141.279 384.776H138.903V389.168H141.279C142.155 389.168 142.821 388.976 143.277 388.592C143.733 388.208 143.961 387.668 143.961 386.972Z" fill="#172126"/>
<path d="M144.015 395L143.193 395.569C143.38 395.839 143.687 396 144.015 396V395ZM141.585 391.49L142.407 390.921C142.22 390.651 141.913 390.49 141.585 390.49V391.49ZM138.903 391.49V390.49C138.351 390.49 137.903 390.938 137.903 391.49H138.903ZM138.903 395V396C139.455 396 139.903 395.552 139.903 395H138.903ZM135.987 395H134.987C134.987 395.552 135.435 396 135.987 396V395ZM135.987 382.4V381.4C135.435 381.4 134.987 381.848 134.987 382.4H135.987ZM144.339 382.958L143.924 383.868L143.929 383.87L144.339 382.958ZM146.229 389.402L145.397 388.847L145.395 388.851L146.229 389.402ZM144.321 390.95L143.922 390.033C143.647 390.153 143.44 390.389 143.359 390.678C143.277 390.966 143.329 391.276 143.501 391.522L144.321 390.95ZM147.147 395V396C147.52 396 147.861 395.793 148.034 395.462C148.206 395.132 148.18 394.733 147.967 394.428L147.147 395ZM143.277 385.352L142.633 386.117C142.637 386.12 142.641 386.124 142.645 386.127L143.277 385.352ZM138.903 384.776V383.776C138.351 383.776 137.903 384.224 137.903 384.776H138.903ZM138.903 389.168H137.903C137.903 389.72 138.351 390.168 138.903 390.168V389.168ZM143.277 388.592L143.921 389.357L143.277 388.592ZM144.837 394.431L142.407 390.921L140.763 392.059L143.193 395.569L144.837 394.431ZM141.585 390.49H141.441V392.49H141.585V390.49ZM141.441 390.49H138.903V392.49H141.441V390.49ZM137.903 391.49V395H139.903V391.49H137.903ZM138.903 394H135.987V396H138.903V394ZM136.987 395V382.4H134.987V395H136.987ZM135.987 383.4H141.441V381.4H135.987V383.4ZM141.441 383.4C142.448 383.4 143.266 383.568 143.924 383.868L144.754 382.048C143.78 381.604 142.666 381.4 141.441 381.4V383.4ZM143.929 383.87C144.602 384.173 145.081 384.582 145.408 385.086L147.086 383.998C146.525 383.134 145.732 382.487 144.749 382.046L143.929 383.87ZM145.408 385.086C145.732 385.585 145.913 386.2 145.913 386.972H147.913C147.913 385.872 147.65 384.867 147.086 383.998L145.408 385.086ZM145.913 386.972C145.913 387.739 145.729 388.35 145.397 388.847L147.061 389.957C147.641 389.086 147.913 388.077 147.913 386.972H145.913ZM145.395 388.851C145.07 389.342 144.595 389.74 143.922 390.033L144.72 391.867C145.703 391.44 146.5 390.806 147.063 389.953L145.395 388.851ZM143.501 391.522L146.327 395.572L147.967 394.428L145.141 390.378L143.501 391.522ZM147.147 394H144.015V396H147.147V394ZM144.961 386.972C144.961 386.031 144.646 385.178 143.909 384.577L142.645 386.127C142.82 386.27 142.961 386.497 142.961 386.972H144.961ZM143.921 384.587C143.217 383.994 142.283 383.776 141.279 383.776V385.776C142.027 385.776 142.425 385.942 142.633 386.117L143.921 384.587ZM141.279 383.776H138.903V385.776H141.279V383.776ZM137.903 384.776V389.168H139.903V384.776H137.903ZM138.903 390.168H141.279V388.168H138.903V390.168ZM141.279 390.168C142.283 390.168 143.217 389.95 143.921 389.357L142.633 387.827C142.425 388.002 142.027 388.168 141.279 388.168V390.168ZM143.921 389.357C144.642 388.75 144.961 387.908 144.961 386.972H142.961C142.961 387.428 142.824 387.666 142.633 387.827L143.921 389.357Z" fill="#E9EEF2" mask="url(#path-1-outside-1_401_1983)"/>
<mask id="path-3-inside-2_401_1983" fill="white">
<path fill-rule="evenodd" clip-rule="evenodd" d="M129.556 397.556C127.592 397.556 126 399.148 126 401.111C126 403.075 127.592 404.667 129.556 404.667H134.889V410H149.111V404.667H154.444C156.408 404.667 158 403.075 158 401.111C158 399.148 156.408 397.556 154.444 397.556H129.556Z"/>
</mask>
<path fill-rule="evenodd" clip-rule="evenodd" d="M129.556 397.556C127.592 397.556 126 399.148 126 401.111C126 403.075 127.592 404.667 129.556 404.667H134.889V410H149.111V404.667H154.444C156.408 404.667 158 403.075 158 401.111C158 399.148 156.408 397.556 154.444 397.556H129.556Z" fill="#F1F5F8"/>
<path d="M134.889 404.667H135.889V403.667H134.889V404.667ZM134.889 410H133.889V411H134.889V410ZM149.111 410V411H150.111V410H149.111ZM149.111 404.667V403.667H148.111V404.667H149.111ZM127 401.111C127 399.7 128.144 398.556 129.556 398.556V396.556C127.04 396.556 125 398.595 125 401.111H127ZM129.556 403.667C128.144 403.667 127 402.523 127 401.111H125C125 403.627 127.04 405.667 129.556 405.667V403.667ZM134.889 403.667H129.556V405.667H134.889V403.667ZM135.889 410V404.667H133.889V410H135.889ZM149.111 409H134.889V411H149.111V409ZM148.111 404.667V410H150.111V404.667H148.111ZM154.444 403.667H149.111V405.667H154.444V403.667ZM157 401.111C157 402.523 155.856 403.667 154.444 403.667V405.667C156.96 405.667 159 403.627 159 401.111H157ZM154.444 398.556C155.856 398.556 157 399.7 157 401.111H159C159 398.595 156.96 396.556 154.444 396.556V398.556ZM129.556 398.556H154.444V396.556H129.556V398.556Z" fill="#E9EEF2" mask="url(#path-3-inside-2_401_1983)"/>
<path d="M149.111 400.222H134.889L142 405.556L149.111 400.222Z" fill="#172126"/>
<mask id="path-6-outside-3_401_1983" maskUnits="userSpaceOnUse" x="50.7778" y="381" width="14" height="15" fill="black">
<rect fill="white" x="50.7778" y="381" width="14" height="15"/>
<path d="M60.015 395L57.585 391.49H57.441H54.903V395H51.987V382.4H57.441C58.557 382.4 59.523 382.586 60.339 382.958C61.167 383.33 61.803 383.858 62.247 384.542C62.691 385.226 62.913 386.036 62.913 386.972C62.913 387.908 62.685 388.718 62.229 389.402C61.785 390.074 61.149 390.59 60.321 390.95L63.147 395H60.015ZM59.961 386.972C59.961 386.264 59.733 385.724 59.277 385.352C58.821 384.968 58.155 384.776 57.279 384.776H54.903V389.168H57.279C58.155 389.168 58.821 388.976 59.277 388.592C59.733 388.208 59.961 387.668 59.961 386.972Z"/>
</mask>
<path d="M60.015 395L57.585 391.49H57.441H54.903V395H51.987V382.4H57.441C58.557 382.4 59.523 382.586 60.339 382.958C61.167 383.33 61.803 383.858 62.247 384.542C62.691 385.226 62.913 386.036 62.913 386.972C62.913 387.908 62.685 388.718 62.229 389.402C61.785 390.074 61.149 390.59 60.321 390.95L63.147 395H60.015ZM59.961 386.972C59.961 386.264 59.733 385.724 59.277 385.352C58.821 384.968 58.155 384.776 57.279 384.776H54.903V389.168H57.279C58.155 389.168 58.821 388.976 59.277 388.592C59.733 388.208 59.961 387.668 59.961 386.972Z" fill="#F1F5F8"/>
<path d="M60.015 395L59.1928 395.569C59.3796 395.839 59.6869 396 60.015 396V395ZM57.585 391.49L58.4072 390.921C58.2204 390.651 57.9131 390.49 57.585 390.49V391.49ZM54.903 391.49V390.49C54.3507 390.49 53.903 390.938 53.903 391.49H54.903ZM54.903 395V396C55.4553 396 55.903 395.552 55.903 395H54.903ZM51.987 395H50.987C50.987 395.552 51.4347 396 51.987 396V395ZM51.987 382.4V381.4C51.4347 381.4 50.987 381.848 50.987 382.4H51.987ZM60.339 382.958L59.9242 383.868L59.9292 383.87L60.339 382.958ZM62.229 389.402L61.3969 388.847L61.3947 388.851L62.229 389.402ZM60.321 390.95L59.9223 390.033C59.6473 390.153 59.4404 390.389 59.3588 390.678C59.2771 390.966 59.3293 391.276 59.5009 391.522L60.321 390.95ZM63.147 395V396C63.5196 396 63.8613 395.793 64.0336 395.462C64.206 395.132 64.1803 394.733 63.9671 394.428L63.147 395ZM59.277 385.352L58.6329 386.117C58.6368 386.12 58.6408 386.124 58.6449 386.127L59.277 385.352ZM54.903 384.776V383.776C54.3507 383.776 53.903 384.224 53.903 384.776H54.903ZM54.903 389.168H53.903C53.903 389.72 54.3507 390.168 54.903 390.168V389.168ZM59.277 388.592L59.9211 389.357L59.277 388.592ZM60.8372 394.431L58.4072 390.921L56.7628 392.059L59.1928 395.569L60.8372 394.431ZM57.585 390.49H57.441V392.49H57.585V390.49ZM57.441 390.49H54.903V392.49H57.441V390.49ZM53.903 391.49V395H55.903V391.49H53.903ZM54.903 394H51.987V396H54.903V394ZM52.987 395V382.4H50.987V395H52.987ZM51.987 383.4H57.441V381.4H51.987V383.4ZM57.441 383.4C58.4479 383.4 59.2662 383.568 59.9242 383.868L60.7538 382.048C59.7798 381.604 58.6661 381.4 57.441 381.4V383.4ZM59.9292 383.87C60.6024 384.173 61.0805 384.582 61.4082 385.086L63.0858 383.998C62.5255 383.134 61.7317 382.487 60.7488 382.046L59.9292 383.87ZM61.4082 385.086C61.7321 385.585 61.913 386.2 61.913 386.972H63.913C63.913 385.872 63.6499 384.867 63.0858 383.998L61.4082 385.086ZM61.913 386.972C61.913 387.739 61.7288 388.35 61.397 388.847L63.0611 389.957C63.6412 389.086 63.913 388.077 63.913 386.972H61.913ZM61.3947 388.851C61.07 389.342 60.5949 389.74 59.9223 390.033L60.7197 391.867C61.7031 391.44 62.5 390.806 63.0633 389.953L61.3947 388.851ZM59.5009 391.522L62.3269 395.572L63.9671 394.428L61.1411 390.378L59.5009 391.522ZM63.147 394H60.015V396H63.147V394ZM60.961 386.972C60.961 386.031 60.6456 385.178 59.9091 384.577L58.6449 386.127C58.8204 386.27 58.961 386.497 58.961 386.972H60.961ZM59.9211 384.587C59.2168 383.994 58.2831 383.776 57.279 383.776V385.776C58.0269 385.776 58.4252 385.942 58.6329 386.117L59.9211 384.587ZM57.279 383.776H54.903V385.776H57.279V383.776ZM53.903 384.776V389.168H55.903V384.776H53.903ZM54.903 390.168H57.279V388.168H54.903V390.168ZM57.279 390.168C58.2831 390.168 59.2168 389.95 59.9211 389.357L58.6329 387.827C58.4252 388.002 58.0269 388.168 57.279 388.168V390.168ZM59.9211 389.357C60.6416 388.75 60.961 387.908 60.961 386.972H58.961C58.961 387.428 58.8244 387.666 58.6329 387.827L59.9211 389.357Z" fill="#172126" mask="url(#path-6-outside-3_401_1983)"/>
<mask id="path-8-inside-4_401_1983" fill="white">
<path fill-rule="evenodd" clip-rule="evenodd" d="M45.5556 397.556C43.5919 397.556 42 399.148 42 401.111C42 403.075 43.5919 404.667 45.5556 404.667H50.8889V410H65.1111V404.667H70.4444C72.4081 404.667 74 403.075 74 401.111C74 399.148 72.4081 397.556 70.4444 397.556H45.5556Z"/>
</mask>
<path fill-rule="evenodd" clip-rule="evenodd" d="M45.5556 397.556C43.5919 397.556 42 399.148 42 401.111C42 403.075 43.5919 404.667 45.5556 404.667H50.8889V410H65.1111V404.667H70.4444C72.4081 404.667 74 403.075 74 401.111C74 399.148 72.4081 397.556 70.4444 397.556H45.5556Z" fill="#F1F5F8"/>
<path d="M50.8889 404.667H51.8889V403.667H50.8889V404.667ZM50.8889 410H49.8889V411H50.8889V410ZM65.1111 410V411H66.1111V410H65.1111ZM65.1111 404.667V403.667H64.1111V404.667H65.1111ZM43 401.111C43 399.7 44.1442 398.556 45.5556 398.556V396.556C43.0396 396.556 41 398.595 41 401.111H43ZM45.5556 403.667C44.1442 403.667 43 402.523 43 401.111H41C41 403.627 43.0396 405.667 45.5556 405.667V403.667ZM50.8889 403.667H45.5556V405.667H50.8889V403.667ZM51.8889 410V404.667H49.8889V410H51.8889ZM65.1111 409H50.8889V411H65.1111V409ZM64.1111 404.667V410H66.1111V404.667H64.1111ZM70.4444 403.667H65.1111V405.667H70.4444V403.667ZM73 401.111C73 402.523 71.8558 403.667 70.4444 403.667V405.667C72.9604 405.667 75 403.627 75 401.111H73ZM70.4444 398.556C71.8558 398.556 73 399.7 73 401.111H75C75 398.595 72.9604 396.556 70.4444 396.556V398.556ZM45.5556 398.556H70.4444V396.556H45.5556V398.556Z" fill="#E9EEF2" mask="url(#path-8-inside-4_401_1983)"/>
<path d="M65.1111 400.222H50.8889L58 405.556L65.1111 400.222Z" fill="#172126"/>
<mask id="path-11-outside-5_401_1983" maskUnits="userSpaceOnUse" x="93.7778" y="381" width="12" height="15" fill="black">
<rect fill="white" x="93.7778" y="381" width="12" height="15"/>
<path d="M95.1735 382.4H98.0895V392.624H104.408V395H95.1735V382.4Z"/>
</mask>
<path d="M95.1735 382.4H98.0895V392.624H104.408V395H95.1735V382.4Z" fill="#172126"/>
<path d="M95.1735 382.4V381.4C94.6212 381.4 94.1735 381.848 94.1735 382.4H95.1735ZM98.0895 382.4H99.0895C99.0895 381.848 98.6418 381.4 98.0895 381.4V382.4ZM98.0895 392.624H97.0895C97.0895 393.176 97.5372 393.624 98.0895 393.624V392.624ZM104.408 392.624H105.408C105.408 392.072 104.96 391.624 104.408 391.624V392.624ZM104.408 395V396C104.96 396 105.408 395.552 105.408 395H104.408ZM95.1735 395H94.1735C94.1735 395.552 94.6212 396 95.1735 396V395ZM95.1735 383.4H98.0895V381.4H95.1735V383.4ZM97.0895 382.4V392.624H99.0895V382.4H97.0895ZM98.0895 393.624H104.408V391.624H98.0895V393.624ZM103.408 392.624V395H105.408V392.624H103.408ZM104.408 394H95.1735V396H104.408V394ZM96.1735 395V382.4H94.1735V395H96.1735Z" fill="#E9EEF2" mask="url(#path-11-outside-5_401_1983)"/>
<mask id="path-13-inside-6_401_1983" fill="white">
<path fill-rule="evenodd" clip-rule="evenodd" d="M87.5556 397.556C85.5919 397.556 84 399.148 84 401.111C84 403.075 85.5919 404.667 87.5556 404.667H92.8889V410H107.111V404.667H112.444C114.408 404.667 116 403.075 116 401.111C116 399.148 114.408 397.556 112.444 397.556H87.5556Z"/>
</mask>
<path fill-rule="evenodd" clip-rule="evenodd" d="M87.5556 397.556C85.5919 397.556 84 399.148 84 401.111C84 403.075 85.5919 404.667 87.5556 404.667H92.8889V410H107.111V404.667H112.444C114.408 404.667 116 403.075 116 401.111C116 399.148 114.408 397.556 112.444 397.556H87.5556Z" fill="#F1F5F8"/>
<path d="M92.8889 404.667H93.8889V403.667H92.8889V404.667ZM92.8889 410H91.8889V411H92.8889V410ZM107.111 410V411H108.111V410H107.111ZM107.111 404.667V403.667H106.111V404.667H107.111ZM85 401.111C85 399.7 86.1442 398.556 87.5556 398.556V396.556C85.0396 396.556 83 398.595 83 401.111H85ZM87.5556 403.667C86.1442 403.667 85 402.523 85 401.111H83C83 403.627 85.0396 405.667 87.5556 405.667V403.667ZM92.8889 403.667H87.5556V405.667H92.8889V403.667ZM93.8889 410V404.667H91.8889V410H93.8889ZM107.111 409H92.8889V411H107.111V409ZM106.111 404.667V410H108.111V404.667H106.111ZM112.444 403.667H107.111V405.667H112.444V403.667ZM115 401.111C115 402.523 113.856 403.667 112.444 403.667V405.667C114.96 405.667 117 403.627 117 401.111H115ZM112.444 398.556C113.856 398.556 115 399.7 115 401.111H117C117 398.595 114.96 396.556 112.444 396.556V398.556ZM87.5556 398.556H112.444V396.556H87.5556V398.556Z" fill="#E9EEF2" mask="url(#path-13-inside-6_401_1983)"/>
<path d="M107.111 400.222H92.8889L100 405.556L107.111 400.222Z" fill="#172126"/>
<mask id="path-16-outside-7_401_1983" maskUnits="userSpaceOnUse" x="9.77783" y="381" width="12" height="15" fill="black">
<rect fill="white" x="9.77783" y="381" width="12" height="15"/>
<path d="M11.1735 382.4H14.0895V392.624H20.4075V395H11.1735V382.4Z"/>
</mask>
<path d="M11.1735 382.4H14.0895V392.624H20.4075V395H11.1735V382.4Z" fill="#F1F5F8"/>
<path d="M11.1735 382.4V381.4C10.6212 381.4 10.1735 381.848 10.1735 382.4H11.1735ZM14.0895 382.4H15.0895C15.0895 381.848 14.6418 381.4 14.0895 381.4V382.4ZM14.0895 392.624H13.0895C13.0895 393.176 13.5372 393.624 14.0895 393.624V392.624ZM20.4075 392.624H21.4075C21.4075 392.072 20.9598 391.624 20.4075 391.624V392.624ZM20.4075 395V396C20.9598 396 21.4075 395.552 21.4075 395H20.4075ZM11.1735 395H10.1735C10.1735 395.552 10.6212 396 11.1735 396V395ZM11.1735 383.4H14.0895V381.4H11.1735V383.4ZM13.0895 382.4V392.624H15.0895V382.4H13.0895ZM14.0895 393.624H20.4075V391.624H14.0895V393.624ZM19.4075 392.624V395H21.4075V392.624H19.4075ZM20.4075 394H11.1735V396H20.4075V394ZM12.1735 395V382.4H10.1735V395H12.1735Z" fill="#172126" mask="url(#path-16-outside-7_401_1983)"/>
<mask id="path-18-inside-8_401_1983" fill="white">
<path fill-rule="evenodd" clip-rule="evenodd" d="M3.55556 397.556C1.59188 397.556 0 399.148 0 401.111C0 403.075 1.59188 404.667 3.55556 404.667H8.88889V410H23.1111V404.667H28.4444C30.4081 404.667 32 403.075 32 401.111C32 399.148 30.4081 397.556 28.4444 397.556H3.55556Z"/>
</mask>
<path fill-rule="evenodd" clip-rule="evenodd" d="M3.55556 397.556C1.59188 397.556 0 399.148 0 401.111C0 403.075 1.59188 404.667 3.55556 404.667H8.88889V410H23.1111V404.667H28.4444C30.4081 404.667 32 403.075 32 401.111C32 399.148 30.4081 397.556 28.4444 397.556H3.55556Z" fill="#F1F5F8"/>
<path d="M8.88889 404.667H9.88889V403.667H8.88889V404.667ZM8.88889 410H7.88889V411H8.88889V410ZM23.1111 410V411H24.1111V410H23.1111ZM23.1111 404.667V403.667H22.1111V404.667H23.1111ZM1 401.111C1 399.7 2.14416 398.556 3.55556 398.556V396.556C1.03959 396.556 -1 398.595 -1 401.111H1ZM3.55556 403.667C2.14416 403.667 1 402.523 1 401.111H-1C-1 403.627 1.03959 405.667 3.55556 405.667V403.667ZM8.88889 403.667H3.55556V405.667H8.88889V403.667ZM9.88889 410V404.667H7.88889V410H9.88889ZM23.1111 409H8.88889V411H23.1111V409ZM22.1111 404.667V410H24.1111V404.667H22.1111ZM28.4444 403.667H23.1111V405.667H28.4444V403.667ZM31 401.111C31 402.523 29.8558 403.667 28.4444 403.667V405.667C30.9604 405.667 33 403.627 33 401.111H31ZM28.4444 398.556C29.8558 398.556 31 399.7 31 401.111H33C33 398.595 30.9604 396.556 28.4444 396.556V398.556ZM3.55556 398.556H28.4444V396.556H3.55556V398.556Z" fill="#E9EEF2" mask="url(#path-18-inside-8_401_1983)"/>
<path d="M23.1111 400.222H8.88892L16 405.556L23.1111 400.222Z" fill="#172126"/>
<mask id="path-21-outside-9_401_1983" maskUnits="userSpaceOnUse" x="43" y="337.569" width="30" height="30" fill="black">
<rect fill="white" x="43" y="337.569" width="30" height="30"/>
<path fill-rule="evenodd" clip-rule="evenodd" d="M54.6922 338.569C54.1399 338.569 53.6922 339.017 53.6922 339.569V348.262H62.3076V339.569C62.3076 339.017 61.8599 338.569 61.3076 338.569H54.6922ZM62.3077 356.877H62.3076V365.569C62.3076 366.122 61.8599 366.569 61.3076 366.569H54.6922C54.1399 366.569 53.6922 366.122 53.6922 365.569V356.877H45C44.4477 356.877 44 356.429 44 355.877V349.262C44 348.709 44.4477 348.262 45 348.262H62.3077V356.877ZM71.0001 348.262H62.3078V356.877H71.0001C71.5524 356.877 72.0001 356.429 72.0001 355.877V349.262C72.0001 348.709 71.5524 348.262 71.0001 348.262Z"/>
</mask>
<path fill-rule="evenodd" clip-rule="evenodd" d="M54.6922 338.569C54.1399 338.569 53.6922 339.017 53.6922 339.569V348.262H62.3076V339.569C62.3076 339.017 61.8599 338.569 61.3076 338.569H54.6922ZM62.3077 356.877H62.3076V365.569C62.3076 366.122 61.8599 366.569 61.3076 366.569H54.6922C54.1399 366.569 53.6922 366.122 53.6922 365.569V356.877H45C44.4477 356.877 44 356.429 44 355.877V349.262C44 348.709 44.4477 348.262 45 348.262H62.3077V356.877ZM71.0001 348.262H62.3078V356.877H71.0001C71.5524 356.877 72.0001 356.429 72.0001 355.877V349.262C72.0001 348.709 71.5524 348.262 71.0001 348.262Z" fill="#F1F5F8"/>
<path d="M53.6922 348.262H52.6922V349.262H53.6922V348.262ZM62.3076 348.262V349.262H63.3076V348.262H62.3076ZM62.3076 356.877V355.877H61.3076V356.877H62.3076ZM62.3077 356.877V357.877H63.3077V356.877H62.3077ZM53.6922 356.877H54.6922V355.877H53.6922V356.877ZM62.3077 348.262H63.3077V347.262H62.3077V348.262ZM62.3078 348.262V347.262H61.3078V348.262H62.3078ZM62.3078 356.877H61.3078V357.877H62.3078V356.877ZM54.6922 339.569V339.569V337.569C53.5876 337.569 52.6922 338.465 52.6922 339.569H54.6922ZM54.6922 348.262V339.569H52.6922V348.262H54.6922ZM62.3076 347.262H53.6922V349.262H62.3076V347.262ZM61.3076 339.569V348.262H63.3076V339.569H61.3076ZM61.3076 339.569V339.569H63.3076C63.3076 338.465 62.4122 337.569 61.3076 337.569V339.569ZM54.6922 339.569H61.3076V337.569H54.6922V339.569ZM62.3076 357.877H62.3077V355.877H62.3076V357.877ZM63.3076 365.569V356.877H61.3076V365.569H63.3076ZM61.3076 367.569C62.4122 367.569 63.3076 366.674 63.3076 365.569H61.3076H61.3076V367.569ZM54.6922 367.569H61.3076V365.569H54.6922V367.569ZM52.6922 365.569C52.6922 366.674 53.5876 367.569 54.6922 367.569V365.569H54.6922H52.6922ZM52.6922 356.877V365.569H54.6922V356.877H52.6922ZM45 357.877H53.6922V355.877H45V357.877ZM43 355.877C43 356.982 43.8954 357.877 45 357.877V355.877H45H43ZM43 349.262V355.877H45V349.262H43ZM45 347.262C43.8954 347.262 43 348.157 43 349.262H45L45 349.262V347.262ZM62.3077 347.262H45V349.262H62.3077V347.262ZM63.3077 356.877V348.262H61.3077V356.877H63.3077ZM62.3078 349.262H71.0001V347.262H62.3078V349.262ZM63.3078 356.877V348.262H61.3078V356.877H63.3078ZM71.0001 355.877H62.3078V357.877H71.0001V355.877ZM71.0001 355.877V355.877V357.877C72.1046 357.877 73.0001 356.982 73.0001 355.877H71.0001ZM71.0001 349.262V355.877H73.0001V349.262H71.0001ZM71.0001 349.262H73.0001C73.0001 348.157 72.1046 347.262 71.0001 347.262V349.262Z" fill="#E9EEF2" mask="url(#path-21-outside-9_401_1983)"/>
<path d="M53.3333 348.267L53.3333 339C53.3333 338.448 53.781 338 54.3333 338L61.6666 338C62.2189 338 62.6666 338.448 62.6666 339L62.6666 348.267L53.3333 348.267Z" fill="#172126"/>
<path d="M53.3333 356.733L53.3333 366C53.3333 366.552 53.781 367 54.3333 367L61.6666 367C62.2189 367 62.6666 366.552 62.6666 366L62.6666 356.733L53.3333 356.733Z" fill="#172126"/>
<mask id="path-25-outside-10_401_1983" maskUnits="userSpaceOnUse" x="85.5693" y="337" width="30" height="30" fill="black">
<rect fill="white" x="85.5693" y="337" width="30" height="30"/>
<path fill-rule="evenodd" clip-rule="evenodd" d="M86.5693 355.308C86.5693 355.86 87.0171 356.308 87.5693 356.308L96.2616 356.308L96.2616 347.692L87.5693 347.692C87.0171 347.692 86.5693 348.14 86.5693 348.692L86.5693 355.308ZM104.877 347.692L104.877 347.692L113.569 347.692C114.122 347.692 114.569 348.14 114.569 348.692L114.569 355.308C114.569 355.86 114.122 356.308 113.569 356.308L104.877 356.308L104.877 365C104.877 365.552 104.429 366 103.877 366L97.2617 366C96.7094 366 96.2617 365.552 96.2617 365L96.2617 347.692L104.877 347.692ZM96.2617 339L96.2617 347.692L104.877 347.692L104.877 339C104.877 338.448 104.429 338 103.877 338L97.2617 338C96.7094 338 96.2617 338.448 96.2617 339Z"/>
</mask>
<path fill-rule="evenodd" clip-rule="evenodd" d="M86.5693 355.308C86.5693 355.86 87.0171 356.308 87.5693 356.308L96.2616 356.308L96.2616 347.692L87.5693 347.692C87.0171 347.692 86.5693 348.14 86.5693 348.692L86.5693 355.308ZM104.877 347.692L104.877 347.692L113.569 347.692C114.122 347.692 114.569 348.14 114.569 348.692L114.569 355.308C114.569 355.86 114.122 356.308 113.569 356.308L104.877 356.308L104.877 365C104.877 365.552 104.429 366 103.877 366L97.2617 366C96.7094 366 96.2617 365.552 96.2617 365L96.2617 347.692L104.877 347.692ZM96.2617 339L96.2617 347.692L104.877 347.692L104.877 339C104.877 338.448 104.429 338 103.877 338L97.2617 338C96.7094 338 96.2617 338.448 96.2617 339Z" fill="#F1F5F8"/>
<path d="M96.2616 356.308L96.2616 357.308L97.2616 357.308L97.2616 356.308L96.2616 356.308ZM96.2616 347.692L97.2616 347.692L97.2616 346.692L96.2616 346.692L96.2616 347.692ZM104.877 347.692L103.877 347.692L103.877 348.692L104.877 348.692L104.877 347.692ZM104.877 347.692L105.877 347.692L105.877 346.692L104.877 346.692L104.877 347.692ZM104.877 356.308L104.877 355.308L103.877 355.308L103.877 356.308L104.877 356.308ZM96.2617 347.692L96.2617 346.692L95.2617 346.692L95.2617 347.692L96.2617 347.692ZM96.2617 347.692L95.2617 347.692L95.2617 348.692L96.2617 348.692L96.2617 347.692ZM96.2617 339L97.2617 339L96.2617 339ZM104.877 347.692L104.877 348.692L105.877 348.692L105.877 347.692L104.877 347.692ZM104.877 339L105.877 339L104.877 339ZM87.5693 355.308L87.5693 355.308L85.5693 355.308C85.5693 356.412 86.4648 357.308 87.5693 357.308L87.5693 355.308ZM96.2616 355.308L87.5693 355.308L87.5693 357.308L96.2616 357.308L96.2616 355.308ZM95.2616 347.692L95.2616 356.308L97.2616 356.308L97.2616 347.692L95.2616 347.692ZM87.5693 348.692L96.2616 348.692L96.2616 346.692L87.5693 346.692L87.5693 348.692ZM87.5693 348.692H87.5693L87.5693 346.692C86.4648 346.692 85.5693 347.588 85.5693 348.692L87.5693 348.692ZM87.5693 355.308L87.5693 348.692L85.5693 348.692L85.5693 355.308L87.5693 355.308ZM105.877 347.692L105.877 347.692L103.877 347.692L103.877 347.692L105.877 347.692ZM113.569 346.692L104.877 346.692L104.877 348.692L113.569 348.692L113.569 346.692ZM115.569 348.692C115.569 347.588 114.674 346.692 113.569 346.692L113.569 348.692L113.569 348.692L115.569 348.692ZM115.569 355.308L115.569 348.692L113.569 348.692L113.569 355.308L115.569 355.308ZM113.569 357.308C114.674 357.308 115.569 356.412 115.569 355.308L113.569 355.308L113.569 355.308L113.569 357.308ZM104.877 357.308L113.569 357.308L113.569 355.308L104.877 355.308L104.877 357.308ZM105.877 365L105.877 356.308L103.877 356.308L103.877 365L105.877 365ZM103.877 367C104.982 367 105.877 366.105 105.877 365L103.877 365L103.877 365L103.877 367ZM97.2617 367L103.877 367L103.877 365L97.2617 365L97.2617 367ZM95.2617 365C95.2617 366.105 96.1571 367 97.2617 367L97.2617 365L97.2617 365L95.2617 365ZM95.2617 347.692L95.2617 365L97.2617 365L97.2617 347.692L95.2617 347.692ZM104.877 346.692L96.2617 346.692L96.2617 348.692L104.877 348.692L104.877 346.692ZM97.2617 347.692L97.2617 339L95.2617 339L95.2617 347.692L97.2617 347.692ZM104.877 346.692L96.2617 346.692L96.2617 348.692L104.877 348.692L104.877 346.692ZM103.877 339L103.877 347.692L105.877 347.692L105.877 339L103.877 339ZM103.877 339L103.877 339L105.877 339C105.877 337.895 104.982 337 103.877 337L103.877 339ZM97.2617 339L103.877 339L103.877 337L97.2617 337L97.2617 339ZM97.2617 339L97.2617 337C96.1571 337 95.2617 337.895 95.2617 339L97.2617 339Z" fill="#E9EEF2" mask="url(#path-25-outside-10_401_1983)"/>
<path d="M96.2666 356.667L86.9999 356.667C86.4477 356.667 85.9999 356.219 85.9999 355.667L85.9999 348.333C85.9999 347.781 86.4477 347.333 86.9999 347.333L96.2666 347.333L96.2666 356.667Z" fill="#172126"/>
<path d="M104.733 356.667H114C114.552 356.667 115 356.219 115 355.667V348.333C115 347.781 114.552 347.333 114 347.333H104.733V356.667Z" fill="#172126"/>
<path d="M88.4485 87.3304C88.2487 85.8317 89.4146 84.5 90.9265 84.5H110C111.381 84.5 112.5 85.6193 112.5 87V101.825V111C112.5 112.381 111.381 113.5 110 113.5H100.255C95.4937 113.5 91.4678 109.975 90.8385 105.256L88.4485 87.3304Z" fill="#F1F5F8" stroke="#E9EEF2"/>
<path d="M95.3726 95.2H97.1926V103.46H102.317V105H95.3726V95.2ZM104.825 96.74H101.577V95.2H109.893V96.74H106.645V105H104.825V96.74Z" fill="#172126"/>
<path d="M153.552 87.3304C153.751 85.8317 152.585 84.5 151.073 84.5H132C130.619 84.5 129.5 85.6193 129.5 87V101.825V111C129.5 112.381 130.619 113.5 132 113.5H141.745C146.506 113.5 150.532 109.975 151.162 105.256L153.552 87.3304Z" fill="#F1F5F8" stroke="#E9EEF2"/>
<path d="M139.465 105L137.463 102.13C137.379 102.139 137.253 102.144 137.085 102.144H134.873V105H133.053V95.2H137.085C137.935 95.2 138.672 95.34 139.297 95.62C139.932 95.9 140.417 96.3013 140.753 96.824C141.089 97.3467 141.257 97.9673 141.257 98.686C141.257 99.4233 141.075 100.058 140.711 100.59C140.357 101.122 139.843 101.519 139.171 101.78L141.425 105H139.465ZM139.423 98.686C139.423 98.0607 139.218 97.58 138.807 97.244C138.397 96.908 137.795 96.74 137.001 96.74H134.873V100.646H137.001C137.795 100.646 138.397 100.478 138.807 100.142C139.218 99.7967 139.423 99.3113 139.423 98.686ZM145.145 96.74H141.897V95.2H150.213V96.74H146.965V105H145.145V96.74Z" fill="#172126"/>
<path d="M0.5 92C0.5 91.1716 1.17157 90.5 2 90.5H15.2944C15.6369 90.5 15.969 90.6172 16.2356 90.832L19.1369 93.17C19.5813 93.5282 20.1348 93.7234 20.7056 93.7234H30C30.8284 93.7234 31.5 94.395 31.5 95.2234V102.894C31.5 107.068 28.1159 110.452 23.9414 110.452H8.05861C3.88411 110.452 0.5 107.068 0.5 102.894V92Z" fill="#F1F5F8" stroke="#E9EEF2"/>
<path d="M7.316 96.2H9.136V104.46H14.26V106H7.316V96.2ZM22.6409 100.904C23.1822 101.081 23.6115 101.38 23.9289 101.8C24.2462 102.211 24.4049 102.724 24.4049 103.34C24.4049 104.189 24.0782 104.847 23.4249 105.314C22.7715 105.771 21.8195 106 20.5689 106H15.6969V96.2H20.2889C21.4462 96.2 22.3375 96.4287 22.9629 96.886C23.5882 97.334 23.9009 97.9547 23.9009 98.748C23.9009 99.2333 23.7889 99.6627 23.5649 100.036C23.3409 100.409 23.0329 100.699 22.6409 100.904ZM17.5169 97.628V100.33H20.0929C20.7275 100.33 21.2129 100.218 21.5489 99.994C21.8942 99.7607 22.0669 99.4247 22.0669 98.986C22.0669 98.538 21.8942 98.202 21.5489 97.978C21.2129 97.7447 20.7275 97.628 20.0929 97.628H17.5169ZM20.4569 104.572C21.8662 104.572 22.5709 104.101 22.5709 103.158C22.5709 102.215 21.8662 101.744 20.4569 101.744H17.5169V104.572H20.4569Z" fill="#172126"/>
<path d="M73.5 92C73.5 91.1716 72.8284 90.5 72 90.5H58.7056C58.3631 90.5 58.031 90.6172 57.7644 90.832L54.8631 93.17C54.4187 93.5282 53.8652 93.7234 53.2944 93.7234H44C43.1716 93.7234 42.5 94.395 42.5 95.2234V102.894C42.5 107.068 45.8841 110.452 50.0586 110.452H65.9414C70.1159 110.452 73.5 107.068 73.5 102.894V92Z" fill="#F1F5F8" stroke="#E9EEF2"/>
<path d="M55.728 106L53.726 103.13C53.642 103.139 53.516 103.144 53.348 103.144H51.136V106H49.316V96.2H53.348C54.1973 96.2 54.9347 96.34 55.56 96.62C56.1947 96.9 56.68 97.3013 57.016 97.824C57.352 98.3467 57.52 98.9673 57.52 99.686C57.52 100.423 57.338 101.058 56.974 101.59C56.6193 102.122 56.106 102.519 55.434 102.78L57.688 106H55.728ZM55.686 99.686C55.686 99.0607 55.4807 98.58 55.07 98.244C54.6593 97.908 54.0573 97.74 53.264 97.74H51.136V101.646H53.264C54.0573 101.646 54.6593 101.478 55.07 101.142C55.4807 100.797 55.686 100.311 55.686 99.686ZM66.5002 100.904C67.0416 101.081 67.4709 101.38 67.7882 101.8C68.1056 102.211 68.2642 102.724 68.2642 103.34C68.2642 104.189 67.9376 104.847 67.2842 105.314C66.6309 105.771 65.6789 106 64.4282 106H59.5562V96.2H64.1482C65.3056 96.2 66.1969 96.4287 66.8222 96.886C67.4476 97.334 67.7602 97.9547 67.7602 98.748C67.7602 99.2333 67.6482 99.6627 67.4242 100.036C67.2002 100.409 66.8922 100.699 66.5002 100.904ZM61.3762 97.628V100.33H63.9522C64.5869 100.33 65.0722 100.218 65.4082 99.994C65.7536 99.7607 65.9262 99.4247 65.9262 98.986C65.9262 98.538 65.7536 98.202 65.4082 97.978C65.0722 97.7447 64.5869 97.628 63.9522 97.628H61.3762ZM64.3162 104.572C65.7256 104.572 66.4302 104.101 66.4302 103.158C66.4302 102.215 65.7256 101.744 64.3162 101.744H61.3762V104.572H64.3162Z" fill="#172126"/>
<circle cx="100" cy="16" r="11.5" fill="#F1F5F8" stroke="#E9EEF2"/>
<mask id="path-38-outside-11_401_1983" maskUnits="userSpaceOnUse" x="93" y="10" width="14" height="13" fill="black">
<rect fill="white" x="93" y="10" width="14" height="13"/>
<path d="M102.776 19.408H97.1758L96.0718 22H93.9278L98.9678 10.8H101.016L106.072 22H103.896L102.776 19.408ZM102.088 17.776L99.9758 12.88L97.8798 17.776H102.088Z"/>
</mask>
<path d="M102.776 19.408H97.1758L96.0718 22H93.9278L98.9678 10.8H101.016L106.072 22H103.896L102.776 19.408ZM102.088 17.776L99.9758 12.88L97.8798 17.776H102.088Z" fill="#05C46B"/>
<path d="M102.776 19.408L102.959 19.3287C102.928 19.2554 102.856 19.208 102.776 19.208V19.408ZM97.1758 19.408V19.208C97.0956 19.208 97.0232 19.2559 96.9918 19.3296L97.1758 19.408ZM96.0718 22V22.2C96.152 22.2 96.2244 22.1521 96.2558 22.0784L96.0718 22ZM93.9278 22L93.7454 21.9179C93.7176 21.9798 93.723 22.0516 93.7599 22.1086C93.7967 22.1656 93.8599 22.2 93.9278 22.2V22ZM98.9678 10.8V10.6C98.8891 10.6 98.8177 10.6462 98.7854 10.7179L98.9678 10.8ZM101.016 10.8L101.198 10.7177C101.166 10.6461 101.094 10.6 101.016 10.6V10.8ZM106.072 22V22.2C106.14 22.2 106.203 22.1655 106.24 22.1085C106.277 22.0514 106.282 21.9796 106.254 21.9177L106.072 22ZM103.896 22L103.712 22.0793C103.744 22.1526 103.816 22.2 103.896 22.2V22ZM102.088 17.776V17.976C102.155 17.976 102.218 17.9421 102.255 17.8859C102.292 17.8297 102.298 17.7586 102.271 17.6968L102.088 17.776ZM99.9758 12.88L100.159 12.8008C100.128 12.7274 100.055 12.6799 99.9755 12.68C99.8956 12.6801 99.8234 12.7278 99.792 12.8013L99.9758 12.88ZM97.8798 17.776L97.696 17.6973C97.6695 17.7591 97.6759 17.83 97.7129 17.8861C97.7499 17.9422 97.8126 17.976 97.8798 17.976V17.776ZM102.776 19.208H97.1758V19.608H102.776V19.208ZM96.9918 19.3296L95.8878 21.9216L96.2558 22.0784L97.3598 19.4864L96.9918 19.3296ZM96.0718 21.8H93.9278V22.2H96.0718V21.8ZM94.1102 22.0821L99.1502 10.8821L98.7854 10.7179L93.7454 21.9179L94.1102 22.0821ZM98.9678 11H101.016V10.6H98.9678V11ZM100.834 10.8823L105.89 22.0823L106.254 21.9177L101.198 10.7177L100.834 10.8823ZM106.072 21.8H103.896V22.2H106.072V21.8ZM104.079 21.9207L102.959 19.3287L102.592 19.4873L103.712 22.0793L104.079 21.9207ZM102.271 17.6968L100.159 12.8008L99.7922 12.9592L101.904 17.8552L102.271 17.6968ZM99.792 12.8013L97.696 17.6973L98.0637 17.8547L100.16 12.9587L99.792 12.8013ZM97.8798 17.976H102.088V17.576H97.8798V17.976Z" fill="#05C46B" mask="url(#path-38-outside-11_401_1983)"/>
<circle cx="100" cy="58" r="11.5" fill="#F1F5F8" stroke="#E9EEF2"/>
<mask id="path-41-outside-12_401_1983" maskUnits="userSpaceOnUse" x="93" y="52" width="14" height="13" fill="black">
<rect fill="white" x="93" y="52" width="14" height="13"/>
<path d="M102.776 61.408H97.1758L96.0718 64H93.9278L98.9678 52.8H101.016L106.072 64H103.896L102.776 61.408ZM102.088 59.776L99.9758 54.88L97.8798 59.776H102.088Z"/>
</mask>
<path d="M102.776 61.408H97.1758L96.0718 64H93.9278L98.9678 52.8H101.016L106.072 64H103.896L102.776 61.408ZM102.088 59.776L99.9758 54.88L97.8798 59.776H102.088Z" fill="#172126"/>
<path d="M102.776 61.408L102.959 61.3287C102.928 61.2554 102.856 61.208 102.776 61.208V61.408ZM97.1758 61.408V61.208C97.0956 61.208 97.0232 61.2559 96.9918 61.3296L97.1758 61.408ZM96.0718 64V64.2C96.152 64.2 96.2244 64.1521 96.2558 64.0784L96.0718 64ZM93.9278 64L93.7454 63.9179C93.7176 63.9798 93.723 64.0516 93.7599 64.1086C93.7967 64.1656 93.8599 64.2 93.9278 64.2V64ZM98.9678 52.8V52.6C98.8891 52.6 98.8177 52.6462 98.7854 52.7179L98.9678 52.8ZM101.016 52.8L101.198 52.7177C101.166 52.6461 101.094 52.6 101.016 52.6V52.8ZM106.072 64V64.2C106.14 64.2 106.203 64.1655 106.24 64.1085C106.277 64.0514 106.282 63.9796 106.254 63.9177L106.072 64ZM103.896 64L103.712 64.0793C103.744 64.1526 103.816 64.2 103.896 64.2V64ZM102.088 59.776V59.976C102.155 59.976 102.218 59.9421 102.255 59.8859C102.292 59.8297 102.298 59.7586 102.271 59.6968L102.088 59.776ZM99.9758 54.88L100.159 54.8008C100.128 54.7274 100.055 54.6799 99.9755 54.68C99.8956 54.6801 99.8234 54.7278 99.792 54.8013L99.9758 54.88ZM97.8798 59.776L97.696 59.6973C97.6695 59.7591 97.6759 59.83 97.7129 59.8861C97.7499 59.9422 97.8126 59.976 97.8798 59.976V59.776ZM102.776 61.208H97.1758V61.608H102.776V61.208ZM96.9918 61.3296L95.8878 63.9216L96.2558 64.0784L97.3598 61.4864L96.9918 61.3296ZM96.0718 63.8H93.9278V64.2H96.0718V63.8ZM94.1102 64.0821L99.1502 52.8821L98.7854 52.7179L93.7454 63.9179L94.1102 64.0821ZM98.9678 53H101.016V52.6H98.9678V53ZM100.834 52.8823L105.89 64.0823L106.254 63.9177L101.198 52.7177L100.834 52.8823ZM106.072 63.8H103.896V64.2H106.072V63.8ZM104.079 63.9207L102.959 61.3287L102.592 61.4873L103.712 64.0793L104.079 63.9207ZM102.271 59.6968L100.159 54.8008L99.7922 54.9592L101.904 59.8552L102.271 59.6968ZM99.792 54.8013L97.696 59.6973L98.0637 59.8547L100.16 54.9587L99.792 54.8013ZM97.8798 59.976H102.088V59.576H97.8798V59.976Z" fill="#172126" mask="url(#path-41-outside-12_401_1983)"/>
<circle cx="58" cy="16" r="11.5" fill="#F1F5F8" stroke="#E9EEF2"/>
<mask id="path-44-outside-13_401_1983" maskUnits="userSpaceOnUse" x="53" y="10" width="12" height="13" fill="black">
<rect fill="white" x="53" y="10" width="12" height="13"/>
<path d="M61.8541 16.176C62.4727 16.3787 62.9634 16.72 63.3261 17.2C63.6887 17.6693 63.8701 18.256 63.8701 18.96C63.8701 19.9307 63.4967 20.6827 62.7501 21.216C62.0034 21.7387 60.9154 22 59.4861 22H53.9181V10.8H59.1661C60.4887 10.8 61.5074 11.0613 62.2221 11.584C62.9367 12.096 63.2941 12.8053 63.2941 13.712C63.2941 14.2667 63.1661 14.7573 62.9101 15.184C62.6541 15.6107 62.3021 15.9413 61.8541 16.176ZM55.9981 12.432V15.52H58.9421C59.6674 15.52 60.2221 15.392 60.6061 15.136C61.0007 14.8693 61.1981 14.4853 61.1981 13.984C61.1981 13.472 61.0007 13.088 60.6061 12.832C60.2221 12.5653 59.6674 12.432 58.9421 12.432H55.9981ZM59.3581 20.368C60.9687 20.368 61.7741 19.8293 61.7741 18.752C61.7741 17.6747 60.9687 17.136 59.3581 17.136H55.9981V20.368H59.3581Z"/>
</mask>
<path d="M61.8541 16.176C62.4727 16.3787 62.9634 16.72 63.3261 17.2C63.6887 17.6693 63.8701 18.256 63.8701 18.96C63.8701 19.9307 63.4967 20.6827 62.7501 21.216C62.0034 21.7387 60.9154 22 59.4861 22H53.9181V10.8H59.1661C60.4887 10.8 61.5074 11.0613 62.2221 11.584C62.9367 12.096 63.2941 12.8053 63.2941 13.712C63.2941 14.2667 63.1661 14.7573 62.9101 15.184C62.6541 15.6107 62.3021 15.9413 61.8541 16.176ZM55.9981 12.432V15.52H58.9421C59.6674 15.52 60.2221 15.392 60.6061 15.136C61.0007 14.8693 61.1981 14.4853 61.1981 13.984C61.1981 13.472 61.0007 13.088 60.6061 12.832C60.2221 12.5653 59.6674 12.432 58.9421 12.432H55.9981ZM59.3581 20.368C60.9687 20.368 61.7741 19.8293 61.7741 18.752C61.7741 17.6747 60.9687 17.136 59.3581 17.136H55.9981V20.368H59.3581Z" fill="#EE5253"/>
<path d="M61.8541 16.176L61.7613 15.9988C61.69 16.0361 61.6481 16.1125 61.6548 16.1926C61.6614 16.2727 61.7154 16.341 61.7918 16.3661L61.8541 16.176ZM63.3261 17.2L63.1665 17.3206L63.1678 17.3223L63.3261 17.2ZM62.7501 21.216L62.8648 21.3799L62.8663 21.3787L62.7501 21.216ZM53.9181 22H53.7181C53.7181 22.1105 53.8076 22.2 53.9181 22.2V22ZM53.9181 10.8V10.6C53.8076 10.6 53.7181 10.6895 53.7181 10.8H53.9181ZM62.2221 11.584L62.104 11.7454L62.1056 11.7466L62.2221 11.584ZM62.9101 15.184L62.7386 15.0811L62.9101 15.184ZM55.9981 12.432V12.232C55.8876 12.232 55.7981 12.3215 55.7981 12.432H55.9981ZM55.9981 15.52H55.7981C55.7981 15.6305 55.8876 15.72 55.9981 15.72V15.52ZM60.6061 15.136L60.717 15.3024L60.718 15.3017L60.6061 15.136ZM60.6061 12.832L60.4919 12.9964L60.4972 12.9998L60.6061 12.832ZM55.9981 17.136V16.936C55.8876 16.936 55.7981 17.0255 55.7981 17.136H55.9981ZM55.9981 20.368H55.7981C55.7981 20.4785 55.8876 20.568 55.9981 20.568V20.368ZM61.7918 16.3661C62.375 16.5571 62.8305 16.8758 63.1665 17.3206L63.4856 17.0794C63.0963 16.5642 62.5704 16.2002 61.9163 15.9859L61.7918 16.3661ZM63.1678 17.3223C63.4986 17.7504 63.6701 18.2917 63.6701 18.96H64.0701C64.0701 18.2203 63.8789 17.5883 63.4843 17.0777L63.1678 17.3223ZM63.6701 18.96C63.6701 19.8705 63.3244 20.5599 62.6338 21.0533L62.8663 21.3787C63.669 20.8054 64.0701 19.9909 64.0701 18.96H63.6701ZM62.6354 21.0522C61.9365 21.5414 60.896 21.8 59.4861 21.8V22.2C60.9348 22.2 62.0703 21.936 62.8648 21.3798L62.6354 21.0522ZM59.4861 21.8H53.9181V22.2H59.4861V21.8ZM54.1181 22V10.8H53.7181V22H54.1181ZM53.9181 11H59.1661V10.6H53.9181V11ZM59.1661 11C60.4662 11 61.4368 11.2575 62.104 11.7454L62.3401 11.4226C61.578 10.8652 60.5113 10.6 59.1661 10.6V11ZM62.1056 11.7466C62.7659 12.2197 63.0941 12.8674 63.0941 13.712H63.4941C63.4941 12.7432 63.1075 11.9723 62.3385 11.4214L62.1056 11.7466ZM63.0941 13.712C63.0941 14.2347 62.9738 14.689 62.7386 15.0811L63.0816 15.2869C63.3583 14.8257 63.4941 14.2986 63.4941 13.712H63.0941ZM62.7386 15.0811C62.5018 15.4757 62.1773 15.7809 61.7613 15.9988L61.9469 16.3532C62.4269 16.1017 62.8063 15.7456 63.0816 15.2869L62.7386 15.0811ZM55.7981 12.432V15.52H56.1981V12.432H55.7981ZM55.9981 15.72H58.9421V15.32H55.9981V15.72ZM58.9421 15.72C59.6861 15.72 60.2863 15.5895 60.717 15.3024L60.4951 14.9696C60.1578 15.1945 59.6487 15.32 58.9421 15.32V15.72ZM60.718 15.3017C61.1711 14.9956 61.3981 14.5476 61.3981 13.984H60.9981C60.9981 14.4231 60.8304 14.7431 60.4941 14.9703L60.718 15.3017ZM61.3981 13.984C61.3981 13.4114 61.1721 12.9608 60.7149 12.6642L60.4972 12.9998C60.8293 13.2152 60.9981 13.5326 60.9981 13.984H61.3981ZM60.7201 12.6677C60.2888 12.3682 59.6873 12.232 58.9421 12.232V12.632C59.6475 12.632 60.1553 12.7625 60.492 12.9963L60.7201 12.6677ZM58.9421 12.232H55.9981V12.632H58.9421V12.232ZM59.3581 20.568C60.1794 20.568 60.8304 20.4318 61.2813 20.1302C61.7463 19.8192 61.9741 19.3486 61.9741 18.752H61.5741C61.5741 19.2327 61.3991 19.5702 61.0589 19.7978C60.7044 20.0349 60.1474 20.168 59.3581 20.168V20.568ZM61.9741 18.752C61.9741 18.1554 61.7463 17.6848 61.2813 17.3738C60.8304 17.0722 60.1794 16.936 59.3581 16.936V17.336C60.1474 17.336 60.7044 17.4691 61.0589 17.7062C61.3991 17.9338 61.5741 18.2713 61.5741 18.752H61.9741ZM59.3581 16.936H55.9981V17.336H59.3581V16.936ZM55.7981 17.136V20.368H56.1981V17.136H55.7981ZM55.9981 20.568H59.3581V20.168H55.9981V20.568Z" fill="#EE5253" mask="url(#path-44-outside-13_401_1983)"/>
<circle cx="58" cy="58" r="11.5" fill="#F1F5F8" stroke="#E9EEF2"/>
<mask id="path-47-outside-14_401_1983" maskUnits="userSpaceOnUse" x="53" y="52" width="12" height="13" fill="black">
<rect fill="white" x="53" y="52" width="12" height="13"/>
<path d="M61.8541 58.176C62.4727 58.3787 62.9634 58.72 63.3261 59.2C63.6887 59.6693 63.8701 60.256 63.8701 60.96C63.8701 61.9307 63.4967 62.6827 62.7501 63.216C62.0034 63.7387 60.9154 64 59.4861 64H53.9181V52.8H59.1661C60.4887 52.8 61.5074 53.0613 62.2221 53.584C62.9367 54.096 63.2941 54.8053 63.2941 55.712C63.2941 56.2667 63.1661 56.7573 62.9101 57.184C62.6541 57.6107 62.3021 57.9413 61.8541 58.176ZM55.9981 54.432V57.52H58.9421C59.6674 57.52 60.2221 57.392 60.6061 57.136C61.0007 56.8693 61.1981 56.4853 61.1981 55.984C61.1981 55.472 61.0007 55.088 60.6061 54.832C60.2221 54.5653 59.6674 54.432 58.9421 54.432H55.9981ZM59.3581 62.368C60.9687 62.368 61.7741 61.8293 61.7741 60.752C61.7741 59.6747 60.9687 59.136 59.3581 59.136H55.9981V62.368H59.3581Z"/>
</mask>
<path d="M61.8541 58.176C62.4727 58.3787 62.9634 58.72 63.3261 59.2C63.6887 59.6693 63.8701 60.256 63.8701 60.96C63.8701 61.9307 63.4967 62.6827 62.7501 63.216C62.0034 63.7387 60.9154 64 59.4861 64H53.9181V52.8H59.1661C60.4887 52.8 61.5074 53.0613 62.2221 53.584C62.9367 54.096 63.2941 54.8053 63.2941 55.712C63.2941 56.2667 63.1661 56.7573 62.9101 57.184C62.6541 57.6107 62.3021 57.9413 61.8541 58.176ZM55.9981 54.432V57.52H58.9421C59.6674 57.52 60.2221 57.392 60.6061 57.136C61.0007 56.8693 61.1981 56.4853 61.1981 55.984C61.1981 55.472 61.0007 55.088 60.6061 54.832C60.2221 54.5653 59.6674 54.432 58.9421 54.432H55.9981ZM59.3581 62.368C60.9687 62.368 61.7741 61.8293 61.7741 60.752C61.7741 59.6747 60.9687 59.136 59.3581 59.136H55.9981V62.368H59.3581Z" fill="#172126"/>
<path d="M61.8541 58.176L61.7613 57.9988C61.69 58.0361 61.6481 58.1125 61.6548 58.1926C61.6614 58.2727 61.7154 58.341 61.7918 58.3661L61.8541 58.176ZM63.3261 59.2L63.1665 59.3206L63.1678 59.3223L63.3261 59.2ZM62.7501 63.216L62.8648 63.3799L62.8663 63.3787L62.7501 63.216ZM53.9181 64H53.7181C53.7181 64.1105 53.8076 64.2 53.9181 64.2V64ZM53.9181 52.8V52.6C53.8076 52.6 53.7181 52.6895 53.7181 52.8H53.9181ZM62.2221 53.584L62.104 53.7454L62.1056 53.7466L62.2221 53.584ZM62.9101 57.184L62.7386 57.0811L62.9101 57.184ZM55.9981 54.432V54.232C55.8876 54.232 55.7981 54.3215 55.7981 54.432H55.9981ZM55.9981 57.52H55.7981C55.7981 57.6305 55.8876 57.72 55.9981 57.72V57.52ZM60.6061 57.136L60.717 57.3024L60.718 57.3017L60.6061 57.136ZM60.6061 54.832L60.4919 54.9964L60.4972 54.9998L60.6061 54.832ZM55.9981 59.136V58.936C55.8876 58.936 55.7981 59.0255 55.7981 59.136H55.9981ZM55.9981 62.368H55.7981C55.7981 62.4785 55.8876 62.568 55.9981 62.568V62.368ZM61.7918 58.3661C62.375 58.5571 62.8305 58.8758 63.1665 59.3206L63.4856 59.0794C63.0963 58.5642 62.5704 58.2002 61.9163 57.9859L61.7918 58.3661ZM63.1678 59.3223C63.4986 59.7504 63.6701 60.2917 63.6701 60.96H64.0701C64.0701 60.2203 63.8789 59.5883 63.4843 59.0777L63.1678 59.3223ZM63.6701 60.96C63.6701 61.8705 63.3244 62.5599 62.6338 63.0533L62.8663 63.3787C63.669 62.8054 64.0701 61.9909 64.0701 60.96H63.6701ZM62.6354 63.0522C61.9365 63.5414 60.896 63.8 59.4861 63.8V64.2C60.9348 64.2 62.0703 63.936 62.8648 63.3798L62.6354 63.0522ZM59.4861 63.8H53.9181V64.2H59.4861V63.8ZM54.1181 64V52.8H53.7181V64H54.1181ZM53.9181 53H59.1661V52.6H53.9181V53ZM59.1661 53C60.4662 53 61.4368 53.2575 62.104 53.7454L62.3401 53.4226C61.578 52.8652 60.5113 52.6 59.1661 52.6V53ZM62.1056 53.7466C62.7659 54.2197 63.0941 54.8674 63.0941 55.712H63.4941C63.4941 54.7432 63.1075 53.9723 62.3385 53.4214L62.1056 53.7466ZM63.0941 55.712C63.0941 56.2347 62.9738 56.689 62.7386 57.0811L63.0816 57.2869C63.3583 56.8257 63.4941 56.2986 63.4941 55.712H63.0941ZM62.7386 57.0811C62.5018 57.4757 62.1773 57.7809 61.7613 57.9988L61.9469 58.3532C62.4269 58.1017 62.8063 57.7456 63.0816 57.2869L62.7386 57.0811ZM55.7981 54.432V57.52H56.1981V54.432H55.7981ZM55.9981 57.72H58.9421V57.32H55.9981V57.72ZM58.9421 57.72C59.6861 57.72 60.2863 57.5895 60.717 57.3024L60.4951 56.9696C60.1578 57.1945 59.6487 57.32 58.9421 57.32V57.72ZM60.718 57.3017C61.1711 56.9956 61.3981 56.5476 61.3981 55.984H60.9981C60.9981 56.4231 60.8304 56.7431 60.4941 56.9703L60.718 57.3017ZM61.3981 55.984C61.3981 55.4114 61.1721 54.9608 60.7149 54.6642L60.4972 54.9998C60.8293 55.2152 60.9981 55.5326 60.9981 55.984H61.3981ZM60.7201 54.6677C60.2888 54.3682 59.6873 54.232 58.9421 54.232V54.632C59.6475 54.632 60.1553 54.7625 60.492 54.9963L60.7201 54.6677ZM58.9421 54.232H55.9981V54.632H58.9421V54.232ZM59.3581 62.568C60.1794 62.568 60.8304 62.4318 61.2813 62.1302C61.7463 61.8192 61.9741 61.3486 61.9741 60.752H61.5741C61.5741 61.2327 61.3991 61.5702 61.0589 61.7978C60.7044 62.0349 60.1474 62.168 59.3581 62.168V62.568ZM61.9741 60.752C61.9741 60.1554 61.7463 59.6848 61.2813 59.3738C60.8304 59.0722 60.1794 58.936 59.3581 58.936V59.336C60.1474 59.336 60.7044 59.4691 61.0589 59.7062C61.3991 59.9338 61.5741 60.2713 61.5741 60.752H61.9741ZM59.3581 58.936H55.9981V59.336H59.3581V58.936ZM55.7981 59.136V62.368H56.1981V59.136H55.7981ZM55.9981 62.568H59.3581V62.168H55.9981V62.568Z" fill="#172126" mask="url(#path-47-outside-14_401_1983)"/>
<circle cx="16" cy="16" r="11.5" fill="#F1F5F8" stroke="#E9EEF2"/>
<mask id="path-50-outside-15_401_1983" maskUnits="userSpaceOnUse" x="10" y="10" width="12" height="13" fill="black">
<rect fill="white" x="10" y="10" width="12" height="13"/>
<path d="M17.0469 18.048V22H14.9669V18.08L10.5669 10.8H12.7909L16.0709 16.256L19.3829 10.8H21.4309L17.0469 18.048Z"/>
</mask>
<path d="M17.0469 18.048V22H14.9669V18.08L10.5669 10.8H12.7909L16.0709 16.256L19.3829 10.8H21.4309L17.0469 18.048Z" fill="#FFE024"/>
<path d="M17.0469 18.048L16.8758 17.9445C16.8569 17.9757 16.8469 18.0115 16.8469 18.048H17.0469ZM17.0469 22V22.2C17.1574 22.2 17.2469 22.1105 17.2469 22H17.0469ZM14.9669 22H14.7669C14.7669 22.1105 14.8565 22.2 14.9669 22.2V22ZM14.9669 18.08H15.1669C15.1669 18.0435 15.157 18.0078 15.1381 17.9765L14.9669 18.08ZM10.5669 10.8V10.6C10.4948 10.6 10.4282 10.6389 10.3927 10.7017C10.3573 10.7646 10.3584 10.8417 10.3958 10.9035L10.5669 10.8ZM12.7909 10.8L12.9623 10.697C12.9262 10.6368 12.8611 10.6 12.7909 10.6V10.8ZM16.0709 16.256L15.8995 16.359C15.9356 16.4191 16.0005 16.4558 16.0705 16.456C16.1405 16.4561 16.2056 16.4197 16.2419 16.3598L16.0709 16.256ZM19.3829 10.8V10.6C19.3131 10.6 19.2482 10.6365 19.212 10.6962L19.3829 10.8ZM21.4309 10.8L21.6021 10.9035C21.6394 10.8417 21.6406 10.7646 21.6052 10.7018C21.5697 10.6389 21.5031 10.6 21.4309 10.6V10.8ZM16.8469 18.048V22H17.2469V18.048H16.8469ZM17.0469 21.8H14.9669V22.2H17.0469V21.8ZM15.1669 22V18.08H14.7669V22H15.1669ZM15.1381 17.9765L10.7381 10.6965L10.3958 10.9035L14.7958 18.1835L15.1381 17.9765ZM10.5669 11H12.7909V10.6H10.5669V11ZM12.6195 10.903L15.8995 16.359L16.2423 16.153L12.9623 10.697L12.6195 10.903ZM16.2419 16.3598L19.5539 10.9038L19.212 10.6962L15.9 16.1522L16.2419 16.3598ZM19.3829 11H21.4309V10.6H19.3829V11ZM21.2598 10.6965L16.8758 17.9445L17.2181 18.1515L21.6021 10.9035L21.2598 10.6965Z" fill="#FFE024" mask="url(#path-50-outside-15_401_1983)"/>
<circle cx="16" cy="58" r="11.5" fill="#F1F5F8" stroke="#E9EEF2"/>
<mask id="path-53-outside-16_401_1983" maskUnits="userSpaceOnUse" x="10" y="52" width="12" height="13" fill="black">
<rect fill="white" x="10" y="52" width="12" height="13"/>
<path d="M17.0469 60.048V64H14.9669V60.08L10.5669 52.8H12.7909L16.0709 58.256L19.3829 52.8H21.4309L17.0469 60.048Z"/>
</mask>
<path d="M17.0469 60.048V64H14.9669V60.08L10.5669 52.8H12.7909L16.0709 58.256L19.3829 52.8H21.4309L17.0469 60.048Z" fill="#172126"/>
<path d="M17.0469 60.048L16.8758 59.9445C16.8569 59.9757 16.8469 60.0115 16.8469 60.048H17.0469ZM17.0469 64V64.2C17.1574 64.2 17.2469 64.1105 17.2469 64H17.0469ZM14.9669 64H14.7669C14.7669 64.1105 14.8565 64.2 14.9669 64.2V64ZM14.9669 60.08H15.1669C15.1669 60.0435 15.157 60.0078 15.1381 59.9765L14.9669 60.08ZM10.5669 52.8V52.6C10.4948 52.6 10.4282 52.6389 10.3927 52.7017C10.3573 52.7646 10.3584 52.8417 10.3958 52.9035L10.5669 52.8ZM12.7909 52.8L12.9623 52.697C12.9262 52.6368 12.8611 52.6 12.7909 52.6V52.8ZM16.0709 58.256L15.8995 58.359C15.9356 58.4191 16.0005 58.4558 16.0705 58.456C16.1405 58.4561 16.2056 58.4197 16.2419 58.3598L16.0709 58.256ZM19.3829 52.8V52.6C19.3131 52.6 19.2482 52.6365 19.212 52.6962L19.3829 52.8ZM21.4309 52.8L21.6021 52.9035C21.6394 52.8417 21.6406 52.7646 21.6052 52.7018C21.5697 52.6389 21.5031 52.6 21.4309 52.6V52.8ZM16.8469 60.048V64H17.2469V60.048H16.8469ZM17.0469 63.8H14.9669V64.2H17.0469V63.8ZM15.1669 64V60.08H14.7669V64H15.1669ZM15.1381 59.9765L10.7381 52.6965L10.3958 52.9035L14.7958 60.1835L15.1381 59.9765ZM10.5669 53H12.7909V52.6H10.5669V53ZM12.6195 52.903L15.8995 58.359L16.2423 58.153L12.9623 52.697L12.6195 52.903ZM16.2419 58.3598L19.5539 52.9038L19.212 52.6962L15.9 58.1522L16.2419 58.3598ZM19.3829 53H21.4309V52.6H19.3829V53ZM21.2598 52.6965L16.8758 59.9445L17.2181 60.1515L21.6021 52.9035L21.2598 52.6965Z" fill="#172126" mask="url(#path-53-outside-16_401_1983)"/>
<circle cx="142" cy="16" r="11.5" fill="#F1F5F8" stroke="#E9EEF2"/>
<mask id="path-56-outside-17_401_1983" maskUnits="userSpaceOnUse" x="136" y="10" width="12" height="13" fill="black">
<rect fill="white" x="136" y="10" width="12" height="13"/>
<path d="M145.013 22L141.973 17.744L138.965 22H136.597L140.757 16.288L136.821 10.8H139.173L142.037 14.784L144.869 10.8H147.125L143.205 16.208L147.413 22H145.013Z"/>
</mask>
<path d="M145.013 22L141.973 17.744L138.965 22H136.597L140.757 16.288L136.821 10.8H139.173L142.037 14.784L144.869 10.8H147.125L143.205 16.208L147.413 22H145.013Z" fill="#4834D4"/>
<path d="M145.013 22L144.85 22.1162C144.888 22.1688 144.949 22.2 145.013 22.2V22ZM141.973 17.744L142.136 17.6278C142.098 17.575 142.037 17.5438 141.973 17.544C141.908 17.5442 141.847 17.5757 141.81 17.6286L141.973 17.744ZM138.965 22V22.2C139.03 22.2 139.091 22.1685 139.128 22.1154L138.965 22ZM136.597 22L136.435 21.8823C136.391 21.9431 136.385 22.0236 136.419 22.0907C136.453 22.1578 136.522 22.2 136.597 22.2V22ZM140.757 16.288L140.919 16.4057C140.97 16.336 140.97 16.2415 140.92 16.1714L140.757 16.288ZM136.821 10.8V10.6C136.746 10.6 136.677 10.6419 136.643 10.7087C136.609 10.7754 136.615 10.8556 136.659 10.9166L136.821 10.8ZM139.173 10.8L139.336 10.6833C139.298 10.631 139.238 10.6 139.173 10.6V10.8ZM142.037 14.784L141.875 14.9007C141.912 14.9532 141.973 14.9842 142.038 14.984C142.102 14.9838 142.163 14.9525 142.2 14.8999L142.037 14.784ZM144.869 10.8V10.6C144.804 10.6 144.744 10.6313 144.706 10.6841L144.869 10.8ZM147.125 10.8L147.287 10.9174C147.331 10.8565 147.337 10.7761 147.303 10.7091C147.269 10.6421 147.2 10.6 147.125 10.6V10.8ZM143.205 16.208L143.043 16.0906C142.992 16.1607 142.992 16.2555 143.043 16.3256L143.205 16.208ZM147.413 22V22.2C147.488 22.2 147.557 22.1578 147.591 22.0908C147.625 22.0238 147.619 21.9433 147.575 21.8824L147.413 22ZM145.176 21.8838L142.136 17.6278L141.81 17.8602L144.85 22.1162L145.176 21.8838ZM141.81 17.6286L138.802 21.8846L139.128 22.1154L142.136 17.8594L141.81 17.6286ZM138.965 21.8H136.597V22.2H138.965V21.8ZM136.759 22.1177L140.919 16.4057L140.595 16.1703L136.435 21.8823L136.759 22.1177ZM140.92 16.1714L136.984 10.6834L136.659 10.9166L140.595 16.4046L140.92 16.1714ZM136.821 11H139.173V10.6H136.821V11ZM139.011 10.9167L141.875 14.9007L142.2 14.6673L139.336 10.6833L139.011 10.9167ZM142.2 14.8999L145.032 10.9159L144.706 10.6841L141.874 14.6681L142.2 14.8999ZM144.869 11H147.125V10.6H144.869V11ZM146.963 10.6826L143.043 16.0906L143.367 16.3254L147.287 10.9174L146.963 10.6826ZM143.043 16.3256L147.251 22.1176L147.575 21.8824L143.367 16.0904L143.043 16.3256ZM147.413 21.8H145.013V22.2H147.413V21.8Z" fill="#4834D4" mask="url(#path-56-outside-17_401_1983)"/>
<circle cx="142" cy="58" r="11.5" fill="#F1F5F8" stroke="#E9EEF2"/>
<mask id="path-59-outside-18_401_1983" maskUnits="userSpaceOnUse" x="136" y="52" width="12" height="13" fill="black">
<rect fill="white" x="136" y="52" width="12" height="13"/>
<path d="M145.013 64L141.973 59.744L138.965 64H136.597L140.757 58.288L136.821 52.8H139.173L142.037 56.784L144.869 52.8H147.125L143.205 58.208L147.413 64H145.013Z"/>
</mask>
<path d="M145.013 64L141.973 59.744L138.965 64H136.597L140.757 58.288L136.821 52.8H139.173L142.037 56.784L144.869 52.8H147.125L143.205 58.208L147.413 64H145.013Z" fill="#172126"/>
<path d="M145.013 64L144.85 64.1162C144.888 64.1688 144.949 64.2 145.013 64.2V64ZM141.973 59.744L142.136 59.6278C142.098 59.575 142.037 59.5438 141.973 59.544C141.908 59.5442 141.847 59.5757 141.81 59.6286L141.973 59.744ZM138.965 64V64.2C139.03 64.2 139.091 64.1685 139.128 64.1154L138.965 64ZM136.597 64L136.435 63.8823C136.391 63.9431 136.385 64.0236 136.419 64.0907C136.453 64.1578 136.522 64.2 136.597 64.2V64ZM140.757 58.288L140.919 58.4057C140.97 58.336 140.97 58.2415 140.92 58.1714L140.757 58.288ZM136.821 52.8V52.6C136.746 52.6 136.677 52.6419 136.643 52.7087C136.609 52.7754 136.615 52.8556 136.659 52.9166L136.821 52.8ZM139.173 52.8L139.336 52.6833C139.298 52.631 139.238 52.6 139.173 52.6V52.8ZM142.037 56.784L141.875 56.9007C141.912 56.9532 141.973 56.9842 142.038 56.984C142.102 56.9838 142.163 56.9525 142.2 56.8999L142.037 56.784ZM144.869 52.8V52.6C144.804 52.6 144.744 52.6313 144.706 52.6841L144.869 52.8ZM147.125 52.8L147.287 52.9174C147.331 52.8565 147.337 52.7761 147.303 52.7091C147.269 52.6421 147.2 52.6 147.125 52.6V52.8ZM143.205 58.208L143.043 58.0906C142.992 58.1607 142.992 58.2555 143.043 58.3256L143.205 58.208ZM147.413 64V64.2C147.488 64.2 147.557 64.1578 147.591 64.0908C147.625 64.0238 147.619 63.9433 147.575 63.8824L147.413 64ZM145.176 63.8838L142.136 59.6278L141.81 59.8602L144.85 64.1162L145.176 63.8838ZM141.81 59.6286L138.802 63.8846L139.128 64.1154L142.136 59.8594L141.81 59.6286ZM138.965 63.8H136.597V64.2H138.965V63.8ZM136.759 64.1177L140.919 58.4057L140.595 58.1703L136.435 63.8823L136.759 64.1177ZM140.92 58.1714L136.984 52.6834L136.659 52.9166L140.595 58.4046L140.92 58.1714ZM136.821 53H139.173V52.6H136.821V53ZM139.011 52.9167L141.875 56.9007L142.2 56.6673L139.336 52.6833L139.011 52.9167ZM142.2 56.8999L145.032 52.9159L144.706 52.6841L141.874 56.6681L142.2 56.8999ZM144.869 53H147.125V52.6H144.869V53ZM146.963 52.6826L143.043 58.0906L143.367 58.3254L147.287 52.9174L146.963 52.6826ZM143.043 58.3256L147.251 64.1176L147.575 63.8824L143.367 58.0904L143.043 58.3256ZM147.413 63.8H145.013V64.2H147.413V63.8Z" fill="#172126" mask="url(#path-59-outside-18_401_1983)"/>
<circle cx="15.9999" cy="268" r="9.27778" fill="#F1F5F8" stroke="#E9EEF2"/>
<path d="M19.0522 273L17.0502 270.13C16.9662 270.139 16.8402 270.144 16.6722 270.144H14.4602V273H12.6402V263.2H16.6722C17.5215 263.2 18.2589 263.34 18.8842 263.62C19.5189 263.9 20.0042 264.301 20.3402 264.824C20.6762 265.347 20.8442 265.967 20.8442 266.686C20.8442 267.423 20.6622 268.058 20.2982 268.59C19.9435 269.122 19.4302 269.519 18.7582 269.78L21.0122 273H19.0522ZM19.0102 266.686C19.0102 266.061 18.8049 265.58 18.3942 265.244C17.9835 264.908 17.3815 264.74 16.5882 264.74H14.4602V268.646H16.5882C17.3815 268.646 17.9835 268.478 18.3942 268.142C18.8049 267.797 19.0102 267.311 19.0102 266.686Z" fill="#172126"/>
<g clip-path="url(#clip0_401_1983)">
<circle cx="57.9999" cy="268" r="9.27778" fill="#F1F5F8" stroke="#E9EEF2"/>
<path d="M46.4444 271.556L42 268L46.3655 264.508L46.4444 271.556Z" fill="#172126"/>
<path d="M69.5556 271.556L74 268L69.6345 264.508L69.5556 271.556Z" fill="#172126"/>
<path d="M54.4446 256.444L58.0001 252L61.4925 256.366L54.4446 256.444Z" fill="#172126"/>
<path d="M54.4446 279.556L58.0001 284L61.4925 279.634L54.4446 279.556Z" fill="#172126"/>
<mask id="path-68-inside-19_401_1983" fill="white">
<path fill-rule="evenodd" clip-rule="evenodd" d="M63.3333 255.776V257.746C65.4354 258.842 67.1583 260.565 68.2539 262.667H70.2239C68.88 259.591 66.4092 257.12 63.3333 255.776ZM52.6667 257.746V255.776C49.5908 257.12 47.12 259.591 45.7761 262.667H47.7462C48.8417 260.565 50.5647 258.842 52.6667 257.746ZM52.6667 278.254V280.224C49.5908 278.88 47.12 276.409 45.7761 273.333H47.7462C48.8417 275.435 50.5647 277.158 52.6667 278.254ZM63.3333 280.224C66.4092 278.88 68.88 276.409 70.2239 273.333H68.2539C67.1583 275.435 65.4353 277.158 63.3333 278.254V280.224Z"/>
</mask>
<path fill-rule="evenodd" clip-rule="evenodd" d="M63.3333 255.776V257.746C65.4354 258.842 67.1583 260.565 68.2539 262.667H70.2239C68.88 259.591 66.4092 257.12 63.3333 255.776ZM52.6667 257.746V255.776C49.5908 257.12 47.12 259.591 45.7761 262.667H47.7462C48.8417 260.565 50.5647 258.842 52.6667 257.746ZM52.6667 278.254V280.224C49.5908 278.88 47.12 276.409 45.7761 273.333H47.7462C48.8417 275.435 50.5647 277.158 52.6667 278.254ZM63.3333 280.224C66.4092 278.88 68.88 276.409 70.2239 273.333H68.2539C67.1583 275.435 65.4353 277.158 63.3333 278.254V280.224Z" fill="#F1F5F8"/>
<path d="M63.3333 255.776L64.1341 253.943L61.3333 252.72V255.776H63.3333ZM63.3333 257.746H61.3333V258.959L62.409 259.52L63.3333 257.746ZM68.2539 262.667L66.4803 263.591L67.0409 264.667H68.2539V262.667ZM70.2239 262.667V264.667H73.2803L72.0566 261.866L70.2239 262.667ZM52.6667 257.746L53.591 259.52L54.6667 258.959V257.746H52.6667ZM52.6667 255.776H54.6667V252.72L51.8659 253.943L52.6667 255.776ZM45.7761 262.667L43.9434 261.866L42.7197 264.667H45.7761V262.667ZM47.7462 262.667V264.667H48.9591L49.5197 263.591L47.7462 262.667ZM52.6667 280.224L51.8659 282.056L54.6667 283.28V280.224H52.6667ZM52.6667 278.254H54.6667V277.041L53.591 276.48L52.6667 278.254ZM45.7761 273.333V271.333H42.7197L43.9434 274.134L45.7761 273.333ZM47.7462 273.333L49.5197 272.409L48.9591 271.333H47.7462V273.333ZM63.3333 280.224H61.3333V283.28L64.1341 282.056L63.3333 280.224ZM70.2239 273.333L72.0566 274.134L73.2803 271.333H70.2239V273.333ZM68.2539 273.333V271.333H67.0409L66.4803 272.409L68.2539 273.333ZM63.3333 278.254L62.409 276.48L61.3333 277.041V278.254H63.3333ZM61.3333 255.776V257.746H65.3333V255.776H61.3333ZM62.409 259.52C64.1476 260.426 65.5741 261.852 66.4803 263.591L70.0274 261.742C68.7425 259.277 66.7231 257.257 64.2577 255.972L62.409 259.52ZM68.2539 264.667H70.2239V260.667H68.2539V264.667ZM72.0566 261.866C70.511 258.328 67.6716 255.489 64.1341 253.943L62.5326 257.609C65.1467 258.751 67.249 260.853 68.3912 263.467L72.0566 261.866ZM54.6667 257.746V255.776H50.6667V257.746H54.6667ZM51.8659 253.943C48.3284 255.489 45.489 258.328 43.9434 261.866L47.6088 263.467C48.751 260.853 50.8533 258.751 53.4674 257.609L51.8659 253.943ZM45.7761 264.667H47.7462V260.667H45.7761V264.667ZM49.5197 263.591C50.4259 261.852 51.8524 260.426 53.591 259.52L51.7423 255.972C49.2769 257.257 47.2575 259.277 45.9726 261.742L49.5197 263.591ZM54.6667 280.224V278.254H50.6667V280.224H54.6667ZM43.9434 274.134C45.489 277.672 48.3284 280.511 51.8659 282.056L53.4674 278.391C50.8533 277.249 48.751 275.147 47.6088 272.532L43.9434 274.134ZM47.7462 271.333H45.7761V275.333H47.7462V271.333ZM53.591 276.48C51.8524 275.574 50.4259 274.147 49.5197 272.409L45.9726 274.258C47.2575 276.723 49.2769 278.742 51.7423 280.027L53.591 276.48ZM64.1341 282.056C67.6716 280.511 70.511 277.672 72.0566 274.134L68.3912 272.532C67.249 275.147 65.1467 277.249 62.5326 278.391L64.1341 282.056ZM70.2239 271.333H68.2539V275.333H70.2239V271.333ZM66.4803 272.409C65.5741 274.147 64.1476 275.574 62.409 276.48L64.2577 280.027C66.7231 278.742 68.7425 276.723 70.0274 274.258L66.4803 272.409ZM61.3333 278.254V280.224H65.3333V278.254H61.3333Z" fill="#E9EEF2" mask="url(#path-68-inside-19_401_1983)"/>
<path d="M61.0524 273L59.0504 270.13C58.9664 270.139 58.8404 270.144 58.6724 270.144H56.4604V273H54.6404V263.2H58.6724C59.5218 263.2 60.2591 263.34 60.8844 263.62C61.5191 263.9 62.0044 264.301 62.3404 264.824C62.6764 265.347 62.8444 265.967 62.8444 266.686C62.8444 267.423 62.6624 268.058 62.2984 268.59C61.9438 269.122 61.4304 269.519 60.7584 269.78L63.0124 273H61.0524ZM61.0104 266.686C61.0104 266.061 60.8051 265.58 60.3944 265.244C59.9838 264.908 59.3818 264.74 58.5884 264.74H56.4604V268.646H58.5884C59.3818 268.646 59.9838 268.478 60.3944 268.142C60.8051 267.797 61.0104 267.311 61.0104 266.686Z" fill="#172126"/>
</g>
<circle cx="16" cy="436" r="11.5" fill="#F1F5F8" stroke="#E9EEF2"/>
<path d="M9 441H22.8" stroke="#172126" stroke-width="1.5" stroke-linecap="round" stroke-linejoin="round"/>
<path d="M9.19995 436.4H23" stroke="#172126" stroke-width="1.5" stroke-linecap="round" stroke-linejoin="round"/>
<path d="M9.19995 432H23" stroke="#172126" stroke-width="1.5" stroke-linecap="round" stroke-linejoin="round"/>
<circle cx="58" cy="436" r="11.5" fill="#F1F5F8" stroke="#E9EEF2"/>
<path d="M59.4384 432.224V431H51V435.896H52.9178M56.5616 435.284V440.333H65V435.284H56.5616Z" stroke="#172126" stroke-width="1.5" stroke-linecap="round" stroke-linejoin="round"/>
<rect x="128.461" y="344.461" width="27.0789" height="16.0789" rx="8.03944" fill="#F1F5F8" stroke="#E9EEF2" stroke-width="0.921116"/>
<path d="M135.505 350.182V355.282H148.35V350.182" stroke="#172126" stroke-width="1.5" stroke-linecap="round" stroke-linejoin="round"/>
<path d="M141.856 349.255V352.655" stroke="#172126" stroke-width="1.5" stroke-linecap="round"/>
<path d="M139.835 349.873L141.856 347.709L143.876 349.873" stroke="#172126" stroke-width="1.5" stroke-linecap="round" stroke-linejoin="round"/>
<mask id="path-81-outside-20_401_1983" maskUnits="userSpaceOnUse" x="1" y="127.569" width="30" height="30" fill="black">
<rect fill="white" x="1" y="127.569" width="30" height="30"/>
<path fill-rule="evenodd" clip-rule="evenodd" d="M12.6922 128.569C12.1399 128.569 11.6922 129.017 11.6922 129.569V138.262H20.3076V129.569C20.3076 129.017 19.8599 128.569 19.3076 128.569H12.6922ZM20.3077 146.877H20.3076V155.569C20.3076 156.122 19.8599 156.569 19.3076 156.569H12.6922C12.1399 156.569 11.6922 156.122 11.6922 155.569V146.877H3C2.44772 146.877 2 146.429 2 145.877V139.262C2 138.709 2.44772 138.262 3 138.262H20.3077V146.877ZM29.0001 138.262H20.3078V146.877H29.0001C29.5524 146.877 30.0001 146.429 30.0001 145.877V139.262C30.0001 138.709 29.5524 138.262 29.0001 138.262Z"/>
</mask>
<path fill-rule="evenodd" clip-rule="evenodd" d="M12.6922 128.569C12.1399 128.569 11.6922 129.017 11.6922 129.569V138.262H20.3076V129.569C20.3076 129.017 19.8599 128.569 19.3076 128.569H12.6922ZM20.3077 146.877H20.3076V155.569C20.3076 156.122 19.8599 156.569 19.3076 156.569H12.6922C12.1399 156.569 11.6922 156.122 11.6922 155.569V146.877H3C2.44772 146.877 2 146.429 2 145.877V139.262C2 138.709 2.44772 138.262 3 138.262H20.3077V146.877ZM29.0001 138.262H20.3078V146.877H29.0001C29.5524 146.877 30.0001 146.429 30.0001 145.877V139.262C30.0001 138.709 29.5524 138.262 29.0001 138.262Z" fill="#F1F5F8"/>
<path d="M11.6922 138.262H10.6922V139.262H11.6922V138.262ZM20.3076 138.262V139.262H21.3076V138.262H20.3076ZM20.3076 146.877V145.877H19.3076V146.877H20.3076ZM20.3077 146.877V147.877H21.3077V146.877H20.3077ZM11.6922 146.877H12.6922V145.877H11.6922V146.877ZM20.3077 138.262H21.3077V137.262H20.3077V138.262ZM20.3078 138.262V137.262H19.3078V138.262H20.3078ZM20.3078 146.877H19.3078V147.877H20.3078V146.877ZM12.6922 129.569V129.569V127.569C11.5876 127.569 10.6922 128.465 10.6922 129.569H12.6922ZM12.6922 138.262V129.569H10.6922V138.262H12.6922ZM20.3076 137.262H11.6922V139.262H20.3076V137.262ZM19.3076 129.569V138.262H21.3076V129.569H19.3076ZM19.3076 129.569V129.569H21.3076C21.3076 128.465 20.4122 127.569 19.3076 127.569V129.569ZM12.6922 129.569H19.3076V127.569H12.6922V129.569ZM20.3076 147.877H20.3077V145.877H20.3076V147.877ZM21.3076 155.569V146.877H19.3076V155.569H21.3076ZM19.3076 157.569C20.4122 157.569 21.3076 156.674 21.3076 155.569H19.3076H19.3076V157.569ZM12.6922 157.569H19.3076V155.569H12.6922V157.569ZM10.6922 155.569C10.6922 156.674 11.5876 157.569 12.6922 157.569V155.569H12.6922H10.6922ZM10.6922 146.877V155.569H12.6922V146.877H10.6922ZM3 147.877H11.6922V145.877H3V147.877ZM1 145.877C1 146.982 1.89543 147.877 3 147.877V145.877H3H1ZM1 139.262V145.877H3V139.262H1ZM3 137.262C1.89543 137.262 1 138.157 1 139.262H3L3 139.262V137.262ZM20.3077 137.262H3V139.262H20.3077V137.262ZM21.3077 146.877V138.262H19.3077V146.877H21.3077ZM20.3078 139.262H29.0001V137.262H20.3078V139.262ZM21.3078 146.877V138.262H19.3078V146.877H21.3078ZM29.0001 145.877H20.3078V147.877H29.0001V145.877ZM29.0001 145.877V145.877V147.877C30.1046 147.877 31.0001 146.982 31.0001 145.877H29.0001ZM29.0001 139.262V145.877H31.0001V139.262H29.0001ZM29.0001 139.262H31.0001C31.0001 138.157 30.1046 137.262 29.0001 137.262V139.262Z" fill="#E9EEF2" mask="url(#path-81-outside-20_401_1983)"/>
<path d="M11.3333 138.267L11.3333 129C11.3333 128.448 11.781 128 12.3333 128L19.6666 128C20.2189 128 20.6666 128.448 20.6666 129L20.6666 138.267L11.3333 138.267Z" fill="#172126"/>
<mask id="path-84-outside-21_401_1983" maskUnits="userSpaceOnUse" x="1" y="337.569" width="30" height="30" fill="black">
<rect fill="white" x="1" y="337.569" width="30" height="30"/>
<path fill-rule="evenodd" clip-rule="evenodd" d="M12.6922 338.569C12.1399 338.569 11.6922 339.017 11.6922 339.569V348.262H20.3076V339.569C20.3076 339.017 19.8599 338.569 19.3076 338.569H12.6922ZM20.3077 356.877H20.3076V365.569C20.3076 366.122 19.8599 366.569 19.3076 366.569H12.6922C12.1399 366.569 11.6922 366.122 11.6922 365.569V356.877H3C2.44772 356.877 2 356.429 2 355.877V349.262C2 348.709 2.44772 348.262 3 348.262H20.3077V356.877ZM29.0001 348.262H20.3078V356.877H29.0001C29.5524 356.877 30.0001 356.429 30.0001 355.877V349.262C30.0001 348.709 29.5524 348.262 29.0001 348.262Z"/>
</mask>
<path fill-rule="evenodd" clip-rule="evenodd" d="M12.6922 338.569C12.1399 338.569 11.6922 339.017 11.6922 339.569V348.262H20.3076V339.569C20.3076 339.017 19.8599 338.569 19.3076 338.569H12.6922ZM20.3077 356.877H20.3076V365.569C20.3076 366.122 19.8599 366.569 19.3076 366.569H12.6922C12.1399 366.569 11.6922 366.122 11.6922 365.569V356.877H3C2.44772 356.877 2 356.429 2 355.877V349.262C2 348.709 2.44772 348.262 3 348.262H20.3077V356.877ZM29.0001 348.262H20.3078V356.877H29.0001C29.5524 356.877 30.0001 356.429 30.0001 355.877V349.262C30.0001 348.709 29.5524 348.262 29.0001 348.262Z" fill="#F1F5F8"/>
<path d="M11.6922 348.262H10.6922V349.262H11.6922V348.262ZM20.3076 348.262V349.262H21.3076V348.262H20.3076ZM20.3076 356.877V355.877H19.3076V356.877H20.3076ZM20.3077 356.877V357.877H21.3077V356.877H20.3077ZM11.6922 356.877H12.6922V355.877H11.6922V356.877ZM20.3077 348.262H21.3077V347.262H20.3077V348.262ZM20.3078 348.262V347.262H19.3078V348.262H20.3078ZM20.3078 356.877H19.3078V357.877H20.3078V356.877ZM12.6922 339.569V339.569V337.569C11.5876 337.569 10.6922 338.465 10.6922 339.569H12.6922ZM12.6922 348.262V339.569H10.6922V348.262H12.6922ZM20.3076 347.262H11.6922V349.262H20.3076V347.262ZM19.3076 339.569V348.262H21.3076V339.569H19.3076ZM19.3076 339.569V339.569H21.3076C21.3076 338.465 20.4122 337.569 19.3076 337.569V339.569ZM12.6922 339.569H19.3076V337.569H12.6922V339.569ZM20.3076 357.877H20.3077V355.877H20.3076V357.877ZM21.3076 365.569V356.877H19.3076V365.569H21.3076ZM19.3076 367.569C20.4122 367.569 21.3076 366.674 21.3076 365.569H19.3076H19.3076V367.569ZM12.6922 367.569H19.3076V365.569H12.6922V367.569ZM10.6922 365.569C10.6922 366.674 11.5876 367.569 12.6922 367.569V365.569H12.6922H10.6922ZM10.6922 356.877V365.569H12.6922V356.877H10.6922ZM3 357.877H11.6922V355.877H3V357.877ZM1 355.877C1 356.982 1.89543 357.877 3 357.877V355.877H3H1ZM1 349.262V355.877H3V349.262H1ZM3 347.262C1.89543 347.262 1 348.157 1 349.262H3L3 349.262V347.262ZM20.3077 347.262H3V349.262H20.3077V347.262ZM21.3077 356.877V348.262H19.3077V356.877H21.3077ZM20.3078 349.262H29.0001V347.262H20.3078V349.262ZM21.3078 356.877V348.262H19.3078V356.877H21.3078ZM29.0001 355.877H20.3078V357.877H29.0001V355.877ZM29.0001 355.877V355.877V357.877C30.1046 357.877 31.0001 356.982 31.0001 355.877H29.0001ZM29.0001 349.262V355.877H31.0001V349.262H29.0001ZM29.0001 349.262H31.0001C31.0001 348.157 30.1046 347.262 29.0001 347.262V349.262Z" fill="#E9EEF2" mask="url(#path-84-outside-21_401_1983)"/>
<mask id="path-86-outside-22_401_1983" maskUnits="userSpaceOnUse" x="43" y="127.431" width="30" height="30" fill="black">
<rect fill="white" x="43" y="127.431" width="30" height="30"/>
<path fill-rule="evenodd" clip-rule="evenodd" d="M54.6922 156.431C54.1399 156.431 53.6922 155.983 53.6922 155.431V146.738H62.3076V155.431C62.3076 155.983 61.8599 156.431 61.3076 156.431H54.6922ZM62.3077 138.123H62.3076V129.431C62.3076 128.878 61.8599 128.431 61.3076 128.431H54.6922C54.1399 128.431 53.6922 128.878 53.6922 129.431V138.123H45C44.4477 138.123 44 138.571 44 139.123V145.738C44 146.291 44.4477 146.738 45 146.738H62.3077V138.123ZM71.0001 146.738H62.3078V138.123H71.0001C71.5524 138.123 72.0001 138.571 72.0001 139.123V145.738C72.0001 146.291 71.5524 146.738 71.0001 146.738Z"/>
</mask>
<path fill-rule="evenodd" clip-rule="evenodd" d="M54.6922 156.431C54.1399 156.431 53.6922 155.983 53.6922 155.431V146.738H62.3076V155.431C62.3076 155.983 61.8599 156.431 61.3076 156.431H54.6922ZM62.3077 138.123H62.3076V129.431C62.3076 128.878 61.8599 128.431 61.3076 128.431H54.6922C54.1399 128.431 53.6922 128.878 53.6922 129.431V138.123H45C44.4477 138.123 44 138.571 44 139.123V145.738C44 146.291 44.4477 146.738 45 146.738H62.3077V138.123ZM71.0001 146.738H62.3078V138.123H71.0001C71.5524 138.123 72.0001 138.571 72.0001 139.123V145.738C72.0001 146.291 71.5524 146.738 71.0001 146.738Z" fill="#F1F5F8"/>
<path d="M53.6922 146.738H52.6922V145.738H53.6922V146.738ZM62.3076 146.738V145.738H63.3076V146.738H62.3076ZM62.3076 138.123V139.123H61.3076V138.123H62.3076ZM62.3077 138.123V137.123H63.3077V138.123H62.3077ZM53.6922 138.123H54.6922V139.123H53.6922V138.123ZM62.3077 146.738H63.3077V147.738H62.3077V146.738ZM62.3078 146.738V147.738H61.3078V146.738H62.3078ZM62.3078 138.123H61.3078V137.123H62.3078V138.123ZM54.6922 155.431V155.431V157.431C53.5876 157.431 52.6922 156.535 52.6922 155.431H54.6922ZM54.6922 146.738V155.431H52.6922V146.738H54.6922ZM62.3076 147.738H53.6922V145.738H62.3076V147.738ZM61.3076 155.431V146.738H63.3076V155.431H61.3076ZM61.3076 155.431V155.431H63.3076C63.3076 156.535 62.4122 157.431 61.3076 157.431V155.431ZM54.6922 155.431H61.3076V157.431H54.6922V155.431ZM62.3076 137.123H62.3077V139.123H62.3076V137.123ZM63.3076 129.431V138.123H61.3076V129.431H63.3076ZM61.3076 127.431C62.4122 127.431 63.3076 128.326 63.3076 129.431H61.3076H61.3076V127.431ZM54.6922 127.431H61.3076V129.431H54.6922V127.431ZM52.6922 129.431C52.6922 128.326 53.5876 127.431 54.6922 127.431V129.431H54.6922H52.6922ZM52.6922 138.123V129.431H54.6922V138.123H52.6922ZM45 137.123H53.6922V139.123H45V137.123ZM43 139.123C43 138.018 43.8954 137.123 45 137.123V139.123H45H43ZM43 145.738V139.123H45V145.738H43ZM45 147.738C43.8954 147.738 43 146.843 43 145.738H45L45 145.738V147.738ZM62.3077 147.738H45V145.738H62.3077V147.738ZM63.3077 138.123V146.738H61.3077V138.123H63.3077ZM62.3078 145.738H71.0001V147.738H62.3078V145.738ZM63.3078 138.123V146.738H61.3078V138.123H63.3078ZM71.0001 139.123H62.3078V137.123H71.0001V139.123ZM71.0001 139.123V139.123V137.123C72.1046 137.123 73.0001 138.018 73.0001 139.123H71.0001ZM71.0001 145.738V139.123H73.0001V145.738H71.0001ZM71.0001 145.738H73.0001C73.0001 146.843 72.1046 147.738 71.0001 147.738V145.738Z" fill="#E9EEF2" mask="url(#path-86-outside-22_401_1983)"/>
<path d="M53.3333 146.733L53.3333 156C53.3333 156.552 53.781 157 54.3333 157L61.6666 157C62.2189 157 62.6666 156.552 62.6666 156L62.6666 146.733L53.3333 146.733Z" fill="#172126"/>
<mask id="path-89-outside-23_401_1983" maskUnits="userSpaceOnUse" x="85.5581" y="127" width="30" height="30" fill="black">
<rect fill="white" x="85.5581" y="127" width="30" height="30"/>
<path fill-rule="evenodd" clip-rule="evenodd" d="M86.5581 138.499C86.5581 137.947 87.0058 137.499 87.5581 137.499L96.0573 137.499L96.0573 145.943L87.5581 145.943C87.0058 145.943 86.5581 145.495 86.5581 144.943L86.5581 138.499ZM104.501 145.943L104.501 137.499L113 137.499C113.553 137.499 114 137.947 114 138.499L114 144.943C114 145.495 113.553 145.943 113 145.943L104.501 145.943ZM97.0573 128C96.505 128 96.0573 128.448 96.0573 129L96.0573 145.943L96.0573 145.943L96.0573 154.442C96.0573 154.994 96.505 155.442 97.0573 155.442L103.501 155.442C104.053 155.442 104.501 154.994 104.501 154.442L104.501 145.943L104.501 145.943L104.501 129C104.501 128.448 104.053 128 103.501 128L97.0573 128Z"/>
</mask>
<path fill-rule="evenodd" clip-rule="evenodd" d="M86.5581 138.499C86.5581 137.947 87.0058 137.499 87.5581 137.499L96.0573 137.499L96.0573 145.943L87.5581 145.943C87.0058 145.943 86.5581 145.495 86.5581 144.943L86.5581 138.499ZM104.501 145.943L104.501 137.499L113 137.499C113.553 137.499 114 137.947 114 138.499L114 144.943C114 145.495 113.553 145.943 113 145.943L104.501 145.943ZM97.0573 128C96.505 128 96.0573 128.448 96.0573 129L96.0573 145.943L96.0573 145.943L96.0573 154.442C96.0573 154.994 96.505 155.442 97.0573 155.442L103.501 155.442C104.053 155.442 104.501 154.994 104.501 154.442L104.501 145.943L104.501 145.943L104.501 129C104.501 128.448 104.053 128 103.501 128L97.0573 128Z" fill="#F1F5F8"/>
<path d="M86.5581 138.499L85.5581 138.499L86.5581 138.499ZM96.0573 137.499L96.0573 136.499L97.0573 136.499L97.0573 137.499L96.0573 137.499ZM96.0573 145.943L97.0573 145.943L97.0573 146.943L96.0573 146.943L96.0573 145.943ZM86.5581 144.943L87.5581 144.943L86.5581 144.943ZM104.501 137.499L103.501 137.499L103.501 136.499L104.501 136.499L104.501 137.499ZM104.501 145.943L104.501 146.943L103.501 146.943L103.501 145.943L104.501 145.943ZM114 138.499L113 138.499L114 138.499ZM114 144.943L115 144.943L114 144.943ZM96.0573 129L95.0573 129V129L96.0573 129ZM96.0573 145.943L97.0573 145.943L97.0573 145.951L97.0572 145.958L96.0573 145.943ZM96.0573 145.943L95.0573 145.943L95.0573 145.935L95.0575 145.927L96.0573 145.943ZM96.0573 154.442L97.0573 154.442L96.0573 154.442ZM104.501 154.442L105.501 154.442L104.501 154.442ZM104.501 145.943L103.501 145.943L104.501 145.943ZM104.501 145.943L103.501 145.943L104.501 145.943ZM104.501 129L105.501 129L104.501 129ZM87.5581 138.499L87.5581 138.499L85.5581 138.499C85.5581 137.395 86.4535 136.499 87.5581 136.499L87.5581 138.499ZM96.0573 138.499L87.5581 138.499L87.5581 136.499L96.0573 136.499L96.0573 138.499ZM95.0573 145.943L95.0573 137.499L97.0573 137.499L97.0573 145.943L95.0573 145.943ZM87.5581 144.943L96.0573 144.943L96.0573 146.943L87.5581 146.943L87.5581 144.943ZM87.5581 144.943L87.5581 144.943L87.5581 146.943C86.4535 146.943 85.5581 146.047 85.5581 144.943L87.5581 144.943ZM87.5581 138.499L87.5581 144.943L85.5581 144.943L85.5581 138.499L87.5581 138.499ZM105.501 137.499L105.501 145.943L103.501 145.943L103.501 137.499L105.501 137.499ZM113 138.499L104.501 138.499L104.501 136.499L113 136.499L113 138.499ZM113 138.499L113 136.499C114.105 136.499 115 137.395 115 138.499L113 138.499ZM113 144.943L113 138.499L115 138.499L115 144.943L113 144.943ZM113 144.943L115 144.943C115 146.047 114.105 146.943 113 146.943L113 144.943ZM104.501 144.943L113 144.943L113 146.943L104.501 146.943L104.501 144.943ZM95.0573 129C95.0573 127.895 95.9528 127 97.0573 127L97.0573 129L97.0573 129L95.0573 129ZM95.0573 145.943L95.0573 129L97.0573 129L97.0573 145.943L95.0573 145.943ZM97.0572 145.958L97.0572 145.958L95.0575 145.927L95.0575 145.927L97.0572 145.958ZM97.0573 145.943L97.0573 154.442L95.0573 154.442L95.0573 145.943L97.0573 145.943ZM97.0573 154.442L97.0573 156.442C95.9528 156.442 95.0573 155.546 95.0573 154.442L97.0573 154.442ZM97.0573 154.442L103.501 154.442L103.501 156.442L97.0573 156.442L97.0573 154.442ZM103.501 154.442L105.501 154.442C105.501 155.546 104.606 156.442 103.501 156.442L103.501 154.442ZM103.501 154.442L103.501 145.943L105.501 145.943L105.501 154.442L103.501 154.442ZM103.501 145.943L103.501 145.943L105.501 145.943L105.501 145.943L103.501 145.943ZM105.501 129L105.501 145.943L103.501 145.943L103.501 129L105.501 129ZM103.501 127C104.606 127 105.501 127.895 105.501 129L103.501 129L103.501 129L103.501 127ZM97.0573 127L103.501 127L103.501 129L97.0573 129L97.0573 127Z" fill="#E9EEF2" mask="url(#path-89-outside-23_401_1983)"/>
<path d="M96.0245 137.185L86.9999 137.185C86.4684 137.185 86.0375 137.616 86.0375 138.147L86.0375 145.295C86.0375 145.826 86.4684 146.257 86.9999 146.257L96.0245 146.257L96.0245 137.185Z" fill="#172126" stroke="#E9EEF2" stroke-width="0.075"/>
<mask id="path-92-outside-24_401_1983" maskUnits="userSpaceOnUse" x="126.442" y="126" width="30" height="30" fill="black">
<rect fill="white" x="126.442" y="126" width="30" height="30"/>
<path fill-rule="evenodd" clip-rule="evenodd" d="M155.442 144.501C155.442 145.053 154.994 145.501 154.442 145.501L146 145.501L146 154C146 154.552 145.552 155 145 155L138 155C137.448 155 137 154.552 137 154L137 145.501L129 145.501C128.448 145.501 128 145.053 128 144.501L128 138.057C128 137.505 128.448 137.057 129 137.057L137 137.057L137 137L137.499 137L137.499 128.558C137.499 128.006 137.947 127.558 138.499 127.558L144.943 127.558C145.495 127.558 145.943 128.006 145.943 128.558L145.943 137L146 137L146 137.057L154.442 137.057C154.994 137.057 155.442 137.505 155.442 138.057L155.442 144.501Z"/>
</mask>
<path fill-rule="evenodd" clip-rule="evenodd" d="M155.442 144.501C155.442 145.053 154.994 145.501 154.442 145.501L146 145.501L146 154C146 154.552 145.552 155 145 155L138 155C137.448 155 137 154.552 137 154L137 145.501L129 145.501C128.448 145.501 128 145.053 128 144.501L128 138.057C128 137.505 128.448 137.057 129 137.057L137 137.057L137 137L137.499 137L137.499 128.558C137.499 128.006 137.947 127.558 138.499 127.558L144.943 127.558C145.495 127.558 145.943 128.006 145.943 128.558L145.943 137L146 137L146 137.057L154.442 137.057C154.994 137.057 155.442 137.505 155.442 138.057L155.442 144.501Z" fill="#F1F5F8"/>
<path d="M146 145.501L145 145.501L145 144.501L146 144.501L146 145.501ZM145 155L145 154L145 155ZM138 155L138 156L138 155ZM137 145.501L137 144.501L138 144.501L138 145.501L137 145.501ZM128 144.501L127 144.501L128 144.501ZM128 138.057L129 138.057L128 138.057ZM137 137.057L138 137.057L138 138.057L137 138.057L137 137.057ZM137 137L136 137L136 136L137 136L137 137ZM137.499 137L138.499 137L138.499 138L137.499 138L137.499 137ZM137.499 128.558L138.499 128.558L137.499 128.558ZM145.943 128.558L146.943 128.558L145.943 128.558ZM145.943 137L145.943 138L144.943 138L144.943 137L145.943 137ZM146 137L146 136L147 136L147 137L146 137ZM146 137.057L146 138.057L145 138.057L145 137.057L146 137.057ZM154.442 144.501L154.442 144.501L156.442 144.501C156.442 145.605 155.546 146.501 154.442 146.501L154.442 144.501ZM146 144.501L154.442 144.501L154.442 146.501L146 146.501L146 144.501ZM145 154L145 145.501L147 145.501L147 154L145 154ZM145 154L145 154L147 154C147 155.105 146.105 156 145 156L145 154ZM138 154L145 154L145 156L138 156L138 154ZM138 154L138 154L138 156C136.895 156 136 155.105 136 154L138 154ZM138 145.501L138 154L136 154L136 145.501L138 145.501ZM129 144.501L137 144.501L137 146.501L129 146.501L129 144.501ZM129 144.501L129 146.501C127.895 146.501 127 145.605 127 144.501L129 144.501ZM129 138.057L129 144.501L127 144.501L127 138.057L129 138.057ZM129 138.057L129 138.057L127 138.057C127 136.953 127.895 136.057 129 136.057L129 138.057ZM137 138.057L129 138.057L129 136.057L137 136.057L137 138.057ZM138 137L138 137.057L136 137.057L136 137L138 137ZM137.499 138L137 138L137 136L137.499 136L137.499 138ZM138.499 128.558L138.499 137L136.499 137L136.499 128.558L138.499 128.558ZM138.499 128.558L136.499 128.558C136.499 127.453 137.395 126.558 138.499 126.558L138.499 128.558ZM144.943 128.558L138.499 128.558L138.499 126.558L144.943 126.558L144.943 128.558ZM144.943 128.558L144.943 126.558C146.047 126.558 146.943 127.453 146.943 128.558L144.943 128.558ZM144.943 137L144.943 128.558L146.943 128.558L146.943 137L144.943 137ZM146 138L145.943 138L145.943 136L146 136L146 138ZM145 137.057L145 137L147 137L147 137.057L145 137.057ZM154.442 138.057L146 138.057L146 136.057L154.442 136.057L154.442 138.057ZM154.442 138.057L154.442 136.057C155.546 136.057 156.442 136.953 156.442 138.057L154.442 138.057ZM154.442 144.501L154.442 138.057L156.442 138.057L156.442 144.501L154.442 144.501Z" fill="#E9EEF2" mask="url(#path-92-outside-24_401_1983)"/>
<path d="M145.938 145.89L145.9 145.89L145.9 145.853L145.9 136.705L145.9 136.668L145.938 136.668L155 136.668C155.573 136.668 156.038 137.132 156.038 137.705L156.038 144.853C156.038 145.426 155.573 145.89 155 145.89L145.938 145.89Z" fill="#172126" stroke="#E9EEF2" stroke-width="0.075"/>
<circle cx="15.9999" cy="184" r="9.27778" fill="#F1F5F8" stroke="#E9EEF2"/>
<path d="M13.5699 179.2H15.3899V187.46H20.5139V189H13.5699V179.2Z" fill="#172126"/>
<g clip-path="url(#clip1_401_1983)">
<circle cx="57.9999" cy="184" r="9.27778" fill="#F1F5F8" stroke="#E9EEF2"/>
<path d="M46.4444 187.556L42 184L46.3655 180.508L46.4444 187.556Z" fill="#172126"/>
<path d="M69.5556 187.556L74 184L69.6345 180.508L69.5556 187.556Z" fill="#172126"/>
<path d="M54.4446 172.444L58.0001 168L61.4925 172.366L54.4446 172.444Z" fill="#172126"/>
<path d="M54.4446 195.556L58.0001 200L61.4925 195.634L54.4446 195.556Z" fill="#172126"/>
<mask id="path-102-inside-25_401_1983" fill="white">
<path fill-rule="evenodd" clip-rule="evenodd" d="M63.3333 171.776V173.746C65.4354 174.842 67.1583 176.565 68.2539 178.667H70.2239C68.88 175.591 66.4092 173.12 63.3333 171.776ZM52.6667 173.746V171.776C49.5908 173.12 47.12 175.591 45.7761 178.667H47.7462C48.8417 176.565 50.5647 174.842 52.6667 173.746ZM52.6667 194.254V196.224C49.5908 194.88 47.12 192.409 45.7761 189.333H47.7462C48.8417 191.435 50.5647 193.158 52.6667 194.254ZM63.3333 196.224C66.4092 194.88 68.88 192.409 70.2239 189.333H68.2539C67.1583 191.435 65.4353 193.158 63.3333 194.254V196.224Z"/>
</mask>
<path fill-rule="evenodd" clip-rule="evenodd" d="M63.3333 171.776V173.746C65.4354 174.842 67.1583 176.565 68.2539 178.667H70.2239C68.88 175.591 66.4092 173.12 63.3333 171.776ZM52.6667 173.746V171.776C49.5908 173.12 47.12 175.591 45.7761 178.667H47.7462C48.8417 176.565 50.5647 174.842 52.6667 173.746ZM52.6667 194.254V196.224C49.5908 194.88 47.12 192.409 45.7761 189.333H47.7462C48.8417 191.435 50.5647 193.158 52.6667 194.254ZM63.3333 196.224C66.4092 194.88 68.88 192.409 70.2239 189.333H68.2539C67.1583 191.435 65.4353 193.158 63.3333 194.254V196.224Z" fill="#F1F5F8"/>
<path d="M63.3333 171.776L64.1341 169.943L61.3333 168.72V171.776H63.3333ZM63.3333 173.746H61.3333V174.959L62.409 175.52L63.3333 173.746ZM68.2539 178.667L66.4803 179.591L67.0409 180.667H68.2539V178.667ZM70.2239 178.667V180.667H73.2803L72.0566 177.866L70.2239 178.667ZM52.6667 173.746L53.591 175.52L54.6667 174.959V173.746H52.6667ZM52.6667 171.776H54.6667V168.72L51.8659 169.943L52.6667 171.776ZM45.7761 178.667L43.9434 177.866L42.7197 180.667H45.7761V178.667ZM47.7462 178.667V180.667H48.9591L49.5197 179.591L47.7462 178.667ZM52.6667 196.224L51.8659 198.056L54.6667 199.28V196.224H52.6667ZM52.6667 194.254H54.6667V193.041L53.591 192.48L52.6667 194.254ZM45.7761 189.333V187.333H42.7197L43.9434 190.134L45.7761 189.333ZM47.7462 189.333L49.5197 188.409L48.9591 187.333H47.7462V189.333ZM63.3333 196.224H61.3333V199.28L64.1341 198.056L63.3333 196.224ZM70.2239 189.333L72.0566 190.134L73.2803 187.333H70.2239V189.333ZM68.2539 189.333V187.333H67.0409L66.4803 188.409L68.2539 189.333ZM63.3333 194.254L62.409 192.48L61.3333 193.041V194.254H63.3333ZM61.3333 171.776V173.746H65.3333V171.776H61.3333ZM62.409 175.52C64.1476 176.426 65.5741 177.852 66.4803 179.591L70.0274 177.742C68.7425 175.277 66.7231 173.257 64.2577 171.972L62.409 175.52ZM68.2539 180.667H70.2239V176.667H68.2539V180.667ZM72.0566 177.866C70.511 174.328 67.6716 171.489 64.1341 169.943L62.5326 173.609C65.1467 174.751 67.249 176.853 68.3912 179.467L72.0566 177.866ZM54.6667 173.746V171.776H50.6667V173.746H54.6667ZM51.8659 169.943C48.3284 171.489 45.489 174.328 43.9434 177.866L47.6088 179.467C48.751 176.853 50.8533 174.751 53.4674 173.609L51.8659 169.943ZM45.7761 180.667H47.7462V176.667H45.7761V180.667ZM49.5197 179.591C50.4259 177.852 51.8524 176.426 53.591 175.52L51.7423 171.972C49.2769 173.257 47.2575 175.277 45.9726 177.742L49.5197 179.591ZM54.6667 196.224V194.254H50.6667V196.224H54.6667ZM43.9434 190.134C45.489 193.672 48.3284 196.511 51.8659 198.056L53.4674 194.391C50.8533 193.249 48.751 191.147 47.6088 188.532L43.9434 190.134ZM47.7462 187.333H45.7761V191.333H47.7462V187.333ZM53.591 192.48C51.8524 191.574 50.4259 190.147 49.5197 188.409L45.9726 190.258C47.2575 192.723 49.2769 194.742 51.7423 196.027L53.591 192.48ZM64.1341 198.056C67.6716 196.511 70.511 193.672 72.0566 190.134L68.3912 188.532C67.249 191.147 65.1467 193.249 62.5326 194.391L64.1341 198.056ZM70.2239 187.333H68.2539V191.333H70.2239V187.333ZM66.4803 188.409C65.5741 190.147 64.1476 191.574 62.409 192.48L64.2577 196.027C66.7231 194.742 68.7425 192.723 70.0274 190.258L66.4803 188.409ZM61.3333 194.254V196.224H65.3333V194.254H61.3333Z" fill="#E9EEF2" mask="url(#path-102-inside-25_401_1983)"/>
<path d="M55.5701 179.2H57.3901V187.46H62.5141V189H55.5701V179.2Z" fill="#172126"/>
</g>
<g clip-path="url(#clip2_401_1983)">
<circle cx="15.9999" cy="226" r="9.27778" fill="#F1F5F8" stroke="#E9EEF2"/>
<path d="M18.4612 213.877L13.4941 213.933L15.9999 210.8L18.4612 213.877Z" fill="#172126" stroke="#172126"/>
<path d="M13.0156 221.2H14.8356V229.46H19.9596V231H13.0156V221.2Z" fill="#172126"/>
</g>
<g clip-path="url(#clip3_401_1983)">
<circle cx="15.9999" cy="310" r="9.27778" fill="#F1F5F8" stroke="#E9EEF2"/>
<path d="M18.4612 297.877L13.4941 297.933L15.9999 294.8L18.4612 297.877Z" fill="#172126" stroke="#172126"/>
<path d="M18.4979 315L16.4959 312.13C16.4119 312.139 16.2859 312.144 16.1179 312.144H13.9059V315H12.0859V305.2H16.1179C16.9672 305.2 17.7045 305.34 18.3299 305.62C18.9645 305.9 19.4499 306.301 19.7859 306.824C20.1219 307.347 20.2899 307.967 20.2899 308.686C20.2899 309.423 20.1079 310.058 19.7439 310.59C19.3892 311.122 18.8759 311.519 18.2039 311.78L20.4579 315H18.4979ZM18.4559 308.686C18.4559 308.061 18.2505 307.58 17.8399 307.244C17.4292 306.908 16.8272 306.74 16.0339 306.74H13.9059V310.646H16.0339C16.8272 310.646 17.4292 310.478 17.8399 310.142C18.2505 309.797 18.4559 309.311 18.4559 308.686Z" fill="#172126"/>
</g>
<circle cx="99.9999" cy="226" r="9.27778" fill="#F1F5F8" stroke="#E9EEF2"/>
<path d="M87.877 223.539L87.9327 228.506L84.8004 226L87.877 223.539Z" fill="#172126" stroke="#172126"/>
<path d="M97.0156 221.2H98.8356V229.46H103.96V231H97.0156V221.2Z" fill="#172126"/>
<circle cx="99.9999" cy="310" r="9.27778" fill="#F1F5F8" stroke="#E9EEF2"/>
<path d="M87.877 307.539L87.9327 312.506L84.8004 310L87.877 307.539Z" fill="#172126" stroke="#172126"/>
<path d="M102.498 315L100.496 312.13C100.412 312.139 100.286 312.144 100.118 312.144H97.9059V315H96.0859V305.2H100.118C100.967 305.2 101.705 305.34 102.33 305.62C102.965 305.9 103.45 306.301 103.786 306.824C104.122 307.347 104.29 307.967 104.29 308.686C104.29 309.423 104.108 310.058 103.744 310.59C103.389 311.122 102.876 311.519 102.204 311.78L104.458 315H102.498ZM102.456 308.686C102.456 308.061 102.251 307.58 101.84 307.244C101.429 306.908 100.827 306.74 100.034 306.74H97.9059V310.646H100.034C100.827 310.646 101.429 310.478 101.84 310.142C102.251 309.797 102.456 309.311 102.456 308.686Z" fill="#172126"/>
<circle cx="57.9999" cy="226" r="9.27778" fill="#F1F5F8" stroke="#E9EEF2"/>
<path d="M60.4612 238.123L55.4941 238.067L57.9999 241.2L60.4612 238.123Z" fill="#172126" stroke="#172126"/>
<path d="M55.0156 221.2H56.8356V229.46H61.9596V231H55.0156V221.2Z" fill="#172126"/>
<circle cx="142" cy="184" r="9.27778" fill="#F1F5F8" stroke="#E9EEF2"/>
<path d="M144.461 196.123L139.494 196.067L142 199.2L144.461 196.123Z" fill="#172126" stroke="#172126"/>
<path d="M138.803 189V178.818H140.956V187.225H145.321V189H138.803Z" fill="#172126"/>
<circle cx="142" cy="184" r="9.27778" fill="#F1F5F8" stroke="#E9EEF2"/>
<path d="M144.461 171.877L139.494 171.933L142 168.8L144.461 171.877Z" fill="#172126" stroke="#172126"/>
<path d="M139.016 179.2H140.836V187.46H145.96V189H139.016V179.2Z" fill="#172126"/>
<circle cx="57.9999" cy="310" r="9.27778" fill="#F1F5F8" stroke="#E9EEF2"/>
<path d="M60.4612 322.123L55.4941 322.067L57.9999 325.2L60.4612 322.123Z" fill="#172126" stroke="#172126"/>
<path d="M60.4979 315L58.4959 312.13C58.4119 312.139 58.2859 312.144 58.1179 312.144H55.9059V315H54.0859V305.2H58.1179C58.9672 305.2 59.7045 305.34 60.3299 305.62C60.9645 305.9 61.4499 306.301 61.7859 306.824C62.1219 307.347 62.2899 307.967 62.2899 308.686C62.2899 309.423 62.1079 310.058 61.7439 310.59C61.3892 311.122 60.8759 311.519 60.2039 311.78L62.4579 315H60.4979ZM60.4559 308.686C60.4559 308.061 60.2505 307.58 59.8399 307.244C59.4292 306.908 58.8272 306.74 58.0339 306.74H55.9059V310.646H58.0339C58.8272 310.646 59.4292 310.478 59.8399 310.142C60.2505 309.797 60.4559 309.311 60.4559 308.686Z" fill="#172126"/>
<circle cx="142" cy="268" r="9.27778" fill="#F1F5F8" stroke="#E9EEF2"/>
<path d="M144.461 280.123L139.494 280.067L142 283.2L144.461 280.123Z" fill="#172126" stroke="#172126"/>
<path d="M138.181 273V262.818H142.198C142.967 262.818 143.623 262.956 144.167 263.231C144.714 263.503 145.13 263.889 145.415 264.389C145.703 264.886 145.847 265.471 145.847 266.144C145.847 266.82 145.702 267.402 145.41 267.889C145.118 268.373 144.696 268.744 144.142 269.003C143.592 269.261 142.926 269.391 142.144 269.391H139.454V267.661H141.796C142.207 267.661 142.548 267.604 142.82 267.491C143.091 267.379 143.294 267.21 143.426 266.984C143.562 266.759 143.63 266.479 143.63 266.144C143.63 265.806 143.562 265.521 143.426 265.289C143.294 265.057 143.09 264.881 142.815 264.762C142.543 264.639 142.2 264.578 141.786 264.578H140.334V273H138.181ZM143.68 268.366L146.21 273H143.834L141.358 268.366H143.68Z" fill="#172126"/>
<circle cx="142" cy="268" r="9.27778" fill="#F1F5F8" stroke="#E9EEF2"/>
<path d="M144.461 255.877L139.494 255.933L142 252.8L144.461 255.877Z" fill="#172126" stroke="#172126"/>
<path d="M144.498 273L142.496 270.13C142.412 270.139 142.286 270.144 142.118 270.144H139.906V273H138.086V263.2H142.118C142.967 263.2 143.705 263.34 144.33 263.62C144.965 263.9 145.45 264.301 145.786 264.824C146.122 265.347 146.29 265.967 146.29 266.686C146.29 267.423 146.108 268.058 145.744 268.59C145.389 269.122 144.876 269.519 144.204 269.78L146.458 273H144.498ZM144.456 266.686C144.456 266.061 144.251 265.58 143.84 265.244C143.429 264.908 142.827 264.74 142.034 264.74H139.906V268.646H142.034C142.827 268.646 143.429 268.478 143.84 268.142C144.251 267.797 144.456 267.311 144.456 266.686Z" fill="#172126"/>
<g clip-path="url(#clip4_401_1983)">
<circle cx="142" cy="226" r="9.27778" fill="#F1F5F8" stroke="#E9EEF2"/>
<path d="M154.123 223.539L154.067 228.506L157.199 226L154.123 223.539Z" fill="#172126" stroke="#172126"/>
<path d="M139.016 221.2H140.836V229.46H145.96V231H139.016V221.2Z" fill="#172126"/>
</g>
<g clip-path="url(#clip5_401_1983)">
<circle cx="99.9999" cy="184" r="9.27778" fill="#F1F5F8" stroke="#E9EEF2"/>
<path d="M112.123 181.539L112.067 186.506L115.199 184L112.123 181.539Z" fill="#172126" stroke="#172126"/>
<path d="M96.8033 189V178.818H98.956V187.225H103.321V189H96.8033Z" fill="#172126"/>
<circle cx="99.9999" cy="184" r="9.27778" fill="#F1F5F8" stroke="#E9EEF2"/>
<path d="M87.877 181.539L87.9327 186.506L84.8004 184L87.877 181.539Z" fill="#172126" stroke="#172126"/>
<path d="M97.0156 179.2H98.8356V187.46H103.96V189H97.0156V179.2Z" fill="#172126"/>
</g>
<g clip-path="url(#clip6_401_1983)">
<circle cx="142" cy="310" r="9.27778" fill="#F1F5F8" stroke="#E9EEF2"/>
<path d="M154.123 307.539L154.067 312.506L157.199 310L154.123 307.539Z" fill="#172126" stroke="#172126"/>
<path d="M144.498 315L142.496 312.13C142.412 312.139 142.286 312.144 142.118 312.144H139.906V315H138.086V305.2H142.118C142.967 305.2 143.705 305.34 144.33 305.62C144.965 305.9 145.45 306.301 145.786 306.824C146.122 307.347 146.29 307.967 146.29 308.686C146.29 309.423 146.108 310.058 145.744 310.59C145.389 311.122 144.876 311.519 144.204 311.78L146.458 315H144.498ZM144.456 308.686C144.456 308.061 144.251 307.58 143.84 307.244C143.429 306.908 142.827 306.74 142.034 306.74H139.906V310.646H142.034C142.827 310.646 143.429 310.478 143.84 310.142C144.251 309.797 144.456 309.311 144.456 308.686Z" fill="#172126"/>
</g>
<g clip-path="url(#clip7_401_1983)">
<circle cx="99.9999" cy="268" r="9.27778" fill="#F1F5F8" stroke="#E9EEF2"/>
<path d="M112.123 265.539L112.067 270.506L115.199 268L112.123 265.539Z" fill="#172126" stroke="#172126"/>
<path d="M96.1812 273V262.818H100.198C100.967 262.818 101.623 262.956 102.167 263.231C102.714 263.503 103.13 263.889 103.415 264.389C103.703 264.886 103.847 265.471 103.847 266.144C103.847 266.82 103.702 267.402 103.41 267.889C103.118 268.373 102.696 268.744 102.142 269.003C101.592 269.261 100.926 269.391 100.144 269.391H97.4539V267.661H99.7955C100.207 267.661 100.548 267.604 100.82 267.491C101.091 267.379 101.294 267.21 101.426 266.984C101.562 266.759 101.63 266.479 101.63 266.144C101.63 265.806 101.562 265.521 101.426 265.289C101.294 265.057 101.09 264.881 100.815 264.762C100.543 264.639 100.2 264.578 99.7856 264.578H98.3339V273H96.1812ZM101.68 268.366L104.21 273H101.834L99.358 268.366H101.68Z" fill="#172126"/>
<circle cx="99.9999" cy="268" r="9.27778" fill="#F1F5F8" stroke="#E9EEF2"/>
<path d="M87.877 265.539L87.9327 270.506L84.8004 268L87.877 265.539Z" fill="#172126" stroke="#172126"/>
<path d="M102.498 273L100.496 270.13C100.412 270.139 100.286 270.144 100.118 270.144H97.9059V273H96.0859V263.2H100.118C100.967 263.2 101.705 263.34 102.33 263.62C102.965 263.9 103.45 264.301 103.786 264.824C104.122 265.347 104.29 265.967 104.29 266.686C104.29 267.423 104.108 268.058 103.744 268.59C103.389 269.122 102.876 269.519 102.204 269.78L104.458 273H102.498ZM102.456 266.686C102.456 266.061 102.251 265.58 101.84 265.244C101.429 264.908 100.827 264.74 100.034 264.74H97.9059V268.646H100.034C100.827 268.646 101.429 268.478 101.84 268.142C102.251 267.797 102.456 267.311 102.456 266.686Z" fill="#172126"/>
</g>
<defs>
<clipPath id="clip0_401_1983">
<rect width="32" height="32" fill="white" transform="translate(42 252)"/>
</clipPath>
<clipPath id="clip1_401_1983">
<rect width="32" height="32" fill="white" transform="translate(42 168)"/>
</clipPath>
<clipPath id="clip2_401_1983">
<rect width="32" height="32" fill="white" transform="translate(0 210)"/>
</clipPath>
<clipPath id="clip3_401_1983">
<rect width="32" height="32" fill="white" transform="translate(0 294)"/>
</clipPath>
<clipPath id="clip4_401_1983">
<rect width="32" height="32" fill="white" transform="translate(126 210)"/>
</clipPath>
<clipPath id="clip5_401_1983">
<rect width="32" height="32" fill="white" transform="translate(84 168)"/>
</clipPath>
<clipPath id="clip6_401_1983">
<rect width="32" height="32" fill="white" transform="translate(126 294)"/>
</clipPath>
<clipPath id="clip7_401_1983">
<rect width="32" height="32" fill="white" transform="translate(84 252)"/>
</clipPath>
</defs>
</svg>
